<svg xmlns="http://www.w3.org/2000/svg" enable-background="new 0 0 850 850" viewBox="0 0 850 850"><path fill="#fff" d="M693.87,523.93c-2.56-1.84-3.13-5.38-1.29-7.92l0,0c1.84-2.56,5.4-3.13,7.93-1.29l0,0     c2.54,1.84,3.13,5.38,1.29,7.94l0,0c-1.12,1.53-2.86,2.35-4.62,2.35l0,0C696.03,525.01,694.88,524.67,693.87,523.93z      M148.27,510.86c-1.89-2.48-1.4-6.06,1.08-7.95l0,0c0,0,0,0,0.02,0l0,0c2.48-1.89,6.06-1.4,7.96,1.1l0,0     c1.89,2.48,1.4,6.06-1.1,7.95l0,0c-1.02,0.78-2.23,1.16-3.43,1.16l0,0C151.09,513.11,149.39,512.34,148.27,510.86z      M669.29,506.43L669.29,506.43c-2.57-1.8-3.2-5.34-1.4-7.9l0,0c1.8-2.57,5.34-3.2,7.92-1.4l0,0l0,0l0,0     c2.58,1.8,3.2,5.34,1.4,7.92l0,0c-1.12,1.57-2.88,2.42-4.66,2.42l0,0C671.41,507.47,670.27,507.13,669.29,506.43z M172.5,492.71     c-1.86-2.54-1.29-6.08,1.25-7.94l0,0c2.54-1.84,6.1-1.29,7.94,1.25l0,0c1.84,2.54,1.29,6.1-1.25,7.94l0,0     c-1,0.74-2.18,1.1-3.33,1.1l0,0C175.34,495.06,173.62,494.25,172.5,492.71z M644.42,489.36c-2.6-1.76-3.29-5.28-1.53-7.9l0,0     c1.76-2.6,5.28-3.28,7.9-1.54l0,0c2.6,1.76,3.28,5.28,1.51,7.9l0,0c-1.1,1.63-2.88,2.5-4.72,2.5l0,0     C646.5,490.33,645.39,490.02,644.42,489.36z M197.08,475.06c-1.8-2.58-1.17-6.12,1.4-7.92l0,0c2.57-1.8,6.12-1.15,7.92,1.42l0,0     c1.8,2.58,1.16,6.12-1.4,7.9l0,0c-1,0.7-2.14,1.02-3.26,1.02l0,0C199.94,477.49,198.18,476.65,197.08,475.06z M619.27,472.71     c-2.63-1.72-3.37-5.25-1.67-7.86l0,0c1.7-2.63,5.23-3.39,7.86-1.67l0,0c2.63,1.71,3.37,5.23,1.67,7.86l0,0     c-1.1,1.67-2.92,2.58-4.77,2.58l0,0C621.29,473.62,620.21,473.32,619.27,472.71z M221.99,457.88c-1.74-2.6-1.04-6.14,1.55-7.88     l0,0c2.61-1.74,6.16-1.04,7.9,1.55l0,0c1.74,2.61,1.04,6.14-1.55,7.9l0,0c-0.99,0.64-2.08,0.95-3.16,0.95l0,0     C224.89,460.4,223.09,459.53,221.99,457.88z M593.83,456.48c-2.65-1.67-3.47-5.17-1.8-7.82l0,0c1.67-2.67,5.17-3.47,7.82-1.8l0,0     c2.67,1.65,3.47,5.17,1.82,7.82l0,0c-1.08,1.72-2.94,2.67-4.83,2.67l0,0C595.82,457.35,594.78,457.07,593.83,456.48z      M247.24,441.2c-1.71-2.65-0.93-6.18,1.7-7.86l0,0l0,0l0,0c2.63-1.71,6.16-0.93,7.86,1.71l0,0c1.68,2.63,0.93,6.16-1.71,7.86l0,0     c-0.97,0.61-2.03,0.89-3.09,0.89l0,0C250.15,443.79,248.32,442.88,247.24,441.2z M568.13,440.7c-2.69-1.61-3.56-5.11-1.95-7.8     l0,0c1.63-2.69,5.11-3.56,7.8-1.93l0,0c2.69,1.61,3.56,5.11,1.93,7.8l0,0c-1.06,1.76-2.94,2.75-4.87,2.75l0,0     C570.04,441.52,569.04,441.25,568.13,440.7z M272.79,424.96c-1.65-2.67-0.83-6.17,1.84-7.82l0,0c2.67-1.65,6.17-0.81,7.82,1.85     l0,0c1.65,2.67,0.83,6.18-1.84,7.82l0,0c-0.93,0.57-1.97,0.83-2.99,0.83l0,0C275.72,427.65,273.85,426.71,272.79,424.96z      M542.14,425.36c-2.71-1.57-3.64-5.04-2.06-7.76l0,0c1.57-2.71,5.04-3.64,7.77-2.07l0,0c2.71,1.57,3.64,5.04,2.06,7.77l0,0     c-1.06,1.82-2.96,2.82-4.93,2.82l0,0C544.02,426.12,543.03,425.87,542.14,425.36z M298.62,409.23c-1.59-2.71-0.7-6.19,2.01-7.8     l0,0c0,0,0,0,0,0.02l0,0c2.69-1.61,6.17-0.72,7.77,1.99l0,0c1.61,2.69,0.7,6.17-1.99,7.79l0,0c-0.91,0.53-1.89,0.8-2.88,0.8l0,0     C301.58,412.01,299.68,411.01,298.62,409.23z M515.91,410.49c-2.75-1.53-3.73-4.98-2.22-7.73l0,0c1.52-2.75,4.98-3.73,7.73-2.22     l0,0c2.75,1.53,3.73,4.98,2.22,7.73l0,0c-1.04,1.87-2.99,2.92-4.98,2.92l0,0C517.73,411.2,516.78,410.97,515.91,410.49z      M324.76,393.96c-1.55-2.75-0.59-6.21,2.14-7.75l0,0l0,0l0,0c2.73-1.55,6.19-0.59,7.75,2.14l0,0c1.54,2.73,0.59,6.19-2.14,7.75     l0,0c-0.89,0.49-1.86,0.74-2.8,0.74l0,0C327.73,396.84,325.8,395.8,324.76,393.96z M489.39,396.1c-2.77-1.48-3.83-4.91-2.35-7.69     l0,0c1.48-2.77,4.91-3.83,7.69-2.35l0,0c2.77,1.48,3.82,4.91,2.35,7.67l0,0c-1.02,1.93-2.99,3.03-5.02,3.03l0,0     C491.15,396.76,490.24,396.55,489.39,396.1z M462.63,382.24c-2.8-1.42-3.92-4.85-2.52-7.65l0,0c1.42-2.79,4.83-3.92,7.63-2.5l0,0     l0,0l0,0c2.8,1.42,3.92,4.83,2.52,7.63l0,0c-1,1.97-3.01,3.12-5.08,3.12l0,0C464.31,382.84,463.44,382.63,462.63,382.24z      M351.16,379.19c-1.5-2.77-0.47-6.21,2.29-7.71l0,0c2.75-1.5,6.21-0.47,7.71,2.29l0,0c1.5,2.75,0.47,6.19-2.29,7.69l0,0     c-0.85,0.47-1.8,0.68-2.71,0.68l0,0C354.16,382.14,352.21,381.08,351.16,379.19z M435.56,368.94c-2.82-1.34-4.03-4.74-2.69-7.58     l0,0c1.36-2.82,4.75-4.03,7.58-2.67l0,0l0,0l0,0c2.84,1.34,4.03,4.74,2.69,7.56l0,0c-0.97,2.05-3.01,3.26-5.13,3.26l0,0     C437.19,369.51,436.36,369.32,435.56,368.94z M377.85,364.9c-1.44-2.78-0.34-6.21,2.44-7.65l0,0c0,0,0,0-0.02,0l0,0     c2.79-1.46,6.23-0.36,7.67,2.42l0,0c1.44,2.78,0.36,6.21-2.43,7.67h-0.02c-0.83,0.42-1.72,0.63-2.6,0.63l0,0     C380.84,367.97,378.85,366.86,377.85,364.9z M408.8,356.7L408.8,356.7c-3.01-0.93-4.7-4.09-3.77-7.1l0,0     c0.91-2.99,4.09-4.68,7.1-3.77l0,0c0,0,0,0-0.02,0l0,0c3.01,0.93,4.7,4.11,3.77,7.1l0,0c-0.74,2.44-2.99,4.02-5.42,4.02l0,0     C409.92,356.95,409.35,356.87,408.8,356.7z"/><path fill="#f3b700" d="M620.06,426.08c-4.03,11.75-87,67.19-98.75,68.4c-11.14,1.15-85.88-28.24-100.88-37.86      c-0.83-0.55-1.5-1.01-1.93-1.41c-4.09-3.69-9.76-31.96-13.7-61.78c-4.23-32.3-6.48-66.44-2.48-73.38      c7.69-13.36,87.12-60.89,108.79-58.82c3.94,0.37,11.6,2.45,21.07,5.53c12.38,4,27.9,9.73,42.32,15.69      c22.31,9.18,42.03,18.89,43.53,23.43C621.27,315.58,624.12,414.33,620.06,426.08z"/><path fill="#fff" d="M426.76,359.92c0.36,7.95-3.04,14.56-7.6,14.77c-4.56,0.21-8.55-6.07-8.92-14.01       c-0.36-7.95,3.04-14.56,7.6-14.77C422.41,345.7,426.4,351.98,426.76,359.92z"/><path fill="#fff" d="M437.61,438.21c0.36,7.95-3.04,14.56-7.6,14.77c-4.56,0.21-8.55-6.07-8.92-14.01       c-0.36-7.95,3.04-14.56,7.6-14.77C433.25,423.98,437.24,430.26,437.61,438.21z"/><path fill="#fff" d="M505.25,467.97c0.36,7.95-3.04,14.56-7.6,14.77c-4.56,0.21-8.55-6.07-8.92-14.01       c-0.36-7.95,3.04-14.56,7.6-14.77C500.9,453.75,504.89,460.03,505.25,467.97z"/><path fill="#fff" d="M501.53,386.55c0.36,7.95-3.04,14.56-7.6,14.77c-4.56,0.21-8.55-6.07-8.92-14.01       c-0.36-7.95,3.04-14.56,7.6-14.77C497.18,372.33,501.17,378.61,501.53,386.55z"/><path fill="#fff" d="M463.31,412.41c0.36,7.95-3.04,14.56-7.6,14.77c-4.56,0.21-8.55-6.07-8.92-14.01       c-0.36-7.95,3.04-14.56,7.6-14.77C458.96,398.19,462.95,404.47,463.31,412.41z"/><g><path fill="#fff" d="M545.7,387.6c0,9.7-4.57,17.56-10.2,17.56c-5.63,0-10.2-7.86-10.2-17.56c0-9.7,4.57-17.56,10.2-17.56       C541.13,370.04,545.7,377.9,545.7,387.6z"/><path fill="#fff" d="M583.37,400.1c0,9.7-4.57,17.56-10.2,17.56c-5.63,0-10.2-7.86-10.2-17.56s4.57-17.56,10.2-17.56       C578.8,382.54,583.37,390.4,583.37,400.1z"/><path fill="#fff" d="M615.71,414.25c0,9.7-4.57,17.56-10.2,17.56c-5.63,0-10.2-7.86-10.2-17.56c0-9.7,4.57-17.56,10.2-17.56       C611.14,396.69,615.71,404.55,615.71,414.25z"/></g><ellipse cx="505.91" cy="311.24" fill="#fff" rx="23.06" ry="11.76"/><g><path fill="none" stroke="#ffc8b1" stroke-linecap="round" stroke-miterlimit="10" d="M410.22,326.11c0,0,90.47,41.59,100.93,42.19c10.47,0.61,97.28-57.07,97.28-57.07"/><path fill="none" stroke="#ffc8b1" stroke-linecap="round" stroke-miterlimit="10" d="M511.15,368.3c-0.46,23.98,8.95,117.77,8.95,117.77"/></g><g><path fill="#e4d8a4" d="M424.66,341.55c1.33,12.35-50.26,97.76-60.39,103.84c-9.6,5.77-89.75,10.87-107.41,8.53      c-0.99-0.14-1.78-0.28-2.34-0.46c-5.27-1.6-22.4-24.79-38.63-50.13c-17.54-27.45-34.06-57.42-33.38-65.4      c1.29-15.36,53.04-92.1,73.55-99.43c3.73-1.34,11.54-2.71,21.43-3.94c12.91-1.63,29.39-3.03,44.98-3.75      c24.1-1.15,46.07-0.74,49.36,2.75C378.86,240.99,423.35,329.19,424.66,341.55z"/><path fill="#fff" d="M221.56,363.68c3.7,7.04,3.43,14.47-0.62,16.6c-4.04,2.12-10.32-1.86-14.02-8.9       c-3.7-7.04-3.43-14.47,0.62-16.6C211.58,352.65,217.86,356.64,221.56,363.68z"/><path fill="#fff" d="M264.6,429.96c3.7,7.04,3.43,14.47-0.62,16.6c-4.04,2.12-10.32-1.86-14.02-8.9s-3.43-14.47,0.62-16.6       C254.62,418.93,260.89,422.92,264.6,429.96z"/><path fill="#fff" d="M338.48,428.21c3.7,7.04,3.43,14.47-0.62,16.6c-4.04,2.12-10.32-1.86-14.02-8.9       c-3.7-7.04-3.43-14.47,0.62-16.6S334.78,421.16,338.48,428.21z"/><path fill="#fff" d="M300.56,356.06c3.7,7.04,3.43,14.47-0.62,16.6c-4.04,2.12-10.32-1.86-14.02-8.9       c-3.7-7.04-3.43-14.47,0.62-16.6C290.58,345.03,296.86,349.02,300.56,356.06z"/><path fill="#fff" d="M384.27,331.78c5.84,12.46,4.7,25.31-2.53,28.7c-7.24,3.39-17.84-3.96-23.67-16.41       c-5.84-12.46-4.7-25.31,2.53-28.7C367.84,311.98,378.44,319.33,384.27,331.78z"/><path fill="#fff" d="M333.65,253.98c2.21,4.71-3.49,12.04-12.73,16.37c-9.24,4.33-18.52,4.02-20.73-0.69      c-2.21-4.71,3.49-12.04,12.73-16.37C322.16,248.96,331.44,249.27,333.65,253.98z"/><path fill="#fff" d="M251.6,292.44c2.21,4.71-3.49,12.04-12.73,16.37c-9.24,4.33-18.52,4.02-20.73-0.69s3.49-12.04,12.73-16.37      C240.11,287.42,249.39,287.72,251.6,292.44z"/><g><path fill="none" stroke="#ffc8b1" stroke-linecap="round" stroke-miterlimit="10" d="M192.22,340.08c0,0,99.56-0.74,109.3-4.63c9.74-3.89,63.87-92.96,63.87-92.96"/><path fill="none" stroke="#ffc8b1" stroke-linecap="round" stroke-miterlimit="10" d="M301.52,335.45c9.76,21.91,58.08,102.85,58.08,102.85"/></g></g></svg>