<svg xmlns="http://www.w3.org/2000/svg" xmlns:xlink="http://www.w3.org/1999/xlink" enable-background="new 0 0 850 850" viewBox="0 0 850 850"><linearGradient id="a" x1="-598.609" x2="-8.898" y1="-226.028" y2="356.312" gradientUnits="userSpaceOnUse"><stop offset="0" stop-color="#e8b87a"/><stop offset="1" stop-color="#de9a40"/></linearGradient><path fill="url(#a)" d="M204.81,554.04c0,0.41-2.66,0.78-6.63,0.97c-0.88,0.04-1.82,0.08-2.81,0.11        c-1.28,0.03-2.63,0.05-4.04,0.05c-2.58,0-4.99-0.06-7.04-0.16c-1.04-0.06-1.98-0.12-2.81-0.19c-2.26-0.2-3.63-0.48-3.63-0.78        c0-0.3,1.38-0.57,3.63-0.78c0.83-0.07,1.77-0.13,2.81-0.19c2.05-0.1,4.46-0.16,7.04-0.16c1.4,0,2.76,0.02,4.04,0.05        c1,0.03,1.94,0.06,2.81,0.11C202.16,553.27,204.81,553.63,204.81,554.04z"/><linearGradient id="b" x1="-597.582" x2="-7.871" y1="-227.068" y2="355.272" gradientUnits="userSpaceOnUse"><stop offset="0" stop-color="#e8b87a"/><stop offset="1" stop-color="#de9a40"/></linearGradient><rect width="26.96" height="4.11" x="177.85" y="549.93" fill="url(#b)"/><linearGradient id="c" x1="-601.959" x2="-12.248" y1="-222.636" y2="359.704" gradientUnits="userSpaceOnUse"><stop offset="0" stop-color="#fffefe"/><stop offset="1" stop-color="#fffaf7"/></linearGradient><path fill="url(#c)" d="M184.3,549.99v5.02c-1.04-0.06-1.98-0.12-2.81-0.19v-4.82H184.3z"/><linearGradient id="d" x1="-595.179" x2="-5.468" y1="-229.502" y2="352.838" gradientUnits="userSpaceOnUse"><stop offset="0" stop-color="#fffefe"/><stop offset="1" stop-color="#fffaf7"/></linearGradient><path fill="url(#d)" d="M198.19,549.99v5.02c-0.88,0.04-1.82,0.08-2.81,0.11v-5.13H198.19z"/><linearGradient id="e" x1="-596.555" x2="-6.844" y1="-228.108" y2="354.232" gradientUnits="userSpaceOnUse"><stop offset="0" stop-color="#e8b87a"/><stop offset="1" stop-color="#de9a40"/></linearGradient><ellipse cx="191.34" cy="549.93" fill="url(#e)" rx="13.48" ry="1.13"/><radialGradient id="f" cx="-920.19" cy="99.623" r="828.782" gradientUnits="userSpaceOnUse"><stop offset="0" stop-color="#e3a95d"/><stop offset=".994" stop-color="#de973c"/></radialGradient><ellipse cx="191.34" cy="549.93" fill="url(#f)" rx="11.08" ry=".64"/><g><linearGradient id="g" x1="-596.138" x2="-6.426" y1="-228.531" y2="353.809" gradientUnits="userSpaceOnUse"><stop offset="0" stop-color="#e8b87a"/><stop offset="1" stop-color="#de9a40"/></linearGradient><path fill="url(#g)" d="M205.39,549.66c0,0.32-1.63,0.62-4.24,0.82c-0.84,0.07-1.78,0.12-2.81,0.17        c-1.91,0.09-4.1,0.13-6.43,0.13c-1.64,0-3.2-0.02-4.65-0.07c-1-0.03-1.94-0.07-2.81-0.11c-3.63-0.21-6.02-0.55-6.02-0.95        c0-0.39,2.39-0.74,6.02-0.95c0.87-0.04,1.81-0.09,2.81-0.11c1.45-0.05,3.01-0.07,4.65-0.07c2.33,0,4.52,0.05,6.43,0.13        c1.03,0.05,1.97,0.1,2.81,0.17C203.76,549.04,205.39,549.34,205.39,549.66z"/><linearGradient id="h" x1="-595.111" x2="-5.4" y1="-229.571" y2="352.769" gradientUnits="userSpaceOnUse"><stop offset="0" stop-color="#e8b87a"/><stop offset="1" stop-color="#de9a40"/></linearGradient><rect width="26.96" height="4.11" x="178.42" y="545.55" fill="url(#h)"/><linearGradient id="i" x1="-598.335" x2="-8.623" y1="-226.306" y2="356.034" gradientUnits="userSpaceOnUse"><stop offset="0" stop-color="#fffefe"/><stop offset="1" stop-color="#fffaf7"/></linearGradient><path fill="url(#i)" d="M187.26,545.55v5.17c-1-0.03-1.94-0.07-2.81-0.11v-5.06H187.26z"/><linearGradient id="j" x1="-591.488" x2="-1.777" y1="-233.239" y2="349.101" gradientUnits="userSpaceOnUse"><stop offset="0" stop-color="#fffefe"/><stop offset="1" stop-color="#fffaf7"/></linearGradient><path fill="url(#j)" d="M201.15,545.55v4.94c-0.84,0.07-1.78,0.12-2.81,0.17v-5.11H201.15z"/><linearGradient id="k" x1="-594.084" x2="-4.372" y1="-230.611" y2="351.729" gradientUnits="userSpaceOnUse"><stop offset="0" stop-color="#e8b87a"/><stop offset="1" stop-color="#de9a40"/></linearGradient><ellipse cx="191.91" cy="545.55" fill="url(#k)" rx="13.48" ry="1.13"/><radialGradient id="l" cx="-920.19" cy="99.623" r="828.782" gradientUnits="userSpaceOnUse"><stop offset="0" stop-color="#e3a95d"/><stop offset=".994" stop-color="#de973c"/></radialGradient><path fill="url(#l)" d="M202.99,545.55c0,0.36-4.96,0.64-11.08,0.64c-6.12,0-11.08-0.29-11.08-0.64c0-0.36,4.96-0.64,11.08-0.64        C198.03,544.91,202.99,545.2,202.99,545.55z"/></g><g><linearGradient id="m" x1="-594.458" x2="-4.747" y1="-230.232" y2="352.108" gradientUnits="userSpaceOnUse"><stop offset="0" stop-color="#e8b87a"/><stop offset="1" stop-color="#de9a40"/></linearGradient><path fill="url(#m)" d="M204.07,545c0,0.41-2.66,0.78-6.63,0.97c-0.88,0.04-1.82,0.08-2.81,0.11c-1.28,0.03-2.63,0.05-4.04,0.05        c-2.58,0-4.99-0.06-7.04-0.16c-1.04-0.06-1.98-0.12-2.81-0.19c-2.26-0.2-3.63-0.48-3.63-0.78s1.38-0.57,3.63-0.78        c0.83-0.07,1.77-0.13,2.81-0.19c2.05-0.1,4.46-0.16,7.04-0.16c1.4,0,2.76,0.02,4.04,0.05c1,0.03,1.94,0.06,2.81,0.11        C201.41,544.23,204.07,544.59,204.07,545z"/><linearGradient id="n" x1="-593.432" x2="-3.721" y1="-231.271" y2="351.069" gradientUnits="userSpaceOnUse"><stop offset="0" stop-color="#e8b87a"/><stop offset="1" stop-color="#de9a40"/></linearGradient><rect width="26.96" height="4.11" x="177.11" y="540.89" fill="url(#n)"/><linearGradient id="o" x1="-597.808" x2="-8.097" y1="-226.839" y2="355.501" gradientUnits="userSpaceOnUse"><stop offset="0" stop-color="#fffefe"/><stop offset="1" stop-color="#fffaf7"/></linearGradient><path fill="url(#o)" d="M183.55,540.95v5.02c-1.04-0.06-1.98-0.12-2.81-0.19v-4.82H183.55z"/><linearGradient id="p" x1="-591.028" x2="-1.317" y1="-233.705" y2="348.635" gradientUnits="userSpaceOnUse"><stop offset="0" stop-color="#fffefe"/><stop offset="1" stop-color="#fffaf7"/></linearGradient><path fill="url(#p)" d="M197.44,540.95v5.02c-0.88,0.04-1.82,0.08-2.81,0.11v-5.13H197.44z"/><linearGradient id="q" x1="-592.404" x2="-2.693" y1="-232.311" y2="350.028" gradientUnits="userSpaceOnUse"><stop offset="0" stop-color="#e8b87a"/><stop offset="1" stop-color="#de9a40"/></linearGradient><ellipse cx="190.59" cy="540.89" fill="url(#q)" rx="13.48" ry="1.13"/><radialGradient id="r" cx="-920.19" cy="99.623" r="828.782" gradientUnits="userSpaceOnUse"><stop offset="0" stop-color="#e3a95d"/><stop offset=".994" stop-color="#de973c"/></radialGradient><ellipse cx="190.59" cy="540.89" fill="url(#r)" rx="11.08" ry=".64"/></g><g><linearGradient id="s" x1="-591.714" x2="-2.002" y1="-233.011" y2="349.329" gradientUnits="userSpaceOnUse"><stop offset="0" stop-color="#e8b87a"/><stop offset="1" stop-color="#de9a40"/></linearGradient><path fill="url(#s)" d="M204.82,540.25c0,0.32-1.63,0.62-4.24,0.82c-0.84,0.07-1.78,0.12-2.81,0.17        c-1.91,0.09-4.1,0.13-6.43,0.13c-1.64,0-3.2-0.02-4.65-0.07c-1-0.03-1.94-0.07-2.81-0.11c-3.63-0.21-6.02-0.55-6.02-0.95        c0-0.39,2.39-0.74,6.02-0.95c0.87-0.04,1.81-0.09,2.81-0.11c1.45-0.05,3.01-0.07,4.65-0.07c2.33,0,4.52,0.05,6.43,0.13        c1.03,0.05,1.97,0.1,2.81,0.17C203.19,539.63,204.82,539.93,204.82,540.25z"/><linearGradient id="t" x1="-590.687" x2="-.976" y1="-234.051" y2="348.289" gradientUnits="userSpaceOnUse"><stop offset="0" stop-color="#e8b87a"/><stop offset="1" stop-color="#de9a40"/></linearGradient><rect width="26.96" height="4.11" x="177.85" y="536.14" fill="url(#t)"/><linearGradient id="u" x1="-593.91" x2="-4.199" y1="-230.786" y2="351.553" gradientUnits="userSpaceOnUse"><stop offset="0" stop-color="#fffefe"/><stop offset="1" stop-color="#fffaf7"/></linearGradient><path fill="url(#u)" d="M186.69,536.14v5.17c-1-0.03-1.94-0.07-2.81-0.11v-5.06H186.69z"/><linearGradient id="v" x1="-587.064" x2="2.647" y1="-237.719" y2="344.62" gradientUnits="userSpaceOnUse"><stop offset="0" stop-color="#fffefe"/><stop offset="1" stop-color="#fffaf7"/></linearGradient><path fill="url(#v)" d="M200.58,536.14v4.94c-0.84,0.07-1.78,0.12-2.81,0.17v-5.11H200.58z"/><linearGradient id="w" x1="-589.659" x2=".052" y1="-235.091" y2="347.249" gradientUnits="userSpaceOnUse"><stop offset="0" stop-color="#e8b87a"/><stop offset="1" stop-color="#de9a40"/></linearGradient><ellipse cx="191.34" cy="536.14" fill="url(#w)" rx="13.48" ry="1.13"/><radialGradient id="x" cx="-920.19" cy="99.623" r="828.782" gradientUnits="userSpaceOnUse"><stop offset="0" stop-color="#e3a95d"/><stop offset=".994" stop-color="#de973c"/></radialGradient><path fill="url(#x)" d="M202.42,536.14c0,0.36-4.96,0.64-11.08,0.64c-6.12,0-11.08-0.29-11.08-0.64        c0-0.36,4.96-0.64,11.08-0.64C197.46,535.5,202.42,535.79,202.42,536.14z"/></g><g><path fill="none" d="M666.92,372.66l3.44,9.56c2.22,6.17,3.29,12.86,3,19.9c-1.34,32.55-31.36,59.95-67.03,61.19       c-27.97,0.98-51.12-14.41-59.16-36.79l-3.44-9.56c8.05,22.38,31.19,37.76,59.16,36.79c35.67-1.25,65.68-28.65,67.03-61.19       C670.2,385.52,669.13,378.82,666.92,372.66z"/><path fill="#dfd5af" d="M623.95,460.5c-0.94,0.27-1.88,0.52-2.84,0.75c-1.26,0.31-2.52,0.58-3.8,0.82       c-3.59,0.69-7.26,1.11-10.99,1.24c-5.4,0.19-10.62-0.23-15.58-1.2c-9.92-1.93-18.84-6.03-26.14-11.74       c-7.07-5.54-12.64-12.59-16.17-20.69c-0.46-1.04-0.88-2.1-1.27-3.16l-3.44-9.56c1.34,3.74,3.11,7.28,5.26,10.59       c4.35,6.74,10.27,12.48,17.33,16.85l0.02,0.02c6.65,4.12,14.31,7.03,22.66,8.43c4.46,0.75,9.1,1.07,13.9,0.9       c4.26-0.15,8.44-0.67,12.49-1.54h0.03c0.61-0.13,1.22-0.26,1.82-0.41c1.11-0.26,2.19-0.54,3.28-0.86       c3.66-1.06,7.2-2.39,10.58-3.96c2.92-1.35,5.72-2.9,8.39-4.6c2.57-1.64,5.03-3.43,7.34-5.36c2.39-1.99,4.65-4.13,6.73-6.4       c1.78-1.94,3.44-3.96,4.96-6.08c0.52-0.71,1.02-1.43,1.5-2.16c2.9-4.37,5.23-9.06,6.91-13.98c0.59-1.75,1.11-3.52,1.53-5.32       v-0.01c0.81-3.43,1.31-6.95,1.45-10.53c0.05-1.18,0.06-2.34,0.04-3.5c-0.08-3.4-0.47-6.7-1.18-9.89v-0.01       c-0.35-1.61-0.77-3.18-1.27-4.73c-0.19-0.58-0.39-1.18-0.59-1.76l2.36,6.56l1.08,3c0.21,0.58,0.41,1.18,0.59,1.77       c1.48,4.63,2.32,9.53,2.44,14.63c0.02,1.16,0.01,2.32-0.04,3.5c-0.06,1.61-0.2,3.21-0.42,4.79c-0.47,3.79-1.35,7.48-2.57,11.06       c-1.68,4.92-4.01,9.61-6.91,13.98c-1.92,2.9-4.08,5.65-6.46,8.24c-2.09,2.26-4.34,4.41-6.73,6.41       c-1.52,1.26-3.1,2.46-4.74,3.61c-0.85,0.59-1.72,1.18-2.6,1.74"/><path fill="#f9f4eb" d="M566.33,444.42l-1.73,5.95c-7.07-5.54-12.64-12.59-16.17-20.69l0.55-2.14l17.33,16.85L566.33,444.42z"/><path fill="#f9f4eb" d="M673.35,402.11c-0.06,1.61-0.2,3.21-0.42,4.79l-4.48-3.82v-0.01l-2-10.84l2.31-13.08v-0.01l0.5,0.07       l1.08,3c0.21,0.58,0.41,1.18,0.59,1.77c1.48,4.63,2.32,9.53,2.44,14.63C673.41,399.77,673.4,400.94,673.35,402.11z"/><path fill="#f9f4eb" d="M663.46,431.94c-1.92,2.9-4.08,5.65-6.46,8.24c-2.09,2.26-4.34,4.41-6.73,6.41       c-1.52,1.26-3.1,2.46-4.74,3.61l-6.04-7.82l3.59-5.45l15.45-12.39L663.46,431.94z"/><path fill="#f9f4eb" d="M617.31,462.07c-3.59,0.69-7.26,1.11-10.99,1.24c-5.4,0.19-10.62-0.23-15.58-1.2l-1.76-9.26l26.39-0.64       h0.03L617.31,462.07z"/><linearGradient id="Q" x1="-314.612" x2="275.1" y1="-513.621" y2="68.719" gradientUnits="userSpaceOnUse"><stop offset="0" stop-color="#ebe4cb"/><stop offset="1" stop-color="#e5dbbc"/></linearGradient><path fill="url(#Q)" d="M669.91,392.55c-1.33,32.55-31.35,59.95-67.03,61.2c-17.17,0.6-32.52-4.97-43.68-14.54        c-12.02-10.31-19.18-25.26-18.47-42.15c0.99-23.95,17.5-45.11,40.37-55.12c8.2-3.59,17.23-5.74,26.66-6.07        C643.42,334.63,671.25,360,669.91,392.55z"/><linearGradient id="R" x1="-314.219" x2="275.493" y1="-514.019" y2="68.321" gradientUnits="userSpaceOnUse"><stop offset="0" stop-color="#efead5" stop-opacity="0"/><stop offset="1" stop-color="#e4daba" stop-opacity=".979"/></linearGradient><path fill="url(#R)" d="M606.58,346.44c-28.54,1-52.63,22.85-53.69,48.72c-1.07,25.87,21.28,46.1,49.82,45.1        c28.55-1,52.63-22.85,53.69-48.72C657.47,365.69,635.12,345.44,606.58,346.44z M639.46,392.14        c-0.72,17.4-16.92,32.1-36.12,32.77c-19.19,0.66-34.22-12.94-33.5-30.34c0.71-17.4,16.91-32.1,36.11-32.77        C625.14,361.13,640.17,374.74,639.46,392.14z"/><defs><ellipse id="S" cx="605.32" cy="394.81" enable-background="new" rx="65.44" ry="58.09" transform="rotate(-19.785 605.234 394.768)"/></defs><clipPath id="T"><use overflow="visible" xlink:href="#S"/></clipPath><g clip-path="url(#T)"><path fill="#fdfaf6" d="M607.94,428.2c-1.57,0.23-3.17,0.37-4.76,0.42c-1.56,0.05-3.13,0.03-4.65-0.09l-0.31,1.8          c1.61,0.12,3.26,0.15,4.89,0.09c1.67-0.06,3.35-0.21,4.99-0.44L607.94,428.2 M581.3,423.16l-1.19,1.52          c2.66,1.61,5.55,2.91,8.59,3.86l0.77-1.71C586.57,425.92,583.82,424.69,581.3,423.16 M625.65,421.57          c-2.65,1.71-5.51,3.15-8.48,4.26l0.63,1.66c3.12-1.17,6.13-2.67,8.92-4.48L625.65,421.57 M569.4,410.93l-1.79,0.9          c1.43,2.59,3.22,5,5.33,7.17l1.54-1.25C572.47,415.69,570.77,413.4,569.4,410.93 M638.56,408.46          c-1.57,2.57-3.46,4.99-5.64,7.2l1.44,1.15c2.29-2.33,4.28-4.87,5.93-7.58L638.56,408.46 M565.59,394.65l-1.99,0.08          c-0.12,3.01,0.16,5.99,0.83,8.85l1.95-0.5C565.75,400.35,565.48,397.52,565.59,394.65 M645.69,391.66l-1.99,0.07l-0.01,0.13          c-0.12,2.86-0.62,5.72-1.48,8.51l1.91,0.36c0.91-2.92,1.43-5.93,1.55-8.95L645.69,391.66 M568.97,377.27          c-1.64,2.71-2.94,5.58-3.83,8.51l1.91,0.36c0.86-2.79,2.09-5.52,3.65-8.1L568.97,377.27 M641.65,374.56l-1.79,0.9          c1.38,2.47,2.39,5.11,3.04,7.85l1.95-0.5C644.17,379.93,643.09,377.16,641.65,374.56 M582.52,363.48          c-2.78,1.8-5.35,3.89-7.63,6.21l1.44,1.14c2.17-2.21,4.62-4.2,7.26-5.91L582.52,363.48 M629.13,361.74l-1.19,1.52          c2.53,1.52,4.83,3.33,6.83,5.39l1.53-1.25C634.2,365.24,631.78,363.34,629.13,361.74 M601.11,356.49          c-3.3,0.48-6.56,1.32-9.69,2.5l0.64,1.66c2.98-1.12,6.07-1.92,9.22-2.38L601.11,356.49 M611,356.12l-0.3,1.8          c3.11,0.22,6.17,0.79,9.07,1.69l0.77-1.71C617.48,356.95,614.28,356.35,611,356.12"/><path fill="#fdfaf6" d="M615.84,441.84c-4.27,1.09-8.72,1.74-13.27,1.9c-4.56,0.16-8.97-0.18-13.17-0.98l-0.84,20.38          l26.44-0.92L615.84,441.84"/><path fill="#fdfaf6" d="M620.72,323.56l-26.44,0.92l-0.84,20.38c4.28-1.09,8.72-1.74,13.28-1.9          c4.56-0.16,8.96,0.18,13.15,0.98L620.72,323.56"/><path fill="#fdfaf6" d="M681.64,378.7l-22.49,0.79c0.88,3.81,1.26,7.8,1.09,11.93c-0.17,4.13-0.88,8.16-2.08,12.04          l22.49-0.79L681.64,378.7"/><path fill="#fdfaf6" d="M551.12,383.25l-22.49,0.79l-0.99,23.97l22.49-0.79c-0.88-3.8-1.26-7.79-1.09-11.92          C549.21,391.17,549.92,387.14,551.12,383.25"/><path fill="#fdfaf6" d="M651.76,334.29l-16.5,14.97c7.46,3.93,13.64,9.53,18,16.28l16.49-14.96L651.76,334.29"/><path fill="#fdfaf6" d="M556.03,421.15l-16.5,14.98l18,16.29l16.5-14.98C566.56,433.51,560.37,427.91,556.03,421.15"/><path fill="#fdfaf6" d="M651.1,417.83c-4.93,7.08-11.59,13.13-19.39,17.6l15.31,13.86l19.39-17.6L651.1,417.83"/><path fill="#fdfaf6" d="M562.27,337.42l-19.39,17.6l15.3,13.85c4.93-7.08,11.59-13.12,19.4-17.59L562.27,337.42"/><path fill="#fdfaf6" d="M602.86,436.44c-26.21,0.92-46.73-17.66-45.75-41.42c0.98-23.75,23.1-43.83,49.31-44.74          c26.21-0.92,46.74,17.67,45.76,41.42C651.19,415.45,629.07,435.52,602.86,436.44 M606.44,349.61          c-26.61,0.93-49.08,21.31-50.07,45.43c-1,24.12,19.85,42.99,46.46,42.06c26.61-0.93,49.08-21.31,50.07-45.43          C653.9,367.55,633.06,348.68,606.44,349.61"/></g><g><linearGradient id="U" x1="-2481.823" x2="-1892.112" y1="1338.035" y2="1920.375" gradientTransform="rotate(-29.355 -4258.052 -2140.749)" gradientUnits="userSpaceOnUse"><stop offset="0" stop-color="#fffefe"/><stop offset="1" stop-color="#fdfaf6"/></linearGradient><path fill="url(#U)" d="M261.63,387.68l-24.16,0.34l-5.56,0.08c-2.4,0.03-4.77-1.11-6.43-3.29c-0.28-0.38-0.55-0.78-0.8-1.21     l-17.47-31.19l-4.92-8.78c-2.57-4.59-1.48-10.74,2.43-13.72l29.72-0.42c-3.91,2.99-5,9.14-2.43,13.72l12.95,23.11l9.44,16.86     C256.05,386.13,258.82,387.72,261.63,387.68z"/><defs><path id="V" d="M261.63,387.68l-24.16,0.34l-5.56,0.08c-2.4,0.03-4.77-1.11-6.43-3.29c-0.28-0.38-0.55-0.78-0.8-1.21       l-17.47-31.19l-4.92-8.78c-2.57-4.59-1.48-10.74,2.43-13.72l29.72-0.42c-3.91,2.99-5,9.14-2.43,13.72l12.95,23.11l9.44,16.86       C256.05,386.13,258.82,387.72,261.63,387.68z"/></defs><radialGradient id="W" cx="-1307.189" cy="148.532" r="828.782" gradientTransform="rotate(-29.355 -4258.052 -2140.749)" gradientUnits="userSpaceOnUse"><stop offset="0" stop-color="#fff"/><stop offset="1" stop-color="#fdfaf6"/></radialGradient><path fill="url(#W)" d="M243.31,302.28c-1.55,0.02-3.11,0.54-4.51,1.6l-34.08,26.01l25.96,6.61l37.83-33.04      c1.39-1.06,2.95-1.58,4.51-1.6L243.31,302.28z"/><defs><polygon id="X" points="234.44 329.48 204.72 329.9 238.8 303.89 268.52 303.47" enable-background="new"/></defs><clipPath id="Y"><use overflow="visible" xlink:href="#X"/></clipPath><g clip-path="url(#Y)"><linearGradient id="Z" x1="-2461.517" x2="-1871.806" y1="1317.472" y2="1899.812" gradientTransform="rotate(-29.355 -4258.052 -2140.749)" gradientUnits="userSpaceOnUse"><stop offset="0" stop-color="#ffddce"/><stop offset="1" stop-color="#ffdbcc"/></linearGradient><path fill="url(#Z)" d="M215.21,325.03c-2.57,1.96-3.14,3.53-1.27,3.5c1.87-0.03,5.45-1.63,8.02-3.59        c2.57-1.96,3.13-3.52,1.27-3.5C221.36,321.47,217.77,323.07,215.21,325.03"/><linearGradient id="aa" x1="-2446.291" x2="-1856.58" y1="1302.053" y2="1884.393" gradientTransform="rotate(-29.355 -4258.052 -2140.749)" gradientUnits="userSpaceOnUse"><stop offset="0" stop-color="#ffddce"/><stop offset="1" stop-color="#ffdbcc"/></linearGradient><path fill="url(#aa)" d="M236.88,308.49c-2.57,1.96-3.13,3.52-1.27,3.5c1.87-0.03,5.45-1.63,8.02-3.59        c2.57-1.96,3.14-3.53,1.27-3.5C243.04,304.92,239.45,306.53,236.88,308.49"/><linearGradient id="ab" x1="-2458.427" x2="-1868.716" y1="1314.343" y2="1896.682" gradientTransform="rotate(-29.355 -4258.052 -2140.749)" gradientUnits="userSpaceOnUse"><stop offset="0" stop-color="#ffddce"/><stop offset="1" stop-color="#ffdbcc"/></linearGradient><path fill="url(#ab)" d="M231.07,324.81c-2.57,1.96-3.14,3.53-1.27,3.5c1.87-0.03,5.45-1.63,8.02-3.59        c2.57-1.96,3.13-3.52,1.27-3.5C237.23,321.24,233.64,322.85,231.07,324.81"/><linearGradient id="ac" x1="-2443.2" x2="-1853.489" y1="1298.924" y2="1881.263" gradientTransform="rotate(-29.355 -4258.052 -2140.749)" gradientUnits="userSpaceOnUse"><stop offset="0" stop-color="#ffddce"/><stop offset="1" stop-color="#ffdbcc"/></linearGradient><path fill="url(#ac)" d="M252.74,308.27c-2.57,1.96-3.13,3.52-1.27,3.5c1.87-0.03,5.45-1.63,8.02-3.59        c2.57-1.96,3.14-3.53,1.27-3.5C258.9,304.7,255.31,306.31,252.74,308.27"/></g><g><linearGradient id="ad" x1="-2494.737" x2="-1905.026" y1="1351.113" y2="1933.453" gradientTransform="rotate(-29.355 -4258.052 -2140.749)" gradientUnits="userSpaceOnUse"><stop offset="0" stop-color="#ffddce"/><stop offset="1" stop-color="#ffdbcc"/></linearGradient><path fill="url(#ad)" d="M224.36,376.4c1.73,3.08,4.57,5.6,6.37,5.64c1.79,0.04,1.85-2.43,0.12-5.51      c-1.72-3.08-4.57-5.6-6.37-5.64C222.7,370.86,222.64,373.32,224.36,376.4"/><linearGradient id="ae" x1="-2479.817" x2="-1890.106" y1="1336.004" y2="1918.343" gradientTransform="rotate(-29.355 -4258.052 -2140.749)" gradientUnits="userSpaceOnUse"><stop offset="0" stop-color="#ffddce"/><stop offset="1" stop-color="#ffdbcc"/></linearGradient><path fill="url(#ae)" d="M209.81,350.41c1.72,3.08,4.57,5.6,6.36,5.64c1.79,0.04,1.85-2.43,0.13-5.5      c-1.73-3.08-4.57-5.6-6.37-5.64C208.14,344.86,208.08,347.33,209.81,350.41"/><linearGradient id="af" x1="-2492.124" x2="-1902.412" y1="1348.466" y2="1930.806" gradientTransform="rotate(-29.355 -4258.052 -2140.749)" gradientUnits="userSpaceOnUse"><stop offset="0" stop-color="#ffddce"/><stop offset="1" stop-color="#ffdbcc"/></linearGradient><path fill="url(#af)" d="M239.62,376.71c1.73,3.08,4.57,5.6,6.37,5.64c1.79,0.04,1.85-2.43,0.12-5.51      c-1.72-3.08-4.57-5.6-6.37-5.64C237.95,371.17,237.9,373.63,239.62,376.71"/><linearGradient id="ag" x1="-2477.203" x2="-1887.492" y1="1333.357" y2="1915.697" gradientTransform="rotate(-29.355 -4258.052 -2140.749)" gradientUnits="userSpaceOnUse"><stop offset="0" stop-color="#ffddce"/><stop offset="1" stop-color="#ffdbcc"/></linearGradient><path fill="url(#ag)" d="M225.06,350.72c1.72,3.08,4.57,5.6,6.36,5.64c1.79,0.04,1.85-2.43,0.13-5.5      c-1.73-3.08-4.57-5.6-6.37-5.64C223.39,345.18,223.34,347.64,225.06,350.72"/><linearGradient id="ah" x1="-2485.97" x2="-1896.259" y1="1342.235" y2="1924.574" gradientTransform="rotate(-29.355 -4258.052 -2140.749)" gradientUnits="userSpaceOnUse"><stop offset="0" stop-color="#ffddce"/><stop offset="1" stop-color="#ffdbcc"/></linearGradient><path fill="url(#ah)" d="M224.71,363.56c1.72,3.08,4.58,5.6,6.37,5.64c1.79,0.04,1.85-2.43,0.12-5.51      c-1.72-3.08-4.58-5.6-6.37-5.64C223.04,358.01,222.99,360.48,224.71,363.56"/></g><g><defs><path id="ai" d="M243.31,302.28c-1.55,0.02-3.11,0.54-4.51,1.6l-34.08,26.01l25.96,6.61l37.83-33.04       c1.39-1.06,2.95-1.58,4.51-1.6L243.31,302.28z"/></defs></g><g><defs><path id="aj" d="M280.26,306.37l22.39,39.97c2.57,4.59,1.48,10.74-2.43,13.72l-20.62,15.74l-13.46,10.27        c-3.91,2.99-9.17,1.69-11.74-2.91l-22.46-39.92c-2.57-4.59-4.22-9.21-0.3-12.19l17.96-13.93l17.53-13.6        C271.03,300.54,277.69,301.78,280.26,306.37z"/></defs><defs><path id="ak" d="M280.26,306.37l22.39,39.97c2.57,4.59,1.48,10.74-2.43,13.72l-20.62,15.74l-13.46,10.27        c-3.91,2.99-10.42,1.94-13-2.65l-21.21-40.18c-2.57-4.59-1.4-10.79,2.52-13.77l13.7-10.46l20.37-15.55        C272.43,300.48,277.69,301.78,280.26,306.37z"/></defs><defs><path id="al" d="M267.33,304.04c3.91-2.99,10.36-2.26,12.93,2.33l22.38,39.97        c2.57,4.59,1.48,10.74-2.43,13.72l-34.08,26.01c-3.91,2.99-22.32,1.97-24.89-2.62l-27.86-30.44        c-2.57-4.59,2.61-21.54,6.52-24.52L267.33,304.04z" enable-background="new"/></defs><clipPath id="am"><use overflow="visible" xlink:href="#al"/></clipPath><g clip-path="url(#am)"><linearGradient id="an" x1="-2480.196" x2="-1890.485" y1="1336.388" y2="1918.727" gradientTransform="rotate(-29.355 -4258.052 -2140.749)" gradientUnits="userSpaceOnUse"><stop offset="0" stop-color="#e3a95d"/><stop offset=".994" stop-color="#de973c"/></linearGradient><path fill="url(#an)" d="M265.51,360.74c-2.57,1.96-3.29,6-1.6,9.02c1.69,3.02,5.15,3.87,7.72,1.91c2.57-1.96,3.29-6,1.6-9.02        C271.54,359.63,268.08,358.77,265.51,360.74"/><linearGradient id="ao" x1="-2465.483" x2="-1875.772" y1="1321.488" y2="1903.828" gradientTransform="rotate(-29.355 -4258.052 -2140.749)" gradientUnits="userSpaceOnUse"><stop offset="0" stop-color="#e3a95d"/><stop offset=".994" stop-color="#de973c"/></linearGradient><path fill="url(#ao)" d="M266.86,339.4c-2.57,1.96-3.29,6-1.6,9.02c1.69,3.02,5.15,3.87,7.72,1.91c2.57-1.96,3.29-6,1.6-9.02        C272.89,338.29,269.43,337.44,266.86,339.4"/><linearGradient id="ap" x1="-2450.77" x2="-1861.058" y1="1306.589" y2="1888.928" gradientTransform="rotate(-29.355 -4258.052 -2140.749)" gradientUnits="userSpaceOnUse"><stop offset="0" stop-color="#e3a95d"/><stop offset=".994" stop-color="#de973c"/></linearGradient><path fill="url(#ap)" d="M268.21,318.06c-2.57,1.96-3.29,6-1.6,9.02c1.69,3.02,5.15,3.87,7.72,1.91c2.57-1.96,3.29-6,1.6-9.02        C274.24,316.95,270.79,316.1,268.21,318.06"/></g></g></g></g><g><linearGradient id="aq" x1="-3428.296" x2="-2838.584" y1="1333.325" y2="1915.665" gradientTransform="rotate(-38.753 -3339.25 -3996.404)" gradientUnits="userSpaceOnUse"><stop offset="0" stop-color="#e8b87a"/><stop offset="1" stop-color="#de9a40"/></linearGradient><path fill="url(#aq)" d="M652.66,267.05c0.5,0.62-2.17,3.7-6.87,8.12c-1.51,1.43-3.23,2.99-5.14,4.67     c-3.54,3.11-7.68,6.59-12.16,10.18c-3.15,2.52-6.19,4.9-9.05,7.04c-1.97,1.49-3.83,2.86-5.58,4.12     c-7.31,5.2-12.43,8.23-13.04,7.47c-0.61-0.76,3.46-5.1,10.12-11.11c1.61-1.43,3.34-2.96,5.23-4.55c2.71-2.33,5.69-4.79,8.83-7.31     c4.48-3.6,8.77-6.88,12.57-9.67c2.05-1.49,3.94-2.84,5.67-4C648.58,268.37,652.16,266.43,652.66,267.05z"/><linearGradient id="ar" x1="-3425.765" x2="-2836.054" y1="1330.763" y2="1913.102" gradientTransform="rotate(-38.753 -3339.25 -3996.404)" gradientUnits="userSpaceOnUse"><stop offset="0" stop-color="#e8b87a"/><stop offset="1" stop-color="#de9a40"/></linearGradient><polygon fill="url(#ar)" points="594.49 300.75 600.83 308.65 652.66 267.05 646.32 259.15"/><linearGradient id="as" x1="-3433.711" x2="-2843.999" y1="1338.809" y2="1921.149" gradientTransform="rotate(-38.753 -3339.25 -3996.404)" gradientUnits="userSpaceOnUse"><stop offset="0" stop-color="#fffefe"/><stop offset="1" stop-color="#fffaf7"/></linearGradient><path fill="url(#as)" d="M611.47,287.12l7.98,9.94c-1.97,1.49-3.83,2.86-5.58,4.12l-7.81-9.73L611.47,287.12z"/><linearGradient id="at" x1="-3416.836" x2="-2827.124" y1="1321.72" y2="1904.06" gradientTransform="rotate(-38.753 -3339.25 -3996.404)" gradientUnits="userSpaceOnUse"><stop offset="0" stop-color="#fffefe"/><stop offset="1" stop-color="#fffaf7"/></linearGradient><path fill="url(#at)" d="M638.17,265.68l7.62,9.49c-1.51,1.43-3.23,2.99-5.14,4.67l-7.88-9.82L638.17,265.68z"/><linearGradient id="au" x1="-3423.233" x2="-2833.521" y1="1328.198" y2="1910.538" gradientTransform="rotate(-38.753 -3339.25 -3996.404)" gradientUnits="userSpaceOnUse"><stop offset="0" stop-color="#e8b87a"/><stop offset="1" stop-color="#de9a40"/></linearGradient><path fill="url(#au)" d="M646.32,259.15c0.96,1.2-9.86,11.49-24.17,22.97c-14.31,11.49-26.7,19.83-27.66,18.63     c-0.96-1.2,9.86-11.49,24.17-22.97C632.98,266.29,645.36,257.95,646.32,259.15z"/><radialGradient id="av" cx="-1828.758" cy="-286.46" r="828.782" gradientTransform="rotate(-38.753 -3339.25 -3996.404)" gradientUnits="userSpaceOnUse"><stop offset="0" stop-color="#e3a95d"/><stop offset=".994" stop-color="#de973c"/></radialGradient><path fill="url(#av)" d="M641.71,262.85c0.55,0.68-8.55,8.89-20.31,18.34c-11.77,9.44-21.75,16.55-22.3,15.86     c-0.55-0.68,8.55-8.89,20.31-18.34C631.18,269.27,641.16,262.17,641.71,262.85z"/><g><linearGradient id="aw" x1="1046.904" x2="1636.615" y1="-2232.879" y2="-1650.539" gradientTransform="rotate(41.114 -4809.84 -1153.698)" gradientUnits="userSpaceOnUse"><stop offset="0" stop-color="#ebe4cb"/><stop offset="1" stop-color="#e5dbbc"/></linearGradient><path fill="url(#aw)" d="M235.5,479.23c-0.61,0.7-4.73-1.75-10.81-6.27c-1.97-1.45-4.12-3.12-6.46-4.97     c-4.33-3.45-9.2-7.52-14.29-11.96c-3.57-3.12-6.95-6.15-10.01-9.01c-2.13-1.97-4.09-3.84-5.91-5.6     c-7.53-7.38-12.08-12.68-11.34-13.54c0.75-0.86,6.62,2.94,14.94,9.4c1.98,1.57,4.11,3.26,6.35,5.1c3.25,2.65,6.71,5.59,10.28,8.7     c5.08,4.44,9.77,8.72,13.78,12.54c2.15,2.06,4.1,3.97,5.8,5.73C233.13,474.78,236.12,478.52,235.5,479.23z"/><linearGradient id="ax" x1="1049.877" x2="1639.589" y1="-2235.889" y2="-1653.55" gradientTransform="rotate(41.114 -4809.84 -1153.698)" gradientUnits="userSpaceOnUse"><stop offset="0" stop-color="#ebe4cb"/><stop offset="1" stop-color="#e5dbbc"/></linearGradient><polygon fill="url(#ax)" points="184.5 418.92 176.67 427.88 235.5 479.23 243.33 470.27"/><linearGradient id="ay" x1="1040.542" x2="1630.253" y1="-2226.436" y2="-1644.096" gradientTransform="rotate(41.114 -4809.84 -1153.698)" gradientUnits="userSpaceOnUse"><stop offset="0" stop-color="#fffefe"/><stop offset="1" stop-color="#fffaf7"/></linearGradient><path fill="url(#ay)" d="M203.78,435.73l-9.85,11.29c-2.13-1.97-4.09-3.84-5.91-5.6l9.63-11.04L203.78,435.73z"/><linearGradient id="az" x1="1060.369" x2="1650.08" y1="-2246.513" y2="-1664.174" gradientTransform="rotate(41.114 -4809.84 -1153.698)" gradientUnits="userSpaceOnUse"><stop offset="0" stop-color="#fffefe"/><stop offset="1" stop-color="#fffaf7"/></linearGradient><path fill="url(#az)" d="M234.09,462.19l-9.4,10.77c-1.97-1.45-4.12-3.12-6.46-4.97l9.73-11.14L234.09,462.19z"/><linearGradient id="aA" x1="1052.852" x2="1642.564" y1="-2238.902" y2="-1656.562" gradientTransform="rotate(41.114 -4809.84 -1153.698)" gradientUnits="userSpaceOnUse"><stop offset="0" stop-color="#ebe4cb"/><stop offset="1" stop-color="#e5dbbc"/></linearGradient><path fill="url(#aA)" d="M243.33,470.27c-1.19,1.36-15.32-9.03-31.57-23.21c-16.25-14.18-28.45-26.78-27.26-28.14     c1.19-1.36,15.32,9.03,31.57,23.21S244.52,468.9,243.33,470.27z"/><linearGradient id="aB" x1="1799.23" x2="2388.941" y1="-3119.212" y2="-2536.872" gradientTransform="rotate(83.448 -4261.055 -2018.463)" gradientUnits="userSpaceOnUse"><stop offset="0" stop-color="#efead5" stop-opacity="0"/><stop offset="1" stop-color="#e4daba" stop-opacity=".979"/></linearGradient><path fill="url(#aB)" d="M238.09,465.7c-0.68,0.78-12.05-8.05-25.4-19.7c-13.35-11.66-23.63-21.73-22.95-22.51     c0.68-0.78,12.05,8.05,25.4,19.7S238.77,464.92,238.09,465.7z"/></g></g></svg>