<svg xmlns="http://www.w3.org/2000/svg" xmlns:xlink="http://www.w3.org/1999/xlink" enable-background="new 0 0 850 850" viewBox="0 0 850 850"><path fill="#ffdfd2" d="M191.18,325.12c0,11.75,9.52,21.27,21.27,21.27c11.75,0,21.27-9.52,21.27-21.27s-9.52-21.27-21.27-21.27       C200.7,303.85,191.18,313.37,191.18,325.12z"/><linearGradient id="a" x1="116.493" x2="312.04" y1="471.018" y2="471.018" gradientUnits="userSpaceOnUse"><stop offset="0" stop-color="#c4934b"/><stop offset=".836" stop-color="#a9690d"/><stop offset="1" stop-color="#a36000"/></linearGradient><polygon fill="url(#a)" points="122.55 624.3 116.49 622.39 212.8 317.74 312.04 620.75 306.01 622.74 212.9 338.49"/><circle cx="348.9" cy="350.35" r="20.34" fill="#f2d5b0"/><path fill="#fff" d="M337.02,349.68c0,6.56,5.32,11.88,11.88,11.88c6.56,0,11.88-5.32,11.88-11.88       c0-6.56-5.32-11.88-11.88-11.88C342.33,337.8,337.02,343.12,337.02,349.68z"/><path fill="#f2d5b0" d="M337.02,304.77c0,11.23,9.11,20.34,20.34,20.34c11.24,0,20.34-9.11,20.34-20.34       c0-11.24-9.11-20.34-20.34-20.34C346.12,284.43,337.02,293.54,337.02,304.77z"/><circle cx="356.69" cy="301.03" r="11.88" fill="#fff"/><circle cx="419.82" cy="383.64" r="20.34" fill="#f2d5b0"/><circle cx="419.15" cy="379.9" r="11.88" fill="#fff"/><circle cx="372.66" cy="379.9" r="20.34" fill="#f2d5b0"/><circle cx="371.99" cy="376.15" r="11.88" fill="#fff"/><path fill="#f2d5b0" d="M369.24,333.25c0,11.23,9.11,20.34,20.34,20.34c11.24,0,20.34-9.11,20.34-20.34       c0-11.24-9.11-20.34-20.34-20.34C378.35,312.9,369.24,322.01,369.24,333.25z"/><circle cx="388.91" cy="329.5" r="11.88" fill="#fff"/><path fill="#f2d5b0" d="M459.53,381.9c0,11.24,9.11,20.34,20.34,20.34c11.23,0,20.34-9.11,20.34-20.34       c0-11.23-9.11-20.34-20.34-20.34C468.64,361.56,459.53,370.67,459.53,381.9z"/><path fill="#fff" d="M467.33,378.15c0,6.56,5.32,11.88,11.88,11.88s11.88-5.32,11.88-11.88c0-6.56-5.32-11.88-11.88-11.88       S467.33,371.59,467.33,378.15z"/><circle cx="435.93" cy="322.8" r="20.34" fill="#f2d5b0"/><circle cx="435.26" cy="319.05" r="11.88" fill="#fff"/><circle cx="482.68" cy="319.99" r="20.34" fill="#f2d5b0"/><path fill="#fff" d="M470.13,316.24c0,6.56,5.32,11.88,11.88,11.88c6.56,0,11.88-5.32,11.88-11.88       c0-6.56-5.32-11.88-11.88-11.88C475.45,304.36,470.13,309.68,470.13,316.24z"/><g><circle cx="414.1" cy="286.6" r="20.34" fill="#f2d5b0"/><path fill="#fff" d="M401.55,282.85c0,6.56,5.32,11.88,11.88,11.88c6.56,0,11.88-5.32,11.88-11.88       c0-6.56-5.32-11.88-11.88-11.88C406.87,270.97,401.55,276.29,401.55,282.85z"/></g><g><path fill="#f2d5b0" d="M393.09,325.12c0,11.23,9.11,20.34,20.34,20.34c11.24,0,20.34-9.11,20.34-20.34       c0-11.24-9.11-20.34-20.34-20.34C402.19,304.77,393.09,313.88,393.09,325.12z"/><path fill="#fff" d="M400.88,321.37c0,6.56,5.32,11.88,11.88,11.88c6.56,0,11.88-5.32,11.88-11.88       c0-6.56-5.32-11.88-11.88-11.88C406.2,309.49,400.88,314.81,400.88,321.37z"/></g><g><path fill="#f2d5b0" d="M421.65,356.21c0,11.24,9.11,20.34,20.34,20.34c11.23,0,20.34-9.11,20.34-20.34       c0-11.23-9.11-20.34-20.34-20.34C430.76,335.86,421.65,344.97,421.65,356.21z"/><circle cx="441.33" cy="352.46" r="11.88" fill="#fff"/></g><g><circle cx="245.02" cy="378.15" r="20.34" fill="#f2d5b0"/><circle cx="244.35" cy="374.41" r="11.88" fill="#fff"/></g><g><circle cx="226.82" cy="289.15" r="20.34" fill="#f2d5b0"/><circle cx="226.15" cy="285.4" r="11.88" fill="#fff"/></g><g><circle cx="290.35" cy="266.25" r="20.34" fill="#f2d5b0"/><circle cx="289.68" cy="262.51" r="11.88" fill="#fff"/></g><g><circle cx="312.34" cy="310.59" r="20.34" fill="#f2d5b0"/><circle cx="311.67" cy="306.84" r="11.88" fill="#fff"/></g><g><path fill="#f2d5b0" d="M268.03,350.35c0,11.24,9.11,20.34,20.34,20.34c11.24,0,20.34-9.11,20.34-20.34       c0-11.23-9.11-20.34-20.34-20.34C277.13,330.01,268.03,339.11,268.03,350.35z"/><circle cx="287.7" cy="346.6" r="11.88" fill="#fff"/></g><g><path fill="#cec4b5" d="M287.38,239.54c84.59,0.29,169.18,0.57,253.77,0.86c-34.69-5.71-69.39-11.42-104.08-17.13       c-85.11-0.06-170.21-0.12-255.32-0.18C216.95,228.58,252.16,234.06,287.38,239.54z" opacity=".26"/><path fill="#cec4b5" d="M257.68,422.31c84.81,0.01,169.62,0.01,254.43,0.02c-35.08-5.35-70.16-10.71-105.23-16.06       c-84.54-0.07-169.07-0.14-253.61-0.21C188.07,411.47,222.87,416.89,257.68,422.31z"/><polygon fill="#cec4b5" points="114.69 306.36 181.74 223.1 287.38 239.54 325.95 339.24 258.89 422.5 153.26 406.06" opacity=".2"/><path fill="#ffdfd2" d="M258.89,423.76c-0.2-0.01-105.83-16.46-105.83-16.46c-0.45-0.06-0.82-0.37-0.99-0.79l-38.57-99.7        c-0.17-0.42-0.1-0.91,0.19-1.25l67.06-83.26c0.3-0.35,0.66-0.56,1.19-0.46l105.63,16.44c0.45,0.07,0.82,0.37,0.98,0.79        l38.59,99.7c0.16,0.42,0.09,0.9-0.2,1.25l-67.06,83.26C259.64,423.6,259.28,423.76,258.89,423.76z M154.18,404.91        l104.18,16.22l66.14-82.11l-38.05-98.33l-104.18-16.22l-66.14,82.11L154.18,404.91z"/><path fill="#ffdfd2" d="M435.92,224.37H181.49c-0.71,0-1.27-0.57-1.27-1.27c0-0.7,0.56-1.27,1.27-1.27h254.43        c0.71,0,1.27,0.57,1.27,1.27C437.19,223.8,436.63,224.37,435.92,224.37z"/><path fill="#ffdfd2" d="M368.88,307.62H116.7c-0.71,0-1.27-0.56-1.27-1.27s0.56-1.27,1.27-1.27h252.17        c0.71,0,1.27,0.56,1.27,1.27S369.58,307.62,368.88,307.62z"/><path fill="#ffdfd2" d="M407.44,407.32H153.26c-0.71,0-1.27-0.56-1.27-1.27s0.56-1.27,1.27-1.27h254.18        c0.71,0,1.27,0.56,1.27,1.27S408.15,407.32,407.44,407.32z"/><path fill="#ffdfd2" d="M512.1,423.59H258.89c-0.71,0-1.27-0.56-1.27-1.27c0-0.71,0.56-1.27,1.27-1.27H512.1        c0.71,0,1.27,0.56,1.27,1.27C513.37,423.03,512.81,423.59,512.1,423.59z"/><path fill="#ffdfd2" d="M580.13,340.51H326.04c-0.71,0-1.27-0.56-1.27-1.27s0.56-1.27,1.27-1.27h254.09        c0.71,0,1.27,0.56,1.27,1.27S580.84,340.51,580.13,340.51z"/><path fill="#ffdfd2" d="M541.14,241.67H287.05c-0.71,0-1.27-0.56-1.27-1.27c0-0.7,0.56-1.27,1.27-1.27h254.09        c0.71,0,1.27,0.57,1.27,1.27C542.41,241.11,541.85,241.67,541.14,241.67z"/><path fill="#ffdfd2" d="M513.08,423.76c-0.2-0.01-105.84-16.46-105.84-16.46c-0.45-0.06-0.82-0.37-0.99-0.79l-38.56-99.7        c-0.17-0.42-0.1-0.91,0.19-1.25l67.05-83.26c0.29-0.35,0.67-0.56,1.19-0.46l105.64,16.44c0.45,0.07,0.82,0.37,0.99,0.79        l38.57,99.7c0.16,0.42,0.09,0.9-0.2,1.25l-67.05,83.26C513.83,423.6,513.47,423.76,513.08,423.76z M408.36,404.91        l104.19,16.22l66.13-82.11l-38.04-98.33l-104.19-16.22l-66.13,82.11L408.36,404.91z"/><polygon fill="#cec4b5" points="368.87 306.36 435.93 223.1 541.56 239.54 580.14 339.24 513.08 422.5 407.45 406.06" opacity=".6"/></g><g><path fill="#ffdfd2" d="M456.11,325.12c0,11.75,9.52,21.27,21.27,21.27c11.75,0,21.27-9.52,21.27-21.27s-9.52-21.27-21.27-21.27       C465.63,303.85,456.11,313.37,456.11,325.12z"/><linearGradient id="b" x1="381.422" x2="576.981" y1="471.018" y2="471.018" gradientUnits="userSpaceOnUse"><stop offset="0" stop-color="#c4934b"/><stop offset=".836" stop-color="#a9690d"/><stop offset="1" stop-color="#a36000"/></linearGradient><polygon fill="url(#b)" points="387.48 624.3 381.42 622.39 477.74 317.74 576.98 620.75 570.95 622.74 477.84 338.49"/></g><g><rect width="261.68" height="155.49" x="455.83" y="282.13" fill="#fff" transform="rotate(-19.792 586.677 359.877)"/><path fill="#ffdfd2" d="M489.88,477.81c-0.2,0-0.38-0.12-0.46-0.32l-52.65-146.3c-0.09-0.25,0.04-0.53,0.29-0.62l246.22-88.61         c0.13-0.05,0.25-0.04,0.37,0.01c0.11,0.06,0.2,0.16,0.25,0.27l52.65,146.31c0.05,0.12,0.04,0.25-0.01,0.37         c-0.06,0.11-0.16,0.2-0.27,0.25l-246.23,88.6C489.99,477.8,489.94,477.81,489.88,477.81z M437.85,331.31l52.32,145.39         l245.31-88.28l-52.33-145.4L437.85,331.31z"/><path fill="#ffdfd2" d="M680.22,258.04l43.43,120.69c0.7,1.96-0.29,4.08-2.22,4.77l-223.56,80.45c-1.93,0.69-4.05-0.31-4.75-2.26       l-43.43-120.69c-0.69-1.93,0.31-4.05,2.23-4.74l223.56-80.45C677.4,255.11,679.53,256.11,680.22,258.04z"/><path fill="#f3c944" d="M696.53,322.71c9.95,27.66-28.54,66.84-85.97,87.51c-57.43,20.67-112.06,15-122.02-12.66       c-9.95-27.66,28.54-66.84,85.97-87.51C631.95,289.38,686.58,295.05,696.53,322.71z"/><path fill="#fff" d="M669.71,352.73l-151.58,54.55c-1.41,0.51-2.97-0.22-3.48-1.64l-9.53-26.49        c-0.51-1.41,0.22-2.97,1.64-3.48l151.58-54.55c1.41-0.51,2.97,0.22,3.48,1.64l9.53,26.49        C671.85,350.66,671.12,352.22,669.71,352.73z"/><polygon fill="#f2d5b0" points="528.42 370.64 535.41 379.65 546.13 375.79 539.72 385.22 546.71 394.23 535.76 391.04 529.35 400.47 529 389.08 518.05 385.89 528.77 382.03"/><polygon fill="#f2d5b0" points="561.11 358.87 568.09 367.88 578.82 364.02 572.41 373.45 579.4 382.46 568.45 379.28 562.04 388.71 561.68 377.31 550.73 374.13 561.46 370.27"/><polygon fill="#f2d5b0" points="591.89 347.8 598.87 356.81 609.6 352.95 603.19 362.38 610.18 371.39 599.23 368.2 592.82 377.63 592.46 366.24 581.51 363.05 592.24 359.19"/><polygon fill="#f2d5b0" points="624.57 336.03 631.56 345.04 642.29 341.18 635.88 350.61 642.87 359.62 631.92 356.44 625.51 365.87 625.15 354.47 614.2 351.29 624.93 347.43"/><path fill="#f3c944" d="M624.14,324.55c-8.36,3.86-17.07,7.98-22.73,14.88c11.4-2.16,22.62-5.52,33.37-9.98       c-12.26,8.22-28.83,9.77-39.83,19.42c10.84-2.95,21.67-5.89,32.51-8.84c-2.96,2.31-5.92,4.62-8.89,6.93       c5.3-0.87,10.59-1.73,15.89-2.6c-13.82,6.7-27.88,13.56-39.09,23.67c15.01-3.26,29.76-7.91,43.95-13.85       c-6.57,4.66-13.13,9.32-19.7,13.98c-2.58,1.83-5.45,4.2-5.28,7.07c23.21-8.36,46.42-16.72,69.64-25.08       c2.51-0.9,5.08-1.84,7.14-3.48c2.06-1.64,3.54-4.15,3.05-6.48c-0.78-3.73-5.67-4.98-8.57-7.59c-4.65-4.19-3.8-11.55-7.13-16.71       c-3.55-5.51-11.42-7.55-18.63-6.69c-5.51,0.66-10.78,2.73-15.8,5.05c-1.83,0.84-3.2,1.8-4.77,2.99       c-1.91,1.44-4.33,2.31-6.51,3.31C629.9,321.9,627.02,323.23,624.14,324.55z"/><g><path fill="#fff" d="M521.17,355.71l-6.47-17.98l3.66-1.32l5.37,14.92l9.1-3.28l1.1,3.06L521.17,355.71z"/><path fill="#fff" d="M532.57,341.49c-0.67-1.85-0.94-3.5-0.84-4.95c0.08-1.08,0.34-2.11,0.8-3.1        c0.44-0.99,1.03-1.82,1.75-2.48c0.96-0.89,2.18-1.59,3.65-2.12c2.67-0.96,5.11-0.9,7.31,0.17c2.2,1.09,3.83,3.1,4.89,6.05        c1.05,2.93,1.08,5.51,0.08,7.73c-1,2.23-2.82,3.82-5.49,4.78c-2.7,0.97-5.14,0.92-7.32-0.16        C535.22,346.35,533.61,344.37,532.57,341.49z M536.3,340c0.74,2.05,1.77,3.44,3.1,4.15c1.33,0.72,2.72,0.82,4.19,0.29        c1.46-0.52,2.47-1.48,3.03-2.87c0.56-1.39,0.46-3.13-0.3-5.23c-0.75-2.08-1.76-3.47-3.04-4.16c-1.28-0.7-2.67-0.77-4.18-0.23        c-1.51,0.55-2.54,1.5-3.09,2.87C535.45,336.19,535.55,337.91,536.3,340z"/><path fill="#fff" d="M560.32,341.61l-5.42-15.07l-5.38,1.94l-1.1-3.07l14.41-5.18l1.1,3.07l-5.37,1.93l5.42,15.07        L560.32,341.61z"/><path fill="#fff" d="M575.79,336.04l-5.42-15.07l-5.38,1.94l-1.1-3.07l14.41-5.18l1.1,3.07l-5.37,1.93l5.42,15.07        L575.79,336.04z"/><path fill="#fff" d="M587.19,331.95l-6.53-18.13l13.45-4.84l1.1,3.07l-9.78,3.52l1.44,4.02l9.1-3.28l1.1,3.05l-9.1,3.28        l1.77,4.93l10.13-3.65l1.1,3.06L587.19,331.95z"/><path fill="#fff" d="M604.09,325.86l-6.52-18.13l7.71-2.78c1.94-0.7,3.4-1.04,4.4-1.03c0.99,0.01,1.91,0.33,2.73,0.97        c0.83,0.65,1.43,1.51,1.82,2.58c0.49,1.36,0.5,2.62,0.02,3.8c-0.49,1.17-1.48,2.16-2.99,2.96c0.96,0.17,1.79,0.45,2.51,0.82        c0.72,0.37,1.77,1.1,3.14,2.19l3.49,2.75l-4.38,1.57l-4.06-2.99c-1.45-1.07-2.41-1.73-2.89-1.97        c-0.48-0.24-0.93-0.36-1.37-0.35c-0.43,0-1.08,0.16-1.92,0.46l-0.74,0.26l2.72,7.57L604.09,325.86z M603.99,314.08l2.71-0.97        c1.76-0.63,2.83-1.1,3.21-1.41c0.38-0.31,0.63-0.68,0.75-1.14c0.12-0.45,0.08-0.95-0.12-1.49c-0.22-0.61-0.56-1.05-1.02-1.3        c-0.46-0.26-1.01-0.33-1.64-0.22c-0.31,0.07-1.21,0.36-2.69,0.9l-2.86,1.02L603.99,314.08z"/><path fill="#fff" d="M626.2,317.9l-2.75-7.63l-10.42-8.11l4.3-1.54l6.85,5.64l1.6-8.68l4.22-1.52l-2.87,12.92l2.74,7.61        L626.2,317.9z"/></g><path fill="#fff" d="M467.96,343.65c0.7,1.95-0.31,4.11-2.26,4.81c-1.95,0.7-4.11-0.31-4.81-2.26c-0.7-1.95,0.31-4.11,2.26-4.81      C465.1,340.68,467.25,341.69,467.96,343.65z"/><path fill="#fff" d="M505.52,448.02c0.7,1.95-0.31,4.11-2.26,4.81c-1.95,0.7-4.11-0.31-4.81-2.26c-0.7-1.95,0.31-4.11,2.26-4.81      C502.66,445.05,504.81,446.07,505.52,448.02z"/><path fill="#fff" d="M674.8,269.21c0.7,1.95-0.31,4.11-2.26,4.81c-1.95,0.7-4.11-0.31-4.81-2.26s0.31-4.11,2.26-4.81      C671.94,266.24,674.09,267.26,674.8,269.21z"/><path fill="#fff" d="M712.36,373.59c0.7,1.95-0.31,4.11-2.26,4.81c-1.95,0.7-4.11-0.31-4.81-2.26c-0.7-1.95,0.31-4.11,2.26-4.81      C709.5,370.62,711.65,371.63,712.36,373.59z"/><path fill="#fff" d="M568.83,417.46l-52.53,19.62c-0.91,0.34-1.93-0.13-2.27-1.03c-0.34-0.91,0.13-1.93,1.03-2.27l52.53-19.62     c0.91-0.34,1.93,0.13,2.27,1.03S569.74,417.13,568.83,417.46z"/><path fill="#fff" d="M693.98,384.41l-54.81,20.48c-0.28,0.1-0.59-0.04-0.7-0.32l-7.64-20.46c-0.1-0.28,0.04-0.59,0.32-0.7     l54.81-20.47c0.28-0.1,0.59,0.04,0.7,0.32l7.64,20.46C694.41,384,694.26,384.31,693.98,384.41z"/><g><path fill="#ffdfd2" d="M727.24,321.82l0.1,0.97c0.25,2.52,0.36,4.99,0.37,7.44c0.02,0.19,0.01,0.42,0,0.65     c0,2.29-0.11,4.55-0.28,6.72c-0.04,0.23-0.05,0.46-0.1,0.66c-0.21,2.14-0.53,4.27-0.92,6.26c-0.04,0.23-0.08,0.47-0.13,0.67     c-0.48,2.4-1.1,4.71-1.83,6.91c-0.08,0.2-0.15,0.44-0.2,0.64c-0.69,1.93-1.43,3.77-2.27,5.48c-0.11,0.21-0.22,0.45-0.32,0.69     c-1.34,2.68-2.86,5.08-4.55,7.14c-0.2,0.25-0.41,0.5-0.62,0.71c-4.08,4.71-9.04,7.65-14.61,8.2     c-16.76,1.65-32.52-19.04-35.19-46.21c-2.68-27.17,8.73-50.58,25.49-52.23c4.63-0.46,9.19,0.79,13.41,3.45     c0.28,0.17,0.56,0.34,0.84,0.54c2.13,1.42,4.17,3.21,6.08,5.31c0.18,0.18,0.36,0.36,0.51,0.57c1.65,1.86,3.2,3.96,4.64,6.27     c0.12,0.18,0.24,0.4,0.39,0.61c1.17,1.97,2.3,4.12,3.34,6.37c0.09,0.22,0.17,0.41,0.26,0.63c0.89,2.04,1.72,4.21,2.43,6.46     c0.05,0.19,0.14,0.41,0.19,0.63c0.72,2.31,1.35,4.7,1.85,7.2C726.6,317.05,726.96,319.4,727.24,321.82z"/><rect width="12.91" height="10.02" x="681.08" y="277.07" fill="#ffdfd2" transform="rotate(-5.616 687.79 281.977)"/><rect width="12.91" height="10.02" x="689.79" y="365.43" fill="#ffdfd2" transform="rotate(-5.616 696.525 370.359)"/><path fill="#fff" d="M706.41,280.53l-20.61,2.03l-0.06-0.61l19.83-1.96C705.85,280.16,706.13,280.33,706.41,280.53z"/><path fill="#fff" d="M713,286.41l-26.56,2.62l-0.06-0.61l26.11-2.57C712.67,286.02,712.85,286.2,713,286.41z"/><path fill="#fff" d="M718.02,293.3l-23.58,2.32l-0.06-0.65l23.26-2.29C717.75,292.87,717.87,293.08,718.02,293.3z"/><path fill="#fff" d="M721.62,300.29l-28.69,2.83l-0.06-0.65l28.5-2.81C721.45,299.88,721.53,300.07,721.62,300.29z"/><path fill="#fff" d="M724.25,307.38l-23.32,2.3l-0.06-0.65l23.19-2.29C724.1,306.94,724.19,307.16,724.25,307.38z"/><rect width="31.9" height=".65" x="694.32" y="316.13" fill="#fff" transform="rotate(-5.616 710.329 316.277)"/><rect width="25" height=".65" x="702.33" y="323.04" fill="#fff" transform="rotate(-5.635 714.666 323.302)"/><path fill="#fff" d="M727.71,330.23c0.02,0.19,0.01,0.42,0,0.65l-29.6,2.92l-0.06-0.65L727.71,330.23z"/><path fill="#fff" d="M727.42,337.61c-0.04,0.23-0.05,0.46-0.1,0.66l-21.22,2.09l-0.06-0.65L727.42,337.61z"/><path fill="#fff" d="M726.41,344.54c-0.04,0.23-0.08,0.47-0.13,0.67l-31.15,3.07l-0.06-0.65L726.41,344.54z"/><path fill="#fff" d="M724.44,352.11c-0.08,0.2-0.15,0.44-0.2,0.64l-21.09,2.08l-0.06-0.61L724.44,352.11z"/><path fill="#fff" d="M721.97,358.24c-0.11,0.21-0.22,0.45-0.32,0.69l-30.28,2.98l-0.06-0.65L721.97,358.24z"/><path fill="#fff" d="M717.1,366.07c-0.2,0.25-0.41,0.5-0.62,0.71l-17.11,1.69l-0.06-0.65L717.1,366.07z"/><path fill="#f2d5b0" d="M716.82,323.82c2.68,27.18-8.73,50.56-25.48,52.21c-16.75,1.65-32.5-19.05-35.18-46.23     c-2.68-27.18,8.73-50.56,25.48-52.21C698.39,275.94,714.14,296.64,716.82,323.82z"/><linearGradient id="e" x1="674.185" x2="694.218" y1="325.354" y2="325.354" gradientUnits="userSpaceOnUse"><stop offset="0" stop-color="#c4934b"/><stop offset=".836" stop-color="#a9690d"/><stop offset="1" stop-color="#a36000"/></linearGradient><path fill="url(#e)" d="M684.22,340.73l-1.33-13.52c-2.58-0.96-4.57-2.61-5.97-4.93c-1.39-2.33-2.26-5.23-2.6-8.72      c-0.35-3.53,0.01-6.55,1.08-9.08c1.07-2.53,2.67-4.08,4.8-4.66l-0.32-3.19l2.74-0.27l0.32,3.19c2.04,0.21,3.75,1.22,5.12,3.03      c1.37,1.81,2.38,4.31,3.03,7.5l-4.67,1.54c-0.54-2.51-1.46-4.16-2.78-4.94l1.24,12.61c3.16,1.1,5.4,2.71,6.71,4.83      c1.31,2.12,2.14,4.92,2.49,8.4c0.38,3.89,0.02,7.24-1.1,10.04c-1.11,2.8-2.87,4.63-5.27,5.47l0.59,6.03l-2.74,0.27l-0.58-5.87      c-2.22-0.24-4.13-1.45-5.72-3.64c-1.59-2.19-2.78-5.38-3.58-9.58l4.84-1.39c0.37,1.7,0.9,3.15,1.57,4.34      C682.78,339.4,683.48,340.24,684.22,340.73z M680.88,306.86c-0.7,0.5-1.22,1.29-1.56,2.37c-0.34,1.08-0.45,2.24-0.32,3.49      c0.11,1.14,0.42,2.18,0.92,3.12c0.5,0.94,1.19,1.67,2.06,2.19L680.88,306.86z M687,340.91c0.91-0.39,1.61-1.22,2.08-2.47      c0.47-1.25,0.63-2.68,0.47-4.3c-0.14-1.44-0.51-2.66-1.11-3.65c-0.6-0.99-1.49-1.71-2.68-2.16L687,340.91z"/></g></g></svg>