<svg xmlns="http://www.w3.org/2000/svg" width="500" height="500" enable-background="new 0 0 500 500" viewBox="0 0 500 500"><path fill="#DBDBDB" d="M159.738,224.999c0,0,14.205,58.986-34.432,62.593C125.307,287.592,96.941,244.77,159.738,224.999z"/><path fill="#CACCCE" d="M49.48 298.994c0 0 40.57-46.719 72.359-8.474C121.84 290.521 103.082 339.427 49.48 298.994zM194.225 271.993c0 0 5.342 48.052-33.469 46.048C160.756 318.041 142.607 281.355 194.225 271.993z"/><path fill="#DBDBDB" d="M86.539 360.236c0 0 23.139-58.87 66.832-32.874C153.371 327.362 151.996 380.893 86.539 360.236zM30.663 241.581c0 0 43.635-39.419 69.222.323C99.885 241.904 76.568 285.881 30.663 241.581z"/><path fill="#CACCCE" d="M129.527 175.871c0 0 21.24 55.165-25.279 64.851C104.248 240.722 71.394 202.968 129.527 175.871zM15.062 165.979c0 0 53.779-22.365 64.519 23.206C79.581 189.185 43.26 222.526 15.062 165.979zM69.357 74.58c0 0 34.752 46.741-6.849 68.225C62.509 142.805 21.346 115.664 69.357 74.58z"/><path fill="#DBDBDB" d="M116.037 124.512c0 0 15.332 56.513-31.484 61.33C84.553 185.842 56.006 145.311 116.037 124.512zM336.486 224.999c0 0-14.206 58.986 34.431 62.593C370.917 287.592 399.283 244.77 336.486 224.999z"/><path fill="#CACCCE" d="M446.742 298.994c0 0-40.568-46.719-72.359-8.474C374.383 290.521 393.141 339.427 446.742 298.994zM302.073 269.128c0 0-5.542 49.845 34.716 47.766C336.789 316.894 355.616 278.84 302.073 269.128z"/><path fill="#DBDBDB" d="M410.706 360.282c0 0-23.078-58.894-66.798-32.942C343.908 327.34 345.229 380.872 410.706 360.282zM465.561 241.581c0 0-43.635-39.419-69.223.323C396.338 241.904 419.656 285.881 465.561 241.581z"/><path fill="#CACCCE" d="M366.697 175.871c0 0-21.241 55.165 25.278 64.851C391.976 240.722 424.83 202.968 366.697 175.871zM481.162 165.979c0 0-53.779-22.365-64.52 23.206C416.643 189.185 452.965 222.526 481.162 165.979zM426.867 74.58c0 0-34.752 46.741 6.848 68.225C433.715 142.805 474.878 115.664 426.867 74.58z"/><path fill="#DBDBDB" d="M380.187 124.512c0 0-15.331 56.513 31.484 61.33C411.671 185.842 440.219 145.311 380.187 124.512zM302.761 426.32c-30.576-11.936-42.966-43.879-47.339-59.662.898-3.82 1.277-6.283 1.346-6.754.639-4.367-2.381-8.42-6.746-9.064-.984-.145-1.949-.096-2.867.104-.922-.205-1.895-.258-2.885-.113-4.371.64-7.397 4.701-6.758 9.074.068.471.447 2.934 1.346 6.754-4.373 15.783-16.763 47.727-47.339 59.662-4.116 1.605-6.149 6.245-4.543 10.361 1.233 3.16 4.255 5.092 7.454 5.092.968 0 1.951-.176 2.907-.549 26.477-10.336 41.489-31.924 49.803-50.271 8.313 18.348 23.326 39.936 49.803 50.271.956.373 1.939.549 2.907.549 3.199 0 6.221-1.933 7.454-5.092C308.91 432.565 306.877 427.926 302.761 426.32z"/><path fill="#B8BBBC" d="M270.839,400.262c-8.457-12.139-13.081-25.175-15.417-33.604c0.898-3.82,1.277-6.283,1.346-6.754
				c0.178-1.215,0.063-2.402-0.275-3.503c-4.922,2.638-8.155,4.679-8.54,4.924l-0.818,0.521l-0.82-0.522
				c-0.384-0.245-3.614-2.283-8.528-4.918c-0.338,1.099-0.451,2.285-0.273,3.498c0.068,0.471,0.447,2.934,1.346,6.754
				c-2.348,8.472-7.01,21.597-15.548,33.786c11.992-8.312,20.298-13.119,23.815-18.558
				C250.623,387.302,258.893,392.001,270.839,400.262z"/><path fill="#DBDBDB" d="M310.568,331.187c-3.437-1.349-7.367-2.032-11.684-2.032c-21.717,0-49.75,17.704-50.933,18.458
				l-0.818,0.521l-0.82-0.522c-1.183-0.754-29.216-18.459-50.933-18.459c-4.316,0-8.247,0.681-11.684,2.029
				c-14.961,5.871-21.258,24.662-18.7,39.443c2.626,15.185,13.651,24.9,28.772,25.375c0.447,0.015,0.897,0,1.342,0
				c0.002,0,0.002,0,0.004,0c27.18,0,46.175-25.679,52.01-34.701c5.818,9.008,24.824,34.744,52.029,34.744
				c0.443,0,0.895-0.007,1.342-0.021c15.121-0.475,26.146-10.201,28.772-25.385C331.826,355.855,325.529,337.058,310.568,331.187z
				 M195.113,380.043c-0.279,0-0.562-0.004-0.842-0.014c-9.483-0.297-12.58-6.755-13.509-12.121
				c-1.586-9.17,2.517-19.369,8.78-21.827c1.565-0.614,3.529-0.927,5.838-0.927c10.777,0,25.664,6.689,35.225,11.834
				C224.084,365.71,210.952,380.045,195.113,380.043z M313.503,367.908c-0.929,5.366-4.025,11.824-13.509,12.121
				c-16.373,0.51-29.777-14.15-36.363-23.024c9.562-5.148,24.466-11.851,35.254-11.851c2.309,0,4.272,0.312,5.838,0.927
				C310.986,348.539,315.089,358.738,313.503,367.908z"/><polygon fill="#FFF" fill-rule="evenodd" points="392.389 342.795 389.606 334.332 386.824 342.795 378.361 345.578 386.824 348.359 389.606 356.823 392.389 348.359 400.852 345.578" clip-rule="evenodd"/><polygon fill="#FFF" fill-rule="evenodd" points="110.389 208.795 107.606 200.332 104.824 208.795 96.361 211.578 104.824 214.359 107.606 222.823 110.389 214.359 118.852 211.578" clip-rule="evenodd"/><polygon fill="#FFF" fill-rule="evenodd" points="67.389 91.795 64.606 83.332 61.824 91.795 53.361 94.578 61.824 97.359 64.606 105.823 67.389 97.359 75.852 94.578" clip-rule="evenodd"/><polygon fill="#FFF" fill-rule="evenodd" points="422.957 307.998 426.04 298.621 435.418 295.537 426.04 292.454 422.957 283.076 419.874 292.454 410.496 295.537 419.874 298.621" clip-rule="evenodd"/><polygon fill="#FFF" fill-rule="evenodd" points="434.957 120.998 438.04 111.621 447.418 108.537 438.04 105.454 434.957 96.076 431.874 105.454 422.496 108.537 431.874 111.621" clip-rule="evenodd"/><polygon fill="#FFF" fill-rule="evenodd" points="77.246 302.576 79.658 295.239 86.996 292.826 79.658 290.414 77.246 283.076 74.834 290.414 67.496 292.826 74.834 295.239" clip-rule="evenodd"/><g><path fill="#B8BBBC" d="M196.575,217.748c5.624-13.369,18.902-27.524,39.836-42.463c18.165-13.002,29.922-22.314,35.271-27.94
				c8.206-8.759,12.311-18.349,12.311-28.77c0-8.483-2.352-15.537-7.054-21.163c-4.703-5.623-11.436-8.438-20.194-8.438
				c-11.988,0-20.149,4.474-24.482,13.417c-2.49,5.165-3.966,13.371-4.427,24.621h-38.313c0.644-17.059,3.736-30.846,9.275-41.357
				c10.523-20.009,29.216-30.015,56.077-30.015c21.229,0,38.122,5.878,50.677,17.636c12.552,11.757,18.83,27.317,18.83,46.682
				c0,14.848-4.435,28.033-13.305,39.559c-5.819,7.655-15.381,16.184-28.686,25.589l-15.798,11.204
				c-9.886,7.009-16.65,12.081-20.292,15.215c-3.644,3.136-6.708,6.777-9.198,10.927h87.555v34.718H187.309
				C187.676,242.784,190.767,229.644,196.575,217.748z"/><path fill="#DBDBDB" d="M185.565,217.748c5.624-13.369,18.902-27.524,39.836-42.463c18.165-13.002,29.922-22.314,35.271-27.94
				c8.206-8.759,12.311-18.349,12.311-28.77c0-8.483-2.352-15.537-7.054-21.163c-4.703-5.623-11.436-8.438-20.194-8.438
				c-11.988,0-20.149,4.474-24.482,13.417c-2.49,5.165-3.966,13.371-4.427,24.621h-38.313c0.644-17.059,3.736-30.846,9.275-41.357
				c10.523-20.009,29.216-30.015,56.077-30.015c21.229,0,38.122,5.878,50.677,17.636c12.552,11.757,18.83,27.317,18.83,46.682
				c0,14.848-4.435,28.033-13.305,39.559c-5.819,7.655-15.381,16.184-28.686,25.589l-15.798,11.204
				c-9.886,7.009-16.65,12.081-20.292,15.215c-3.644,3.136-6.708,6.777-9.198,10.927h87.555v34.718H176.299
				C176.666,242.784,179.757,229.644,185.565,217.748z"/><path fill="#FFF" d="M294.541 73.276c-2.235-2.094-4.615-3.992-7.126-5.713l-25.846 25.846c1.605 1.123 3.062 2.452 4.359 4.003 2.5 2.99 4.314 6.397 5.485 10.195l28.531-28.531C298.291 77.054 296.502 75.113 294.541 73.276zM272.967 118.123c.001.153.016.299.016.452 0 2.733-.29 5.407-.854 8.026l35.414-35.413c-.794-1.721-1.677-3.387-2.632-5.009L272.967 118.123z" opacity=".6"/><polygon fill="#FFF" points="278.279 222 270.639 222 235.921 257 243.561 257" opacity=".6"/><polygon fill="#FFF" points="303.57 222 286.518 222 251.8 257 268.853 257" opacity=".6"/></g><polygon fill="#FFF" fill-rule="evenodd" points="315.382 116.935 310.863 103.194 306.348 116.935 292.605 121.452 306.348 125.97 310.863 139.71 315.382 125.97 329.123 121.452" clip-rule="evenodd"/><polygon fill="#FFF" fill-rule="evenodd" points="281.587 169.921 284.434 161.261 293.094 158.414 284.434 155.566 281.587 146.907 278.739 155.566 270.08 158.414 278.739 161.261" clip-rule="evenodd"/></svg>