<svg xmlns="http://www.w3.org/2000/svg" width="500" height="500" enable-background="new 0 0 500 500" viewBox="0 0 500 500"><path fill="#F48634" d="M156.738,224.999c0,0,14.205,58.986-34.432,62.593C122.307,287.592,93.941,244.77,156.738,224.999z"/><path fill="#E27227" d="M46.48 298.994c0 0 40.57-46.719 72.359-8.474C118.84 290.521 100.082 339.427 46.48 298.994zM191.225 271.993c0 0 5.342 48.052-33.469 46.048C157.756 318.041 139.607 281.355 191.225 271.993z"/><path fill="#F48634" d="M83.539 360.236c0 0 23.139-58.87 66.832-32.874C150.371 327.362 148.996 380.893 83.539 360.236zM27.663 241.581c0 0 43.635-39.419 69.222.323C96.885 241.904 73.568 285.881 27.663 241.581z"/><path fill="#E27227" d="M126.527 175.871c0 0 21.24 55.165-25.279 64.851C101.248 240.722 68.394 202.968 126.527 175.871zM12.062 165.979c0 0 53.779-22.365 64.519 23.206C76.581 189.185 40.26 222.526 12.062 165.979zM66.357 74.58c0 0 34.752 46.741-6.849 68.225C59.509 142.805 18.346 115.664 66.357 74.58z"/><path fill="#F48634" d="M113.037 124.512c0 0 15.332 56.513-31.484 61.33C81.553 185.842 53.006 145.311 113.037 124.512zM333.486 224.999c0 0-14.206 58.986 34.431 62.593C367.917 287.592 396.283 244.77 333.486 224.999z"/><path fill="#E27227" d="M443.742 298.994c0 0-40.568-46.719-72.359-8.474C371.383 290.521 390.141 339.427 443.742 298.994zM299.073 269.128c0 0-5.542 49.845 34.716 47.766C333.789 316.894 352.616 278.84 299.073 269.128z"/><path fill="#F48634" d="M407.706 360.282c0 0-23.078-58.894-66.798-32.942C340.908 327.34 342.229 380.872 407.706 360.282zM462.561 241.581c0 0-43.635-39.419-69.223.323C393.338 241.904 416.656 285.881 462.561 241.581z"/><path fill="#E27227" d="M363.697 175.871c0 0-21.241 55.165 25.278 64.851C388.976 240.722 421.83 202.968 363.697 175.871zM478.162 165.979c0 0-53.779-22.365-64.52 23.206C413.643 189.185 449.965 222.526 478.162 165.979zM423.867 74.58c0 0-34.752 46.741 6.848 68.225C430.715 142.805 471.878 115.664 423.867 74.58z"/><path fill="#F48634" d="M377.187 124.512c0 0-15.331 56.513 31.484 61.33C408.671 185.842 437.219 145.311 377.187 124.512zM299.761 426.32c-30.576-11.936-42.966-43.879-47.339-59.662.898-3.82 1.277-6.283 1.346-6.754.639-4.367-2.381-8.42-6.746-9.064-.984-.145-1.949-.096-2.867.104-.922-.205-1.895-.258-2.885-.113-4.371.64-7.397 4.701-6.758 9.074.068.471.447 2.934 1.346 6.754-4.373 15.783-16.763 47.727-47.339 59.662-4.116 1.605-6.149 6.245-4.543 10.361 1.233 3.16 4.255 5.092 7.454 5.092.968 0 1.951-.176 2.907-.549 26.477-10.336 41.489-31.924 49.803-50.271 8.313 18.348 23.326 39.936 49.803 50.271.956.373 1.939.549 2.907.549 3.199 0 6.221-1.933 7.454-5.092C305.91 432.565 303.877 427.926 299.761 426.32z"/><path fill="#E27227" d="M267.839,400.262c-8.457-12.139-13.081-25.175-15.417-33.604c0.898-3.82,1.277-6.283,1.346-6.754
				c0.178-1.215,0.063-2.402-0.275-3.503c-4.922,2.638-8.155,4.679-8.54,4.924l-0.818,0.521l-0.82-0.522
				c-0.384-0.245-3.614-2.283-8.528-4.918c-0.338,1.099-0.451,2.285-0.273,3.498c0.068,0.471,0.447,2.934,1.346,6.754
				c-2.348,8.472-7.01,21.597-15.548,33.786c11.992-8.312,20.298-13.119,23.815-18.558
				C247.623,387.302,255.893,392.001,267.839,400.262z"/><path fill="#F48634" d="M307.568,331.187c-3.437-1.349-7.367-2.032-11.684-2.032c-21.717,0-49.75,17.704-50.933,18.458
				l-0.818,0.521l-0.82-0.522c-1.183-0.754-29.216-18.459-50.933-18.459c-4.316,0-8.247,0.681-11.684,2.029
				c-14.961,5.871-21.258,24.662-18.7,39.443c2.626,15.185,13.651,24.9,28.772,25.375c0.447,0.015,0.897,0,1.342,0
				c0.002,0,0.002,0,0.004,0c27.18,0,46.175-25.679,52.01-34.701c5.818,9.008,24.824,34.744,52.029,34.744
				c0.443,0,0.895-0.007,1.342-0.021c15.121-0.475,26.146-10.201,28.772-25.385C328.826,355.855,322.529,337.058,307.568,331.187z
				 M192.113,380.043c-0.279,0-0.562-0.004-0.842-0.014c-9.483-0.297-12.58-6.755-13.509-12.121
				c-1.586-9.17,2.517-19.369,8.78-21.827c1.565-0.614,3.529-0.927,5.838-0.927c10.777,0,25.664,6.689,35.225,11.834
				C221.084,365.71,207.952,380.045,192.113,380.043z M310.503,367.908c-0.929,5.366-4.025,11.824-13.509,12.121
				c-16.373,0.51-29.777-14.15-36.363-23.024c9.562-5.148,24.466-11.851,35.254-11.851c2.309,0,4.272,0.312,5.838,0.927
				C307.986,348.539,312.089,358.738,310.503,367.908z"/><polygon fill="#FFF" fill-rule="evenodd" points="389.389 342.795 386.606 334.332 383.824 342.795 375.361 345.578 383.824 348.359 386.606 356.823 389.389 348.359 397.852 345.578" clip-rule="evenodd"/><polygon fill="#FFF" fill-rule="evenodd" points="107.389 208.795 104.606 200.332 101.824 208.795 93.361 211.578 101.824 214.359 104.606 222.823 107.389 214.359 115.852 211.578" clip-rule="evenodd"/><polygon fill="#FFF" fill-rule="evenodd" points="64.389 91.795 61.606 83.332 58.824 91.795 50.361 94.578 58.824 97.359 61.606 105.823 64.389 97.359 72.852 94.578" clip-rule="evenodd"/><polygon fill="#FFF" fill-rule="evenodd" points="419.957 307.998 423.04 298.621 432.418 295.537 423.04 292.454 419.957 283.076 416.874 292.454 407.496 295.537 416.874 298.621" clip-rule="evenodd"/><polygon fill="#FFF" fill-rule="evenodd" points="431.957 120.998 435.04 111.621 444.418 108.537 435.04 105.454 431.957 96.076 428.874 105.454 419.496 108.537 428.874 111.621" clip-rule="evenodd"/><polygon fill="#FFF" fill-rule="evenodd" points="74.246 302.576 76.658 295.239 83.996 292.826 76.658 290.414 74.246 283.076 71.834 290.414 64.496 292.826 71.834 295.239" clip-rule="evenodd"/><g><path fill="#E27227" d="M223.458,195.618c0,8.021,1.288,14.661,3.864,19.917c4.782,9.683,13.475,14.523,26.079,14.523
			c7.729,0,14.467-2.649,20.216-7.953c5.749-5.302,8.625-12.933,8.625-22.892c0-13.186-5.331-21.992-15.994-26.419
			c-6.069-2.489-15.628-3.734-28.682-3.734v-28.217c12.772-0.184,21.686-1.429,26.74-3.734c8.729-3.873,13.095-11.709,13.095-23.514
			c0-7.653-2.23-13.877-6.69-18.673c-4.461-4.794-10.739-7.192-18.831-7.192c-9.289,0-16.118,2.952-20.486,8.852
			c-4.37,5.902-6.462,13.787-6.276,23.652h-36.792c0.367-9.959,2.072-19.409,5.111-28.354c3.225-7.837,8.29-15.077,15.199-21.716
			c5.157-4.703,11.282-8.299,18.375-10.789c7.093-2.489,15.799-3.734,26.116-3.734c19.159,0,34.611,4.958,46.355,14.869
			c11.744,9.913,17.616,23.216,17.616,39.904c0,11.805-3.506,21.764-10.512,29.877c-4.427,5.072-9.038,8.53-13.832,10.373
			c3.596,0,8.76,3.091,15.491,9.268c10.05,9.315,15.077,22.04,15.077,38.176c0,16.968-5.874,31.882-17.618,44.746
			c-11.746,12.863-29.134,19.295-52.163,19.295c-28.372,0-48.087-9.268-59.14-27.802c-5.805-9.866-9.029-22.775-9.674-38.729
			H223.458z"/></g><g><path fill="#F48634" d="M210.994,195.618c0,8.021,1.288,14.661,3.864,19.917c4.782,9.683,13.475,14.523,26.079,14.523
			c7.729,0,14.467-2.649,20.216-7.953c5.749-5.302,8.625-12.933,8.625-22.892c0-13.186-5.331-21.992-15.994-26.419
			c-6.069-2.489-15.628-3.734-28.682-3.734v-28.217c12.772-0.184,21.686-1.429,26.74-3.734c8.729-3.873,13.095-11.709,13.095-23.514
			c0-7.653-2.23-13.877-6.69-18.673c-4.461-4.794-10.739-7.192-18.831-7.192c-9.289,0-16.118,2.952-20.486,8.852
			c-4.37,5.902-6.462,13.787-6.276,23.652h-36.792c0.367-9.959,2.072-19.409,5.111-28.354c3.225-7.837,8.29-15.077,15.199-21.716
			c5.157-4.703,11.282-8.299,18.375-10.789c7.093-2.489,15.799-3.734,26.116-3.734c19.159,0,34.611,4.958,46.355,14.869
			c11.744,9.913,17.616,23.216,17.616,39.904c0,11.805-3.506,21.764-10.512,29.877c-4.427,5.072-9.038,8.53-13.832,10.373
			c3.596,0,8.76,3.091,15.491,9.268c10.05,9.315,15.077,22.04,15.077,38.176c0,16.968-5.874,31.882-17.618,44.746
			c-11.746,12.863-29.134,19.295-52.163,19.295c-28.372,0-48.087-9.268-59.14-27.802c-5.805-9.866-9.029-22.775-9.674-38.729
			H210.994z"/></g><g opacity=".4"><path fill="#FFF" d="M248.81 89.083c3.731 1.175 6.891 3.103 9.438 5.84.082.089.15.186.231.275l26.402-26.402c-3.024-2.313-6.278-4.321-9.76-6.024L248.81 89.083zM288.753 72.053L261.47 99.336c.858 1.501 1.551 3.107 2.089 4.814l28.621-28.622C291.104 74.331 289.967 73.17 288.753 72.053zM306.828 175.849c-1.495-3.633-3.402-6.986-5.73-10.054l-31.372 31.372c.03.673.053 1.351.053 2.047 0 7.574-1.669 13.798-4.994 18.679L306.828 175.849zM258.017 224.66c-5.022 3.597-10.714 5.398-17.079 5.398-1.356 0-2.658-.067-3.924-.18l-27.275 27.275c3.849 1.434 7.981 2.562 12.408 3.376L258.017 224.66zM309.936 186.771c-.333-1.938-.76-3.812-1.273-5.628l-80.291 80.291c2.069.235 4.188.418 6.37.532L309.936 186.771z"/></g><polygon fill="#FFF" fill-rule="evenodd" points="303.103 94.214 299.863 84.365 296.627 94.214 286.776 97.452 296.627 100.69 299.863 110.539 303.103 100.69 312.951 97.452" clip-rule="evenodd"/><polygon fill="#FFF" fill-rule="evenodd" points="288.587 131.84 290.92 124.746 298.013 122.414 290.92 120.082 288.587 112.988 286.255 120.082 279.161 122.414 286.255 124.746" clip-rule="evenodd"/></svg>