<svg xmlns="http://www.w3.org/2000/svg" id="Layer_1" x="0" y="0" enable-background="new 0 0 70 70" version="1.1" viewBox="0 0 70 70" xml:space="preserve"><g id="_x37_3"><rect width="1.752" height="17.638" x="61.963" y="20.183" fill="#1d2943"/><path fill="#1d2943" d="M63.3840866,34.9096489l-5.5586395-0.7000771v10.8109436l5.5587692-0.7000771
				c1.0544205-0.1327667,1.8453674-1.0295181,1.8453674-2.092308v-5.2261734
				C65.2295837,35.939167,64.4386368,35.0424156,63.3840866,34.9096489z"/><path fill="#4c5c75" d="M58.299408,32.6860161l-1.9201584-0.8961067v15.6503181l1.9201584-0.8961258
				c0.593174-0.2768097,0.9723015-0.8721123,0.9723015-1.5266609V34.212677
				C59.2717094,33.5581284,58.8925819,32.9628258,58.299408,32.6860161z"/><path fill="#ffd06c" d="M50.5153809,20.8925838H9c-3.3137207,0-6,2.6862793-6,6v26.0975323c0,3.3137207,2.6862793,6,6,6h41.5153809
				c3.3137207,0,6-2.6862793,6-6V26.8925838C56.5153809,23.5788631,53.8291016,20.8925838,50.5153809,20.8925838z"/><path fill="#fff" d="M38.8304634,23.7412167c2.8886528-0.63554,8.0545845-0.6501713,10.9888535,0
				C46.6896019,24.4346924,41.5298386,24.3348179,38.8304634,23.7412167z"/><path fill="#febc1f" d="M9,58.9901161h41.5153809c3.3137207,0,6-2.6862793,6-6V26.8925838
					c0-1.7888794-0.7871094-3.3902588-2.0289307-4.489502C49.5822754,30.5286312,35.534668,48.3444862,3.7302246,55.8601112
					C4.7480469,57.7247963,6.7260742,58.9901161,9,58.9901161z"/><path fill="#fff" d="M8.6173153,57.2182922c2.6691875-0.5872574,7.8605137-0.6931725,10.9888535,0
				C16.4535942,57.916832,11.2711859,57.8018875,8.6173153,57.2182922z"/><path fill="#f3a250" d="M51.2982979,29.0323925c-0.7650108-1.6549854-2.4166718-2.7166805-4.2398682-2.7166805h-34.599823
				c-1.8227386,0-3.4737949,1.061182-4.239337,2.7153893C7.228972,31.1710434,6.20754,34.792202,6.20754,40.6255531
				c0,5.8321724,1.0202169,9.4530449,2.0095296,11.5931587c0.7650108,1.6549644,2.4166746,2.7166786,4.2399445,2.7166786h34.5997467
				c1.8227348,0,3.4738693-1.0611992,4.2393341-2.7153893c0.9902229-2.1399422,2.011734-5.7611008,2.011734-11.5944481
				C53.3078308,34.7933617,52.2876129,31.1725063,51.2982979,29.0323925z"/><path fill="#ef7b56" d="M47.0567474,54.9353943c1.8227386,0,3.4738693-1.0611992,4.2393379-2.7153893
					c0.9902229-2.1399422,2.0117302-5.7611008,2.0117302-11.5944481c0-5.8321915-1.0202179-9.4530468-2.0095291-11.5931606
					c-0.2422218-0.5240402-0.5738144-0.9880772-0.9711647-1.3782711
					C44.2639847,35.7016602,32.0080948,47.538311,9.5692463,53.9299278c0.807456,0.6372375,1.8171949,1.0054665,2.8877544,1.0054665
					H47.0567474z"/><path fill="#ffd06c" d="M29.7576332,11.0098829c-5.4580421,0-9.8826351,4.4246283-9.8826351,9.8826857
				c6.3631439,2.1190033,12.9436016,2.1940632,19.7653713,0C39.6403694,15.4345112,35.2157516,11.0098829,29.7576332,11.0098829z"/><circle cx="62.838" cy="19.08" r="4.161" fill="#f34b58"/><path fill="#e11226" d="M67,19.0813942c0,2.2952976-1.8629837,4.1582794-4.1613541,4.1582794
					c-2.1957893,0-3.9934692-1.7012463-4.1489792-3.8534889c0.54739,1.4773235,1.9687538,2.5316715,3.6357574,2.5316715
					c2.1398239,0,3.8721313-1.7323589,3.8721313-3.8721504c0-0.7713127-0.2239227-1.4897575-0.6126938-2.0900164
					C66.4526062,16.7176819,67,17.834219,67,19.0813942z"/><ellipse cx="62.838" cy="17.13" fill="#fa5f7f" rx="2.281" ry="1.544"/><path fill="#e3e7f0" d="M51.1315384,40.6258774c0,5.5920601-0.9859695,8.8950462-1.8101311,10.6802711
				c-0.4105606,0.883297-1.2969131,1.4524574-2.2642059,1.4524574H12.4566965c-0.9672928,0-1.8567553-0.5691605-2.264204-1.4524574
				c-0.8241615-1.7852249-1.8070202-5.0850983-1.8070202-10.6802711s0.9828587-8.8950615,1.810133-10.6802883
				c0.4074497-0.8832741,1.2969875-1.4524384,2.264204-1.4524384h34.597393c0.9672928,0,1.8567581,0.5691643,2.2642059,1.4524384
				C50.1486816,31.7308159,51.1315384,35.033802,51.1315384,40.6258774z"/><path fill="#c9cee2" d="M49.3214111,51.3061562c0.8240967-1.7852783,1.8101807-5.0882568,1.8101807-10.6802979
					c0-5.5921021-0.9829102-8.8950787-1.8101807-10.6802959c-0.0938721-0.2034912-0.2189941-0.385437-0.3590088-0.5524902
					c-6.0578613,7.4394512-17.036377,17.2665386-35.5811768,23.3655376h33.6759033
					C48.0244141,52.7586098,48.9108887,52.1894569,49.3214111,51.3061562z"/><path fill="#fff" d="M20.8280792 30.6698627h-8.3693323c-.1214905 0-.234477.0747166-.2879324.1901321-.734107 1.5860577-1.6091423 4.5677395-1.6091423 9.7654095 0 5.1979713.8744278 8.1799583 1.6082306 9.7663193.0531521.1151123.1658344.1895256.2870216.1895256h8.3706989c.3784428 0 .6696396-.3328056.6157284-.7074547-.2706966-1.8815079-.5297737-4.835247-.5297737-9.2483902 0-4.4117393.259306-7.3658371.5303059-9.2480507C21.4977951 31.0027084 21.2066727 30.6698627 20.8280792 30.6698627zM47.3462753 30.8596916c-.0534554-.1154175-.1664429-.1898289-.2879333-.1898289h-8.3703957c-.3785172 0-.6696396.3327694-.6158028.7073975.2706947 1.8821926.5295448 4.8363094.5295448 9.2481441 0 4.4105034-.259079 7.3652306-.5300789 9.2483902-.0539093.374649.2372856.7074547.6157303.7074547h8.3694839c.1214905 0 .234478-.0747147.2879333-.1901321.7338028-1.5860596 1.6088371-4.5680428 1.6088371-9.7657127C48.9535942 35.4283409 48.0794716 32.4460526 47.3462753 30.8596916zM34.9132347 30.6698627H24.6027889c-.3034229 0-.5640202.2177715-.6132984.5171509-.2893753 1.7568111-.5877876 4.7141743-.5877876 9.4383907 0 4.7261925.2978802 7.6827011.5871792 9.4387131.0492802.2993622.3098774.5171318.613224.5171318h10.3106747c.303421 0 .563942-.2178078.613224-.5172081.2893753-1.7575493.5875587-4.7153511.5875587-9.4386368 0-4.7244263-.2981071-7.6819992-.5869522-9.4382591C35.4773331 30.8877087 35.2167358 30.6698627 34.9132347 30.6698627z"/><path fill="#f8f9fe" d="M21.4433594 49.8737831c-.0085449-.0596924-.0169678-.130188-.0255127-.1920166-.6973877.3044434-1.4013672.6057739-2.1251221.8994751h1.5349121C21.2060547 50.5812416 21.4973145 50.2484169 21.4433594 49.8737831zM38.0715332 49.8737831c-.053833.3746338.2373047.7074585.6157227.7074585h8.3696289c.1213379 0 .234375-.074707.2878418-.1901245.7338867-1.5860596 1.6088867-4.5680542 1.6088867-9.7657471 0-4.9126587-.7800293-7.8296509-1.4849854-9.4759502-2.3270264 2.6476421-5.25354 5.5139141-8.8751221 8.3651104.0037842.3640137.0081787.7247925.0081787 1.1108398C38.6016846 45.0358925 38.3425293 47.9906044 38.0715332 49.8737831zM24.6020508 50.5812416h10.310791c.3033447 0 .5639648-.2178345.6131592-.5172119.2729492-1.65802.5506592-4.4041748.581543-8.6729126-3.5056152 2.5223389-7.5931396 4.9822998-12.3201904 7.2183838.0650635.5543213.1333008 1.0409546.2015381 1.4545898C24.0380859 50.3634682 24.2988281 50.5812416 24.6020508 50.5812416z"/><g><path fill="#5094ff" d="M29.1098118 38.7937012c.0552635-.6052475.1766872-1.5376968.2759914-2.028492 1.1106625-.0162277 2.0381393.0982552 2.9086456-.0329018.4185524-.0653381.6363258-1.6846313-.3420849-1.6521759-.9616718.0328979-1.8141308.0166702-3.1224174.0166702-1.0145092 0-1.4241314.3271866-1.5038109 1.0140343-.1547661 1.2596359-.3320446 2.9609413-.4117241 3.6477852-.108429.8999939 1.2003841.8999939 1.5962906.7688408 2.0903187-.7035027 2.3930893.8833389 2.264185 2.24123-.095171 1.0306854-.4929142 1.8157692-1.3940067 1.7995415-.8034286-.0166702-1.2714005-.6219177-1.2137089-1.5377121.0423355-.7364006-1.8627644-.981575-1.9574757-.2780571-.2248631 1.7175331.8924294 3.4350662 3.3118382 3.4188385 2.1263542 0 3.5788383-1.5377121 3.7773819-3.3535004C33.5606651 40.4783516 32.3048859 38.0086327 29.1098118 38.7937012zM43.2404633 38.7938538c.0552635-.6052475.1766891-1.5376968.2759933-2.028492 1.1106606-.0162315 2.0381393.0982513 2.9086456-.0329018.4185486-.0653381.6363258-1.6846352-.3420868-1.6521759-.9616699.0328979-1.8141289.0166702-3.1224174.0166702-1.0145073 0-1.4241295.3271866-1.5038109 1.0140305-.1547661 1.2596359-.3320427 2.9609413-.4117241 3.647789-.108429.8999939 1.200386.8999939 1.5962906.7688408 2.0903206-.7035027 2.3930893.8833389 2.2641869 2.2412262-.0951729 1.0306892-.4929161 1.815773-1.3940086 1.7995453-.8034286-.0166702-1.2714005-.6219177-1.213707-1.5377121.0423355-.7364006-1.8627663-.981575-1.9574776-.2780609-.2248611 1.7175331.8924294 3.4350662 3.3118401 3.4188385 2.1263542 0 3.5788383-1.5377121 3.7773819-3.3534966C47.6913185 40.4785042 46.4355392 38.0087852 43.2404633 38.7938538z"/><path fill="#497bfe" d="M45.6074219 38.8814735c.6120605.8078613.8374023 1.9498901.7124023 3.0662231-.1984863 1.8157959-1.651001 3.3535156-3.7773438 3.3535156-.6325684.0042725-1.1708984-.1148071-1.6246338-.3165283.5445557.7089233 1.4503174 1.1953735 2.7342529 1.1867676 2.1264648 0 3.5788574-1.5377197 3.7774658-3.3535156C47.6125488 41.1828651 47.0510254 39.488163 45.6074219 38.8814735zM31.4783115 38.8814735c.6120586.8078613.8374004 1.9498901.7124004 3.0662231-.1984844 1.8157959-1.6509991 3.3535156-3.7773418 3.3535156-.6325684.0042725-1.1708984-.1148071-1.6246338-.3165283.5445557.7089233 1.4503174 1.1953735 2.7342529 1.1867676 2.1264648 0 3.5788555-1.5377197 3.7774639-3.3535156C33.4834366 41.1828651 32.9219131 39.488163 31.4783115 38.8814735z"/><path fill="#5094ff" d="M14.9791584,38.7938538c0.0552645-0.6052475,0.1766872-1.5376968,0.2759924-2.028492
						c1.1106634-0.0162315,2.0381403,0.0982513,2.9086466-0.0329018c0.4185505-0.0653381,0.6363239-1.6846352-0.3420849-1.6521759
						c-0.9616737,0.0328979-1.8141308,0.0166702-3.1224184,0.0166702c-1.0145082,0-1.4241314,0.3271866-1.5038118,1.0140305
						c-0.1547651,1.2596359-0.3320436,2.9609413-0.4117231,3.647789c-0.108428,0.8999939,1.2003841,0.8999939,1.5962896,0.7688408
						c2.0903206-0.7035027,2.3930912,0.8833389,2.264185,2.2412262c-0.0951691,1.0306892-0.4929123,1.815773-1.3940058,1.7995453
						c-0.8034286-0.0166702-1.2714005-0.6219177-1.2137079-1.5377121c0.0423336-0.7364006-1.8627663-0.981575-1.9574766-0.2780609
						c-0.2248621,1.7175331,0.8924294,3.4350662,3.3118391,3.4188385c2.1263523,0,3.5788383-1.5377121,3.7773819-3.3534966
						C19.4300137,40.4785042,18.1742344,38.0087852,14.9791584,38.7938538z"/><path fill="#497bfe" d="M17.3491993,38.8814735c0.6120605,0.8078613,0.8374023,1.9498901,0.7124023,3.0662231
						c-0.1984863,1.8157959-1.651001,3.3535156-3.7773428,3.3535156c-0.6325684,0.0042725-1.1708984-0.1148071-1.6246338-0.3165283
						c0.5445557,0.7089233,1.4503174,1.1953735,2.7342529,1.1867676c2.1264639,0,3.5788565-1.5377197,3.7774649-3.3535156
						C19.3543262,41.1828651,18.7928028,39.488163,17.3491993,38.8814735z"/></g><g><path fill="#f34b58" d="M34.6628265,17.9590855c0.2861176-0.2757034,0.132-0.7599449-0.2609444-0.8193741l-2.6583138-0.4023151
						c-0.1559944-0.0236111-0.2904301-0.1225071-0.3594208-0.2644196l-1.1757011-2.4178705
						c-0.1737289-0.357439-0.6819134-0.3604126-0.8598843-0.0050592l-1.2040768,2.4038391
						c-0.070591,0.141077-0.2062073,0.2383919-0.3625507,0.2601604l-2.6628342,0.3709145
						c-0.3935699,0.0548038-0.5534592,0.5372009-0.2705402,0.8162613l1.914156,1.8879719
						c0.1123199,0.1108055,0.1630192,0.2698269,0.1354084,0.4252129l-0.4700718,2.6471348
						c-0.0695477,0.3912907,0.33988,0.6923618,0.6926937,0.5095387l2.3870087-1.2370243
						c0.1401386-0.0726585,0.3070526-0.0716515,0.4462872,0.002573l2.3723354,1.2651043
						c0.3505898,0.1870308,0.7634926-0.1092415,0.6986046-0.5012989l-0.4388466-2.6525059
						c-0.0257301-0.1557178,0.0267067-0.3140945,0.1403465-0.4235783L34.6628265,17.9590855z"/><path fill="#fe90a9" d="M29.34482,16.6894608c0.1452789-0.0290298,0.1044083,1.1357555-0.9190102,1.5016022
						c-1.0229359,0.3676529-1.7917118-0.5069027-1.6611595-0.5768242c0.0710201-0.0802212,0.723938,0.2082195,1.4591942-0.0852871
						C28.9781094,17.288578,29.2390995,16.672596,29.34482,16.6894608z"/></g><path fill="#f34b58" d="M11.3166504,40.7861977l-5.2996826-2.3748779c-0.2628174-0.1177368-0.5643311,0.0615234-0.5738525,0.3493652
			c-0.0185547,0.5692139-0.0285645,1.1588135-0.0285645,1.7699585c0,1.1723022,0.0375977,2.2622681,0.1037598,3.2817993
			c0.0180664,0.2814941,0.314209,0.4536133,0.5717773,0.3382568l5.2265625-2.3421021
			C11.7581787,41.6107216,11.7581787,40.9840126,11.3166504,40.7861977z"/><g><path fill="#e11226" d="M6.0900879,44.1506996l5.2265625-2.3421021c0.4415283-0.197876,0.4415283-0.824585,0-1.0223999
				l-0.5449219-0.2442017c-0.7263184,0.5325317-3.5288086,2.4559326-5.3225098,1.8441772
				c0.0174561,0.4887695,0.0393066,0.9671631,0.0690918,1.4262695C5.536377,44.0939369,5.8325195,44.2660561,6.0900879,44.1506996z"/></g></g></svg>