<svg xmlns="http://www.w3.org/2000/svg" xmlns:xlink="http://www.w3.org/1999/xlink" enable-background="new 0 0 850 850" viewBox="0 0 850 850"><path fill="#ffded0" d="M357.64,517.82h-64.19c-12.9,0-23.36-10.46-23.36-23.36l0,0h110.9l0,0   C380.99,507.36,370.54,517.82,357.64,517.82z"/><path fill="#ffded0" d="M470.3,419.68h-14.39v-10.54h14.39c2.53,0,4.65-1.81,5.04-4.31l10.77-68.3l10.41,1.64l-10.77,68.3    C484.55,414.13,478.05,419.68,470.3,419.68z"/><path fill="#ffe8de" d="M390.93,339.46c0-33.52-28.39-60.7-63.41-60.7c-35.02,0-63.41,27.18-63.41,60.7H390.93z"/><line x1="377.95" x2="377.95" y1="340.7" y2="340.7" fill="none" stroke="#f6d46c" stroke-linecap="round" stroke-miterlimit="10" stroke-width="6"/><path fill="none" stroke="#f6d46c" stroke-dasharray="0 12.217" stroke-linecap="round" stroke-miterlimit="10" stroke-width="6" d="M376.51,328.6c-5.4-22.15-25.28-38.59-48.99-38.59c-25.8,0-47.07,19.47-50.07,44.59"/><line x1="277.08" x2="277.08" y1="340.7" y2="340.7" fill="none" stroke="#f6d46c" stroke-linecap="round" stroke-miterlimit="10" stroke-width="6"/><line x1="289.69" x2="371.65" y1="340.7" y2="340.7" fill="none" stroke="#f6d46c" stroke-dasharray="0 12.609" stroke-linecap="round" stroke-miterlimit="10" stroke-width="6"/><path fill="#fff" d="M308.1,302.64l0.99,5.36l-1.41,0.66l-2.23-2.79l0.68,3.51l-1.41,0.66l-3.44-4.21l1.25-0.58l2.31,3.16    l-0.77-3.87l1.28-0.6l2.44,3.09l-0.93-3.8L308.1,302.64z"/><path fill="#fff" d="M313.04,302.24l0.28,1.03l1.66-0.46l0.26,0.96l-1.66,0.46l0.3,1.12l1.88-0.51l0.27,0.99l-3.11,0.86l-1.4-5.08    l3.11-0.85l0.27,0.99L313.04,302.24z"/><path fill="#fff" d="M320.03,304.07l1.66-0.24l0.15,0.98l-2.94,0.43l-0.76-5.22l1.27-0.19L320.03,304.07z"/><path fill="#fff" d="M324.6,300.51c0.22-0.41,0.53-0.73,0.93-0.96c0.4-0.23,0.86-0.35,1.37-0.35c0.63-0.01,1.16,0.15,1.61,0.48    c0.45,0.33,0.75,0.77,0.91,1.34l-1.41,0.01c-0.11-0.22-0.26-0.39-0.45-0.5c-0.19-0.11-0.41-0.17-0.66-0.17    c-0.39,0-0.71,0.14-0.96,0.42c-0.24,0.28-0.36,0.65-0.36,1.11c0,0.46,0.13,0.83,0.38,1.1c0.25,0.27,0.57,0.41,0.97,0.4    c0.24,0,0.46-0.06,0.65-0.18c0.19-0.12,0.34-0.29,0.44-0.51l1.41-0.01c-0.14,0.57-0.44,1.02-0.88,1.36    c-0.44,0.33-0.98,0.5-1.6,0.51c-0.51,0.01-0.97-0.11-1.37-0.33c-0.41-0.22-0.72-0.54-0.95-0.94c-0.23-0.4-0.35-0.87-0.35-1.39    C324.27,301.38,324.38,300.92,324.6,300.51z"/><path fill="#fff" d="M333.44,304.59c-0.37-0.29-0.65-0.66-0.83-1.1c-0.18-0.44-0.23-0.92-0.15-1.43c0.08-0.51,0.27-0.95,0.57-1.32    c0.3-0.37,0.67-0.64,1.12-0.8c0.44-0.17,0.91-0.21,1.4-0.14c0.49,0.07,0.92,0.26,1.3,0.55c0.37,0.29,0.65,0.66,0.82,1.1    c0.17,0.44,0.22,0.92,0.14,1.43c-0.08,0.51-0.27,0.95-0.57,1.32c-0.3,0.37-0.67,0.64-1.11,0.81c-0.44,0.17-0.91,0.21-1.4,0.14    C334.25,305.06,333.82,304.88,333.44,304.59z M335.98,303.71c0.29-0.24,0.47-0.59,0.54-1.04c0.07-0.46,0-0.85-0.21-1.16    c-0.21-0.31-0.52-0.5-0.94-0.56c-0.42-0.06-0.78,0.02-1.07,0.26c-0.29,0.23-0.47,0.58-0.54,1.05c-0.07,0.46,0,0.85,0.21,1.16    c0.21,0.31,0.52,0.5,0.94,0.56C335.33,304.04,335.69,303.95,335.98,303.71z"/><path fill="#fff" d="M347.46,303.01l-1.68,5l-1.22-0.41l1.01-3l-2.12,2.62l-0.98-0.33l-0.12-3.38l-1.01,3l-1.22-0.41l1.68-5    l1.44,0.48l0.24,3.93l2.55-2.99L347.46,303.01z"/><path fill="#fff" d="M351.57,306.11l-0.5,0.94l1.52,0.8l-0.46,0.88l-1.52-0.8l-0.54,1.02l1.72,0.9l-0.48,0.91l-2.86-1.5l2.45-4.67    l2.86,1.5l-0.48,0.91L351.57,306.11z"/><path fill="#f6d46c" d="M427.61,348.89H223.48v-11.18c0-8.12,6.58-14.7,14.7-14.7h174.73c8.12,0,14.7,6.58,14.7,14.7V348.89z"/><path fill="#ffe8de" d="M411.01,502.47H240.07c-16.08,0-29.12-13.04-29.12-29.12V365.12c0-16.08,13.04-29.12,29.12-29.12h170.95   c16.08,0,29.12,13.04,29.12,29.12v108.23C440.13,489.43,427.1,502.47,411.01,502.47z"/><g><defs><rect id="a" width="204.13" height="139.6" x="223.48" y="348.89"/></defs><clipPath id="b"><use overflow="visible" xlink:href="#a"/></clipPath><rect width="204.13" height="139.6" x="223.48" y="348.89" fill="#fff" clip-path="url(#b)"/><path fill="#e5b06a" d="M277.05,392.96h-6.41c-0.71,1.17-1.47,2.5-2.5,3.39    c-1.03,0.89-2.3,1.55-3.66,1.7c-1.33,0.14-2.67-0.21-3.9-0.74c-1.23-0.53-2.37-1.23-3.57-1.83c-2.18-1.1-4.57-1.86-7.02-1.91    c-1.89-0.04-3.82,0.39-5.46,1.31v-2.66h-5.93v16.44h5.93v-2.81c1.74-2.2,4.61-3.5,7.41-3.21c3.47,0.35,6.33,2.8,9.62,3.95    c2.58,0.9,5.43,0.98,8.06,0.23c0.3-0.08,0.59-0.18,0.88-0.29c-1.42,2.3-3.83,4.53-7.75,6.35l0,0    c-18.05,7.99-19.56,28.05-19.56,28.05h20.71c-4.47-16.63,3.37-24.75,6.83-27.42c1.82-1.4,3.43-3.06,4.66-4.99    C277.76,404.83,280.1,399,277.05,392.96z" clip-path="url(#b)"/><path fill="#e5b06a" d="M411.85,392.96h-6.41c-0.71,1.17-1.47,2.5-2.5,3.39    c-1.03,0.89-2.3,1.55-3.66,1.7c-1.33,0.14-2.67-0.21-3.9-0.74c-1.23-0.53-2.37-1.23-3.57-1.83c-2.18-1.1-4.57-1.86-7.02-1.91    c-1.89-0.04-3.82,0.39-5.46,1.31v-2.66h-5.93v16.44h5.93v-2.81c1.74-2.2,4.61-3.5,7.41-3.21c3.47,0.35,6.33,2.8,9.62,3.95    c2.58,0.9,5.43,0.98,8.06,0.23c0.3-0.08,0.59-0.18,0.88-0.29c-1.42,2.3-3.83,4.53-7.75,6.35l0,0    c-18.05,7.99-19.56,28.05-19.56,28.05h20.71c-4.47-16.63,3.37-24.75,6.83-27.42c1.82-1.4,3.43-3.06,4.66-4.99    C412.56,404.83,414.91,399,411.85,392.96z" clip-path="url(#b)"/><path fill="#e5b06a" d="M344.45,392.96h-6.41c-0.71,1.17-1.47,2.5-2.5,3.39    c-1.03,0.89-2.3,1.55-3.66,1.7c-1.33,0.14-2.67-0.21-3.9-0.74c-1.23-0.53-2.37-1.23-3.57-1.83c-2.18-1.1-4.57-1.86-7.02-1.91    c-1.89-0.04-3.82,0.39-5.46,1.31v-2.66H306v16.44h5.93v-2.81c1.74-2.2,4.61-3.5,7.41-3.21c3.47,0.35,6.33,2.8,9.62,3.95    c2.58,0.9,5.43,0.98,8.06,0.23c0.3-0.08,0.59-0.18,0.88-0.29c-1.42,2.3-3.83,4.53-7.75,6.35l0,0    c-18.05,7.99-19.56,28.05-19.56,28.05h20.71c-4.47-16.63,3.37-24.75,6.83-27.42c1.82-1.4,3.43-3.06,4.66-4.99    C345.16,404.83,347.5,399,344.45,392.96z" clip-path="url(#b)"/><g clip-path="url(#b)"><circle cx="241.28" cy="490.4" r="8.59" fill="#e5b06a" transform="rotate(-76.714 241.315 490.43)"/><circle cx="263.13" cy="499.95" r="8.59" fill="#e5b06a" transform="rotate(-82.981 263.134 499.952)"/><path fill="none" stroke="#ffded0" stroke-linecap="round" stroke-linejoin="round" stroke-miterlimit="10" stroke-width="4" d="M242.18,487.89c0,0,21.07-2.89,18.76-27.34c0,0,11.25,16.23,3.62,36.09"/><path fill="#ab9c83" d="M251.29,460.55c-3.14,0-5.93,1.51-7.68,3.85c1.75,2.34,4.53,3.85,7.68,3.85c3.14,0,5.93-1.51,7.68-3.85     C257.22,462.06,254.43,460.55,251.29,460.55z"/></g><g clip-path="url(#b)"><circle cx="312.78" cy="490.4" r="8.59" fill="#e5b06a" transform="rotate(-76.714 312.818 490.428)"/><circle cx="334.62" cy="499.95" r="8.59" fill="#e5b06a" transform="rotate(-76.714 334.663 499.974)"/><path fill="none" stroke="#ffded0" stroke-linecap="round" stroke-linejoin="round" stroke-miterlimit="10" stroke-width="4" d="M313.68,487.89c0,0,21.07-2.89,18.76-27.34c0,0,11.25,16.23,3.62,36.09"/><path fill="#ab9c83" d="M322.79,460.55c-3.14,0-5.93,1.51-7.68,3.85c1.75,2.34,4.53,3.85,7.68,3.85c3.14,0,5.93-1.51,7.68-3.85     C328.72,462.06,325.93,460.55,322.79,460.55z"/></g><g clip-path="url(#b)"><circle cx="384.28" cy="490.4" r="8.59" fill="#e5b06a" transform="rotate(-85.268 384.288 490.399)"/><circle cx="406.12" cy="499.95" r="8.59" fill="#e5b06a" transform="rotate(-13.286 406.028 499.86)"/><path fill="none" stroke="#ffded0" stroke-linecap="round" stroke-linejoin="round" stroke-miterlimit="10" stroke-width="4" d="M385.18,487.89c0,0,21.07-2.89,18.76-27.34c0,0,11.25,16.23,3.62,36.09"/><path fill="#ab9c83" d="M394.29,460.55c-3.14,0-5.93,1.51-7.68,3.85c1.75,2.34,4.53,3.85,7.68,3.85c3.14,0,5.93-1.51,7.68-3.85     C400.22,462.06,397.43,460.55,394.29,460.55z"/></g><path fill="#ffded0" d="M277.23,352.08c0.01-5.19-3.99-9.44-9.07-9.84    c0.18-0.74,0.27-1.5,0.28-2.3c0.01-5.45-4.4-9.87-9.84-9.88c-5.45-0.01-9.87,4.4-9.88,9.84c0,0.79,0.09,1.56,0.27,2.3    c-5.09,0.38-9.1,4.62-9.11,9.81c-0.01,5.45,4.4,9.87,9.84,9.88c1.49,0,2.9-0.33,4.16-0.91l-4.8,6.72l18.9,0.04l-4.77-6.74    c1.26,0.59,2.67,0.92,4.16,0.93C272.8,361.93,277.22,357.53,277.23,352.08z" clip-path="url(#b)"/><path fill="#ffded0" d="M348.36,352.08c0.01-5.19-3.99-9.44-9.07-9.84    c0.18-0.74,0.27-1.5,0.28-2.3c0.01-5.45-4.4-9.87-9.84-9.88c-5.45-0.01-9.87,4.4-9.88,9.84c0,0.79,0.09,1.56,0.27,2.3    c-5.09,0.38-9.1,4.62-9.11,9.81c-0.01,5.45,4.4,9.87,9.84,9.88c1.49,0,2.9-0.33,4.16-0.91l-4.8,6.72l18.9,0.04l-4.77-6.74    c1.26,0.59,2.67,0.92,4.16,0.93C343.92,361.93,348.35,357.53,348.36,352.08z" clip-path="url(#b)"/><path fill="#ffded0" d="M419.48,352.08c0.01-5.19-3.99-9.44-9.07-9.84    c0.18-0.74,0.27-1.5,0.28-2.3c0.01-5.45-4.4-9.87-9.84-9.88c-5.45-0.01-9.87,4.4-9.88,9.84c0,0.79,0.09,1.56,0.27,2.3    c-5.09,0.38-9.1,4.62-9.11,9.81c-0.01,5.45,4.4,9.87,9.84,9.88c1.49,0,2.9-0.33,4.16-0.91l-4.8,6.72l18.9,0.04l-4.77-6.74    c1.26,0.59,2.67,0.92,4.16,0.93C415.05,361.93,419.47,357.53,419.48,352.08z" clip-path="url(#b)"/><g clip-path="url(#b)"><line x1="291.93" x2="290.72" y1="348.89" y2="488.48" fill="none" stroke="#ffe8de" stroke-miterlimit="10" stroke-width="4"/><line x1="362.13" x2="360.92" y1="348.89" y2="488.48" fill="none" stroke="#ffe8de" stroke-miterlimit="10" stroke-width="4"/></g></g><path fill="#ffe8de" d="M455.91,433.27L455.91,433.27v-34.97l0,0c6.8,0,12.31,5.51,12.31,12.31v10.35   C468.23,427.75,462.71,433.27,455.91,433.27z"/><circle cx="492.2" cy="332.65" r="9.12" fill="#e5b06a" transform="rotate(-18.432 492.262 332.66)"/><path fill="none" stroke="#fff" stroke-linecap="round" stroke-linejoin="round" stroke-miterlimit="10" d="M497.99,332.65c0-3.2-2.59-5.79-5.79-5.79c-3.2,0-5.79,2.59-5.79,5.79c0,3.2,2.59,5.79,5.79,5.79   C495.4,338.44,497.99,335.84,497.99,332.65z"/><path fill="#f6d46c" d="M440.73,442.86L440.73,442.86V388.7l0,0c10.53,0,19.07,8.54,19.07,19.07v16.02   C459.8,434.32,451.26,442.86,440.73,442.86z"/><g><circle cx="470.71" cy="558.31" r="44.42" fill="#ad9e85" transform="rotate(-17.312 470.78 558.343)"/><path fill="#ffded0" d="M506.09,548.75c-0.58-2.13-1.34-4.16-2.25-6.09L484.08,548l10.19-17.74c-3.33-2.79-7.12-4.97-11.21-6.44     l-10.19,17.74l-5.34-19.76c-2.12,0.19-4.26,0.55-6.39,1.12c-2.13,0.58-4.16,1.34-6.09,2.25l5.34,19.76l-17.74-10.19     c-2.79,3.33-4.97,7.12-6.44,11.21l17.74,10.19l-19.76,5.34c0.19,2.12,0.55,4.26,1.12,6.39c0.58,2.13,1.34,4.16,2.25,6.09     l19.76-5.34l-10.19,17.74c3.33,2.79,7.12,4.97,11.21,6.44l10.19-17.74l5.34,19.76c2.12-0.19,4.26-0.55,6.39-1.12     c2.13-0.58,4.16-1.34,6.09-2.25l-5.34-19.76l17.74,10.19c2.79-3.33,4.97-7.12,6.44-11.21l-17.74-10.19l19.76-5.34     C507.03,553.01,506.67,550.88,506.09,548.75z"/><path fill="#d2cac7" d="M481.58,598.49c-22.15,5.99-45.05-7.16-51.04-29.31c-5.99-22.15,7.16-45.05,29.31-51.04      c22.15-5.99,45.05,7.16,51.04,29.31C516.88,569.6,503.73,592.5,481.58,598.49z M461.15,522.94      c-19.51,5.27-31.09,25.44-25.81,44.94c5.27,19.51,25.44,31.09,44.94,25.81c19.51-5.27,31.09-25.44,25.81-44.94      C500.82,529.24,480.65,517.66,461.15,522.94z"/><circle cx="470.71" cy="558.31" r="26.49" fill="#fff" transform="rotate(-56.324 470.677 558.287)"/><circle cx="470.71" cy="558.31" r="20.27" fill="#d2cac7" transform="rotate(-52.239 470.687 558.287)"/></g></svg>