<svg xmlns="http://www.w3.org/2000/svg" enable-background="new 0 0 850 850" viewBox="0 0 850 850"><circle cx="283.66" cy="523.52" r="1.88" fill="#fffefe"/><circle cx="460.81" cy="303.07" r="43.2" fill="#f3e8d8" transform="rotate(-75.137 460.83 303.082)"/><circle cx="460.81" cy="303.07" r="37.36" fill="#f7d77a" transform="rotate(-24.325 460.824 303.08)"/><path fill="#f3e8d8" d="M448.19,298.4c2.21-0.9,5.56-1.12,10.07-0.66c0.94,0.1,2.23,0.25,3.87,0.46         c5.32,0.67,8.5,0.05,9.56-1.88c0.68-1.24,0.77-2.47,0.27-3.68c-0.5-1.21-1.52-2.24-3.07-3.09c-1.6-0.88-3.16-1.22-4.67-1.04         c-1.52,0.18-3.14,0.9-4.87,2.17l-5.19-5.93c2.51-2.19,5.22-3.4,8.14-3.62c1.91-0.14,3.9,0.14,5.95,0.86l2.75-5.02l6.33,3.46         l-2.75,5.04c2.05,1.65,3.51,3.58,4.38,5.78c1.24,3.17,1.03,6.29-0.65,9.35c-0.99,1.81-2.26,3.21-3.81,4.23         c-1.55,1.01-3.3,1.58-5.25,1.71c-1.99,0.15-5.22-0.11-9.69-0.79c-0.65-0.11-1.15-0.19-1.5-0.23         c-2.56-0.38-4.46-0.4-5.71-0.05c-1.25,0.34-2.2,1.1-2.84,2.28c-0.81,1.48-0.9,2.96-0.27,4.43c0.63,1.47,1.9,2.73,3.81,3.78         c1.69,0.92,3.4,1.26,5.14,1c1.74-0.25,3.67-1.12,5.78-2.6l4.91,6.44c-2.88,2.32-5.96,3.58-9.22,3.78         c-1.97,0.12-3.99-0.14-6.05-0.79l-2.96,5.4l-6.33-3.46l2.83-5.18c-2.7-1.91-4.53-4.15-5.47-6.73         c-1.2-3.27-0.84-6.66,1.08-10.16C444.17,301.05,445.99,299.3,448.19,298.4z"/><path fill="#d8871e" d="M462.07,346.51c-7.64,0.24-15.23-1.57-22.11-5.33c-0.12-0.07-0.16-0.22-0.1-0.34         c0.07-0.12,0.22-0.16,0.34-0.1c10.06,5.5,21.67,6.76,32.68,3.54c11.01-3.22,20.1-10.54,25.61-20.61         c11.36-20.78,3.71-46.93-17.07-58.29c-0.12-0.07-0.16-0.22-0.1-0.34c0.07-0.12,0.22-0.16,0.34-0.1         c21.02,11.5,28.77,37.95,17.27,58.96c-5.57,10.18-14.77,17.59-25.91,20.85C469.41,345.82,465.73,346.4,462.07,346.51z"/><path fill="#d8871e" d="M442.89,336.1c-0.04,0-0.09-0.01-0.13-0.03c-18.19-9.95-24.9-32.85-14.95-51.04         c9.95-18.19,32.85-24.9,51.04-14.95c0.12,0.07,0.16,0.22,0.1,0.34c-0.07,0.12-0.22,0.16-0.34,0.1         c-8.7-4.76-18.73-5.84-28.24-3.06c-9.51,2.79-17.37,9.11-22.13,17.81c-9.82,17.95-3.2,40.55,14.75,50.37         c0.12,0.07,0.16,0.22,0.1,0.34C443.05,336.05,442.97,336.09,442.89,336.1z"/><path fill="#d8871e" d="M493.96,296.38c-0.01,0-0.02,0-0.03,0c-0.14-0.01-0.24-0.13-0.23-0.27c0.01-0.08,0.57-7.75-4.24-13.18         c-0.09-0.1-0.08-0.26,0.02-0.35c0.1-0.09,0.26-0.08,0.35,0.02c4.94,5.6,4.36,13.47,4.36,13.55         C494.19,296.28,494.08,296.38,493.96,296.38z"/><path fill="#d8871e" d="M489.65,297.16c-0.01,0-0.02,0-0.03,0c-0.14-0.01-0.24-0.13-0.23-0.27c0.01-0.08,0.57-7.75-4.24-13.18         c-0.09-0.1-0.08-0.26,0.02-0.35c0.1-0.09,0.26-0.08,0.35,0.02c4.94,5.6,4.36,13.47,4.36,13.55         C489.88,297.06,489.77,297.15,489.65,297.16z"/><path fill="#d8871e" d="M478.94,291.48c-0.1,0-0.2-0.06-0.24-0.16c-0.84-2.15-2.29-4.06-4.3-5.68l-0.16-0.13l2.86-5.22         c0.07-0.12,0.22-0.16,0.34-0.1c0.12,0.07,0.16,0.22,0.1,0.34l-2.66,4.86c2,1.64,3.44,3.58,4.29,5.75         c0.05,0.13-0.01,0.27-0.14,0.32C479,291.47,478.97,291.48,478.94,291.48z"/><path fill="#d8871e" d="M471.69,296.56c-0.04,0-0.09-0.01-0.13-0.03c-0.12-0.07-0.16-0.22-0.1-0.34         c0.65-1.18,0.73-2.32,0.26-3.47c-0.47-1.15-1.47-2.15-2.96-2.97c-1.55-0.85-3.07-1.19-4.52-1.02         c-1.46,0.17-3.06,0.89-4.75,2.12l-0.18,0.13l-5.5-6.28l0.19-0.16c2.54-2.22,5.32-3.46,8.28-3.68         c1.94-0.15,3.97,0.15,6.05,0.87c0.13,0.05,0.2,0.19,0.15,0.32c-0.04,0.13-0.19,0.2-0.32,0.15c-2.01-0.7-3.98-0.98-5.85-0.84         c-2.78,0.21-5.4,1.35-7.8,3.39l4.88,5.57c1.69-1.2,3.31-1.9,4.8-2.08c1.56-0.18,3.18,0.18,4.82,1.07         c1.59,0.87,2.67,1.95,3.18,3.22c0.53,1.28,0.43,2.59-0.29,3.9C471.86,296.51,471.78,296.56,471.69,296.56z"/><path fill="#d8871e" d="M444.31,325.98c-0.04,0-0.09-0.01-0.13-0.03c-0.12-0.07-0.16-0.22-0.1-0.34l2.73-4.99         c-2.63-1.91-4.44-4.17-5.38-6.72c-1.22-3.32-0.85-6.81,1.09-10.37c0.07-0.12,0.22-0.16,0.34-0.1         c0.12,0.07,0.16,0.22,0.1,0.34c-1.87,3.43-2.23,6.78-1.06,9.96c0.92,2.51,2.73,4.74,5.38,6.61l0.18,0.13l-2.94,5.37         C444.48,325.93,444.4,325.97,444.31,325.98z"/><path fill="#d8871e" d="M459.16,324.84c-1.84,0.06-3.74-0.22-5.65-0.82c-0.13-0.04-0.2-0.18-0.16-0.31         c0.04-0.13,0.18-0.2,0.31-0.16c2.02,0.64,4.02,0.9,5.96,0.78c3.13-0.2,6.12-1.4,8.9-3.58l-4.62-6.06         c-2.06,1.41-3.98,2.25-5.7,2.5c-1.79,0.26-3.57-0.09-5.3-1.03c-1.95-1.07-3.27-2.38-3.92-3.9c-0.66-1.54-0.57-3.11,0.28-4.65         c0.67-1.23,1.68-2.04,2.99-2.4c0.13-0.03,0.27,0.04,0.31,0.17c0.04,0.13-0.04,0.27-0.17,0.31c-1.18,0.32-2.08,1.05-2.69,2.16         c-0.78,1.42-0.86,2.8-0.26,4.22c0.61,1.42,1.85,2.65,3.7,3.66c1.63,0.89,3.31,1.22,4.99,0.98c1.7-0.25,3.61-1.11,5.68-2.55         l0.2-0.14l5.2,6.82l-0.19,0.15c-2.91,2.34-6.06,3.63-9.36,3.84C459.49,324.83,459.33,324.84,459.16,324.84z"/><circle cx="396.94" cy="432.94" r="125.45" fill="#fbf8f3"/><circle cx="396.93" cy="432.93" r="116.08" fill="#ffece4"/><path fill="#e8b87a" d="M475.57,347.53c-23.16-21.3-54.85-33.17-88.67-30.23l10.06,115.55L475.57,347.53z"/><path fill="#ffe5da" d="M318.32,518.31c23.16,21.3,54.85,33.17,88.67,30.23l-10.06-115.55L318.32,518.31z" opacity=".5"/><path fill="#ffe5da" d="M512.56,422.87l-115.55,10.06l85.32,78.61C503.64,488.38,515.51,456.69,512.56,422.87z" opacity=".5"/><path fill="#ffe5da" d="M311.55,354.29c-21.3,23.16-33.17,54.85-30.23,88.67l115.55-10.06L311.55,354.29z" opacity=".5"/><path fill="#fff" d="M408.82,408.48c0.5-0.05,0.9-0.2,1.21-0.45c0.31-0.25,0.54-0.63,0.69-1.13c0.18-0.6,0.14-1.08-0.14-1.44         c-0.27-0.35-0.88-0.67-1.81-0.95l-9.29-2.81l0.35-1.16l9.52,2.88c1.08,0.33,1.81,0.81,2.19,1.44         c0.39,0.64,0.43,1.44,0.14,2.42c-0.2,0.67-0.52,1.19-0.95,1.57c-0.43,0.37-0.99,0.62-1.69,0.73L408.82,408.48z"/><path fill="#fff" d="M412.89,402.53l-11.33-7.7l0.47-1.56l13.69-0.14l-0.36,1.19l-4.48,0.01l-1.38,4.57l3.72,2.49         L412.89,402.53z M408.6,398.3l1.2-3.97l-7.19-0.02L408.6,398.3z"/><path fill="#fff" d="M415.03,381.83c1.26,0.69,2.11,1.49,2.55,2.39c0.44,0.9,0.49,1.93,0.15,3.08         c-0.46,1.51-1.38,2.5-2.77,2.98c-1.39,0.48-3.14,0.39-5.25-0.24c-2.04-0.62-3.49-1.5-4.34-2.66c-0.85-1.15-1.05-2.49-0.6-4         c0.32-1.07,0.88-1.85,1.67-2.35c0.79-0.5,1.85-0.74,3.17-0.71l-0.07,1.15c-1.07,0.02-1.91,0.22-2.52,0.59         c-0.62,0.37-1.04,0.93-1.27,1.69c-0.33,1.1-0.12,2.09,0.65,2.97c0.76,0.88,2.02,1.59,3.76,2.11         c1.74,0.52,3.18,0.62,4.34,0.29c1.16-0.33,1.9-1.06,2.24-2.18c0.25-0.83,0.19-1.59-0.17-2.28c-0.37-0.68-1.06-1.31-2.07-1.88         L415.03,381.83z"/><path fill="#fff" d="M419.48,380.73l-12.51-3.78l0.35-1.16l6.76,2.04l-5.07-7.63l0.44-1.47l3.57,5.46l9.08-2.17l-0.39,1.3         l-8,1.95l1.95,3.04l4.16,1.26L419.48,380.73z"/><path fill="#fff" d="M411.13,363.18c0.45-1.48,1.08-2.51,1.88-3.08c0.81-0.57,1.79-0.68,2.94-0.34         c1.16,0.35,1.92,0.97,2.29,1.87c0.37,0.89,0.35,2.05-0.08,3.46l-0.69,2.28l5.54,1.67l-0.35,1.16l-12.51-3.78L411.13,363.18z          M416.43,367.05l0.77-2.56c0.27-0.89,0.26-1.64-0.02-2.25c-0.28-0.61-0.82-1.03-1.61-1.27c-0.83-0.25-1.53-0.18-2.09,0.2         c-0.56,0.39-0.99,1.11-1.31,2.16l-0.67,2.23L416.43,367.05z"/><path fill="#fff" d="M419.22,359.03c-1.96-0.59-3.39-1.51-4.29-2.77c-0.9-1.25-1.13-2.62-0.69-4.09         c0.44-1.47,1.39-2.48,2.83-3.01c1.44-0.54,3.15-0.51,5.1,0.08c1.96,0.59,3.39,1.51,4.29,2.76c0.91,1.25,1.14,2.61,0.69,4.08         c-0.44,1.47-1.39,2.48-2.84,3.02C422.88,359.65,421.17,359.62,419.22,359.03z M419.58,357.81c1.69,0.51,3.12,0.58,4.3,0.22         c1.17-0.37,1.93-1.12,2.27-2.26c0.34-1.14,0.13-2.19-0.64-3.14c-0.77-0.95-2.01-1.69-3.7-2.2c-1.7-0.51-3.13-0.59-4.3-0.22         c-1.17,0.37-1.93,1.12-2.27,2.26c-0.34,1.14-0.13,2.18,0.64,3.14C416.65,356.57,417.89,357.3,419.58,357.81z"/><path fill="#fff" d="M429.91,346.21l-11.5-3.48l-1.12,3.7l-1.01-0.3l2.59-8.58l1.01,0.3l-1.12,3.7l11.5,3.48L429.91,346.21z"/><path fill="#fff" d="M430.86,337.18l1.63,0.49l-0.43,1.44l-1.63-0.49L430.86,337.18z M428.48,336.85l-0.21,0.71l-8.69-2.32         l0.38-1.27L428.48,336.85z"/><g><linearGradient id="a" x1="271.195" x2="504.395" y1="432.936" y2="432.936" gradientUnits="userSpaceOnUse"><stop offset="0" stop-color="#c4934b"/><stop offset=".836" stop-color="#a9690d"/><stop offset="1" stop-color="#a36000"/></linearGradient><path fill="url(#a)" d="M396.94,558.68c-16.98,0-33.44-3.32-48.94-9.88c-14.97-6.33-28.42-15.4-39.97-26.95       c-11.55-11.55-20.61-25-26.95-39.97c-6.56-15.5-9.88-31.97-9.88-48.94c0-16.98,3.32-33.44,9.88-48.94       c6.33-14.97,15.4-28.42,26.95-39.97c11.55-11.55,25-20.61,39.97-26.95c15.5-6.56,31.97-9.88,48.94-9.88       c24.1,0,47.51,6.84,67.71,19.77l-0.31,0.49c-20.11-12.87-43.41-19.68-67.4-19.68c-69.01,0-125.16,56.15-125.16,125.16       S327.92,558.1,396.94,558.1c44.03,0,84.02-22.48,106.96-60.13l0.5,0.3c-11.03,18.1-26.57,33.24-44.94,43.79       C440.52,552.93,418.9,558.68,396.94,558.68z"/></g><g><circle cx="271.49" cy="432.85" r="6.4" fill="#f7d77a"/><circle cx="522.82" cy="432.85" r="6.4" fill="#f7d77a"/><circle cx="302.47" cy="350.62" r="6.4" fill="#f7d77a"/><circle cx="491.84" cy="350.62" r="6.4" fill="#f7d77a" transform="rotate(-22.5 491.815 350.609)"/><circle cx="397.29" cy="558.21" r="6.4" fill="#f3e8d8" transform="rotate(-5.653 397.452 558.41)"/><circle cx="491.84" cy="515.07" r="6.4" fill="#f7d77a" transform="rotate(-31.714 491.886 515.09)"/><circle cx="302.47" cy="515.07" r="6.4" fill="#f7d77a"/></g><g><linearGradient id="b" x1="297.082" x2="513.689" y1="432.829" y2="432.829" gradientUnits="userSpaceOnUse"><stop offset="0" stop-color="#c4934b"/><stop offset=".836" stop-color="#a9690d"/><stop offset="1" stop-color="#a36000"/></linearGradient><path fill="url(#b)" d="M396.89,549.29c-20.4,0-40.48-5.32-58.07-15.39c-17.06-9.77-31.5-23.79-41.74-40.55       l0.5-0.3c21.3,34.86,58.43,55.67,99.32,55.67c64.08,0,116.21-51.98,116.21-115.88c0-63.89-52.13-115.88-116.21-115.88       c-22.27,0-43.91,6.3-62.58,18.22l-0.31-0.49c18.76-11.98,40.51-18.31,62.89-18.31c15.77,0,31.06,3.08,45.46,9.15       c13.91,5.87,26.4,14.26,37.12,24.96c10.73,10.7,19.15,23.15,25.03,37.02c6.09,14.36,9.18,29.61,9.18,45.33       c0,15.72-3.09,30.97-9.18,45.33c-5.88,13.87-14.3,26.32-25.03,37.02c-10.73,10.69-23.22,19.09-37.12,24.96       C427.96,546.21,412.66,549.29,396.89,549.29z"/></g><g><polygon fill="#f0e2cf" points="396.93 298.2 381.23 298.2 396.93 332.68 412.64 298.2"/></g><g><linearGradient id="c" x1="335.489" x2="354.587" y1="344.819" y2="344.819" gradientUnits="userSpaceOnUse"><stop offset="0" stop-color="#c4934b"/><stop offset=".836" stop-color="#a9690d"/><stop offset="1" stop-color="#a36000"/></linearGradient><path fill="url(#c)" d="M335.84,349.9l-0.35-0.46c8.77-6.67,18.83-9.66,18.94-9.69l0.16,0.56        C354.49,340.33,344.53,343.29,335.84,349.9z"/><g><linearGradient id="d" x1="339.274" x2="354.08" y1="349.945" y2="349.945" gradientUnits="userSpaceOnUse"><stop offset="0" stop-color="#c4934b"/><stop offset=".836" stop-color="#a9690d"/><stop offset="1" stop-color="#a36000"/></linearGradient><path fill="url(#d)" d="M339.63,353.92l-0.35-0.46c6.79-5.16,14.57-7.47,14.64-7.49l0.16,0.56        C354,346.55,346.32,348.83,339.63,353.92z"/></g></g><g><linearGradient id="e" x1="497.068" x2="505.462" y1="455.039" y2="455.039" gradientUnits="userSpaceOnUse"><stop offset="0" stop-color="#c4934b"/><stop offset=".836" stop-color="#a9690d"/><stop offset="1" stop-color="#a36000"/></linearGradient><path fill="url(#e)" d="M497.56,464.97l-0.49-0.31c5.78-9.26,7.8-19.45,7.82-19.55l0.57,0.11        C505.44,445.32,503.4,455.62,497.56,464.97z"/><g><linearGradient id="f" x1="492.709" x2="499.312" y1="453.88" y2="453.88" gradientUnits="userSpaceOnUse"><stop offset="0" stop-color="#c4934b"/><stop offset=".836" stop-color="#a9690d"/><stop offset="1" stop-color="#a36000"/></linearGradient><path fill="url(#f)" d="M493.2,461.57l-0.49-0.31c4.46-7.14,6.02-15,6.03-15.08l0.57,0.11        C499.3,446.38,497.71,454.34,493.2,461.57z"/></g></g><g><circle cx="532.45" cy="330.24" r="26.22" fill="#f3e8d8" transform="rotate(-41.634 532.432 330.215)"/><circle cx="532.45" cy="330.24" r="22.67" fill="#f7d77a" transform="rotate(-25.302 532.462 330.233)"/><path fill="#f3e8d8" d="M525.66,334.76c0.35-1.4,1.44-3.13,3.27-5.18c0.38-0.43,0.92-1.01,1.6-1.74         c2.23-2.37,3.06-4.16,2.49-5.36c-0.37-0.78-0.94-1.26-1.71-1.45c-0.77-0.19-1.65-0.05-2.61,0.4c-1,0.47-1.73,1.11-2.18,1.92         c-0.45,0.81-0.68,1.86-0.67,3.16l-4.76,0.43c-0.18-2.01,0.19-3.77,1.13-5.28c0.61-0.99,1.46-1.86,2.54-2.61l-1.48-3.14         l3.96-1.87l1.49,3.15c1.54-0.42,3.01-0.45,4.4-0.09c2,0.52,3.45,1.74,4.36,3.66c0.53,1.13,0.77,2.25,0.72,3.38         c-0.06,1.12-0.4,2.18-1.03,3.19c-0.63,1.03-1.92,2.52-3.85,4.48c-0.29,0.28-0.5,0.5-0.65,0.66c-1.1,1.12-1.79,2.05-2.07,2.79         c-0.28,0.74-0.24,1.47,0.11,2.21c0.44,0.93,1.13,1.5,2.08,1.71c0.95,0.22,2.02,0.04,3.21-0.52c1.05-0.5,1.83-1.22,2.33-2.17         c0.5-0.95,0.76-2.2,0.79-3.77l4.91-0.11c0.11,2.24-0.37,4.2-1.43,5.88c-0.64,1.01-1.49,1.91-2.55,2.69l1.6,3.38l-3.96,1.87         l-1.53-3.24c-1.9,0.64-3.65,0.74-5.26,0.28c-2.03-0.58-3.57-1.96-4.6-4.16C525.52,337.68,525.31,336.16,525.66,334.76z"/><path fill="#d8871e" d="M554.23,345.12c-2.61,3.83-6.2,6.92-10.51,8.95c-0.08,0.04-0.17,0-0.2-0.07         c-0.04-0.08,0-0.17,0.07-0.2c6.29-2.98,11.05-8.22,13.4-14.78c2.35-6.56,2-13.63-0.97-19.93         c-6.14-12.99-21.71-18.57-34.71-12.43c-0.08,0.04-0.17,0-0.2-0.07c-0.04-0.08,0-0.17,0.07-0.2         c13.14-6.21,28.89-0.58,35.11,12.57c3.01,6.37,3.36,13.53,0.99,20.16C556.51,341.27,555.48,343.28,554.23,345.12z"/><path fill="#d8871e" d="M542.27,350.82c-0.01,0.02-0.04,0.04-0.06,0.05c-11.38,5.38-25.01,0.5-30.39-10.88         c-5.38-11.38-0.5-25.01,10.88-30.39c0.08-0.04,0.17,0,0.2,0.07c0.04,0.08,0,0.17-0.07,0.2c-5.44,2.57-9.55,7.11-11.58,12.77         c-2.03,5.66-1.73,11.78,0.84,17.22c5.31,11.23,18.76,16.04,29.99,10.74c0.08-0.04,0.17,0,0.2,0.07         C542.31,350.72,542.3,350.78,542.27,350.82z"/><path fill="#d8871e" d="M541.01,311.58c0,0-0.01,0.01-0.01,0.01c-0.05,0.06-0.15,0.07-0.21,0.02         c-0.04-0.03-3.6-3.04-7.98-2.63c-0.08,0.01-0.16-0.05-0.16-0.14c-0.01-0.08,0.05-0.16,0.14-0.16         c4.51-0.43,8.17,2.67,8.21,2.7C541.04,311.43,541.05,311.51,541.01,311.58z"/><path fill="#d8871e" d="M539.85,313.97c0,0-0.01,0.01-0.01,0.01c-0.05,0.06-0.15,0.07-0.21,0.02         c-0.04-0.03-3.6-3.04-7.98-2.63c-0.08,0.01-0.16-0.05-0.16-0.14c-0.01-0.08,0.05-0.16,0.14-0.16         c4.51-0.43,8.17,2.67,8.21,2.7C539.88,313.82,539.89,313.9,539.85,313.97z"/><path fill="#d8871e" d="M533.24,317.2c-0.03,0.05-0.1,0.08-0.16,0.06c-1.36-0.35-2.81-0.33-4.32,0.09l-0.12,0.03l-1.54-3.26         c-0.04-0.08,0-0.17,0.07-0.2c0.08-0.04,0.17,0,0.2,0.07l1.44,3.04c1.52-0.39,2.98-0.41,4.36-0.05         c0.08,0.02,0.13,0.1,0.11,0.18C533.25,317.17,533.25,317.18,533.24,317.2z"/><path fill="#d8871e" d="M533.15,322.57c-0.01,0.02-0.04,0.04-0.06,0.05c-0.08,0.04-0.17,0-0.2-0.07         c-0.35-0.74-0.88-1.19-1.61-1.37c-0.74-0.18-1.58-0.05-2.52,0.39c-0.97,0.46-1.68,1.08-2.11,1.86         c-0.44,0.78-0.66,1.82-0.66,3.09l0,0.14l-5.05,0.46l-0.01-0.15c-0.18-2.04,0.2-3.85,1.15-5.38c0.62-1,1.49-1.9,2.58-2.66         c0.07-0.05,0.16-0.03,0.21,0.04c0.05,0.07,0.03,0.16-0.04,0.21c-1.06,0.74-1.9,1.6-2.5,2.57c-0.89,1.44-1.26,3.13-1.12,5.04         l4.47-0.41c0.01-1.26,0.25-2.3,0.69-3.1c0.47-0.83,1.22-1.5,2.25-1.98c1-0.47,1.91-0.61,2.72-0.42         c0.82,0.2,1.43,0.71,1.81,1.53C533.18,322.47,533.18,322.52,533.15,322.57z"/><path fill="#d8871e" d="M537.81,346.51c-0.01,0.02-0.04,0.04-0.06,0.05c-0.08,0.04-0.17,0-0.2-0.07l-1.47-3.12         c-1.88,0.61-3.63,0.69-5.22,0.24c-2.07-0.59-3.65-2.01-4.7-4.24c-0.04-0.08,0-0.17,0.07-0.2c0.08-0.04,0.17,0,0.2,0.07         c1.01,2.14,2.53,3.51,4.51,4.08c1.56,0.44,3.3,0.35,5.17-0.28l0.13-0.04l1.59,3.36         C537.85,346.41,537.84,346.47,537.81,346.51z"/><path fill="#d8871e" d="M542.56,338.81c-0.63,0.92-1.44,1.76-2.42,2.48c-0.07,0.05-0.16,0.04-0.21-0.03         c-0.05-0.07-0.04-0.16,0.03-0.21c1.03-0.76,1.88-1.65,2.51-2.65c1.02-1.61,1.5-3.5,1.42-5.64l-4.62,0.11         c-0.04,1.52-0.31,2.76-0.8,3.69c-0.51,0.97-1.32,1.72-2.4,2.23c-1.22,0.58-2.33,0.76-3.31,0.53         c-0.99-0.23-1.73-0.83-2.18-1.8c-0.36-0.77-0.4-1.55-0.11-2.33c0.03-0.08,0.12-0.12,0.19-0.09c0.08,0.03,0.12,0.12,0.09,0.19         c-0.26,0.69-0.23,1.4,0.1,2.09c0.42,0.89,1.07,1.42,1.98,1.63c0.91,0.21,1.96,0.03,3.12-0.51c1.02-0.48,1.78-1.19,2.26-2.1         c0.48-0.92,0.74-2.17,0.77-3.7l0-0.14l5.2-0.12l0.01,0.15c0.11,2.26-0.38,4.27-1.46,5.97         C542.67,338.65,542.61,338.73,542.56,338.81z"/></g><g><path fill="#f1d4ae" d="M576.19,400.34c-0.03-0.13-0.06-0.27-0.09-0.4c-1-5.01,2.25-9.88,7.27-10.88     c0.23-0.05,0.45-0.08,0.68-0.11l-4.56-22.87c-0.22,0.06-0.44,0.12-0.67,0.16c-5.01,1-9.88-2.25-10.88-7.27     c-0.02-0.09-0.03-0.18-0.05-0.27l-64.47,12.85c0.02,0.09,0.04,0.18,0.06,0.27c1,5.01-2.25,9.88-7.27,10.88l4.55,22.82     c5.01-1,9.88,2.25,10.88,7.27c0.03,0.14,0.05,0.27,0.07,0.41L576.19,400.34z"/><polygon fill="#fefdfd" points="510.36 376.28 516.05 405.3 569.76 394.89 564.19 365.76" opacity=".5"/><path fill="#e9ba7e" d="M570.49,395.12l-54.68,10.9l-5.97-29.96l54.68-10.9L570.49,395.12z M516.6,404.84l52.71-10.51l-5.58-28      l-52.71,10.51L516.6,404.84z"/><path fill="#e9ba7e" d="M524.59,378.92c0.5-0.19,1.16-0.4,2.02-0.57c1.06-0.21,1.88-0.12,2.46,0.23c0.53,0.3,0.93,0.85,1.07,1.59      c0.15,0.75,0.05,1.39-0.29,1.9c-0.44,0.72-1.31,1.21-2.35,1.42c-0.32,0.06-0.62,0.11-0.88,0.1l0.66,3.32l-1.07,0.21      L524.59,378.92z M526.46,382.71c0.25,0.02,0.55-0.02,0.9-0.09c1.29-0.26,1.95-1.04,1.73-2.19c-0.22-1.09-1.1-1.47-2.28-1.23      c-0.47,0.09-0.82,0.2-0.99,0.29L526.46,382.71z"/><path fill="#e9ba7e" d="M531.14,377.63c0.52-0.22,1.28-0.43,2.02-0.58c1.14-0.23,1.92-0.17,2.53,0.2      c0.49,0.29,0.84,0.81,0.97,1.44c0.22,1.1-0.33,1.96-1.14,2.43l0.01,0.04c0.68,0.09,1.18,0.61,1.55,1.43      c0.5,1.1,0.86,1.86,1.09,2.15l-1.11,0.22c-0.18-0.21-0.51-0.88-0.95-1.87c-0.47-1.09-1-1.44-1.98-1.28l-1.01,0.2l0.72,3.59      l-1.07,0.21L531.14,377.63z M532.97,381.19l1.09-0.22c1.14-0.23,1.75-1,1.56-1.95c-0.21-1.07-1.08-1.38-2.22-1.17      c-0.52,0.1-0.88,0.23-1.04,0.31L532.97,381.19z"/><path fill="#e9ba7e" d="M538.81,375.98l1.65,8.29l-1.07,0.21l-1.65-8.29L538.81,375.98z"/><path fill="#e9ba7e" d="M541.65,383.39l3.26-7.65l-0.01-0.04l-4.21,0.84l-0.18-0.9l5.6-1.12l0.13,0.65L543,382.8l0.01,0.04      l4.64-0.92l0.18,0.9l-6.05,1.21L541.65,383.39z"/><path fill="#e9ba7e" d="M552.67,377.8l-3.22,0.64l0.6,2.99l3.59-0.72l0.18,0.9l-4.66,0.93l-1.65-8.29l4.48-0.89l0.18,0.9      l-3.41,0.68l0.52,2.62l3.22-0.64L552.67,377.8z"/><g><path fill="#e9ba7e" d="M527.49,390.69c0.53-0.19,1.18-0.39,1.89-0.53c1.3-0.26,2.28-0.14,3.01,0.31      c0.74,0.45,1.26,1.18,1.49,2.32c0.23,1.14,0.06,2.15-0.46,2.92c-0.52,0.78-1.53,1.35-2.89,1.62c-0.64,0.13-1.19,0.2-1.66,0.24      L527.49,390.69z M529.63,396.7c0.24,0,0.57-0.06,0.92-0.13c1.93-0.38,2.76-1.67,2.39-3.56c-0.32-1.65-1.46-2.52-3.37-2.13      c-0.47,0.09-0.81,0.21-1.04,0.3L529.63,396.7z"/><path fill="#e9ba7e" d="M534.41,389.31c0.44-0.18,1.08-0.37,1.7-0.49c0.97-0.19,1.62-0.14,2.14,0.17      c0.42,0.24,0.71,0.68,0.82,1.22c0.18,0.92-0.28,1.65-0.96,2.05l0.01,0.03c0.58,0.08,1,0.51,1.31,1.21      c0.42,0.93,0.72,1.57,0.92,1.81l-0.93,0.19c-0.15-0.17-0.43-0.75-0.8-1.58c-0.4-0.92-0.85-1.21-1.67-1.08l-0.85,0.17l0.6,3.03      l-0.9,0.18L534.41,389.31z M535.95,392.32l0.92-0.18c0.97-0.19,1.47-0.84,1.31-1.64c-0.18-0.9-0.91-1.17-1.87-0.99      c-0.44,0.09-0.74,0.19-0.88,0.26L535.95,392.32z"/><path fill="#e9ba7e" d="M542.12,392.66l-0.29,2.35l-0.93,0.19l0.98-7.47l1.09-0.22l3.78,6.52l-0.97,0.19l-1.19-2.05      L542.12,392.66z M544.27,391.5l-1.09-1.88c-0.25-0.43-0.43-0.82-0.62-1.2l-0.02,0c-0.02,0.44-0.05,0.88-0.1,1.34l-0.28,2.16      L544.27,391.5z"/><path fill="#e9ba7e" d="M548.37,393.71l-3.17-6.64l0.96-0.19l1.54,3.37c0.38,0.83,0.74,1.67,1,2.32l0.02,0      c-0.02-0.72,0.03-1.59,0.09-2.54l0.23-3.72l0.94-0.19l1.56,3.38c0.36,0.79,0.71,1.58,0.97,2.3l0.02,0      c-0.01-0.8,0.03-1.62,0.08-2.53l0.22-3.71l0.92-0.18l-0.59,7.39l-0.95,0.19l-1.61-3.47c-0.4-0.85-0.68-1.5-0.91-2.19l-0.02,0      c0.01,0.72-0.01,1.44-0.08,2.39l-0.27,3.84L548.37,393.71z"/></g><g><path fill="#e9ba7e" d="M576.95,400.83l-65.77,13.11l-0.1-0.65c-0.02-0.13-0.04-0.25-0.07-0.38c-0.93-4.66-5.48-7.7-10.14-6.77      l-0.62,0.12l-4.79-24.05l0.62-0.12c4.66-0.93,7.7-5.48,6.77-10.14c-0.01-0.06-0.03-0.12-0.04-0.17l-0.16-0.71l65.74-13.1      l0.12,0.71c0.01,0.06,0.02,0.12,0.03,0.18c0.93,4.66,5.48,7.7,10.14,6.77c0.19-0.04,0.39-0.09,0.62-0.15l0.65-0.18l4.82,24.2      l-0.67,0.08c-0.24,0.03-0.45,0.06-0.63,0.1c-4.66,0.93-7.7,5.48-6.77,10.14c0.03,0.13,0.05,0.25,0.08,0.38L576.95,400.83z       M512.21,412.45l63.23-12.6c-0.93-5.27,2.53-10.36,7.8-11.41c0.02,0,0.04-0.01,0.06-0.01l-4.3-21.59      c-0.02,0-0.04,0.01-0.06,0.01c-5.23,1.04-10.33-2.27-11.55-7.41l-63.24,12.61c0.82,5.01-2.33,9.83-7.21,11.13l4.31,21.63      C506.3,404.12,511.09,407.43,512.21,412.45z"/></g></g><g><linearGradient id="k" x1="495.34" x2="546.4" y1="398.139" y2="398.139" gradientUnits="userSpaceOnUse"><stop offset="0" stop-color="#c4934b"/><stop offset=".836" stop-color="#a9690d"/><stop offset="1" stop-color="#a36000"/></linearGradient><path fill="url(#k)" d="M511.05,414.09l0.01-0.16c0-0.03,0.09-3.18-3.18-5.96c-3.27-2.78-7.54-1.6-7.58-1.59l-0.13,0.04l-0.03-0.14    l-4.79-24.05l0.25-0.05l4.77,23.92c0.76-0.18,4.63-0.91,7.68,1.67c2.95,2.5,3.25,5.31,3.27,6.01l35.04-7.01l0.05,0.25    L511.05,414.09z"/></g><g><linearGradient id="l" x1="521.964" x2="584.914" y1="373.659" y2="373.659" gradientUnits="userSpaceOnUse"><stop offset="0" stop-color="#c4934b"/><stop offset=".836" stop-color="#a9690d"/><stop offset="1" stop-color="#a36000"/></linearGradient><path fill="url(#l)" d="M584.66,389.51l-4.79-24.04c-0.63,0.29-3.11,1.17-6.79-0.49c-3.82-1.73-4.67-6.04-4.8-6.87l-46.27,9.22    l-0.05-0.25l46.54-9.28l0.02,0.14c0.01,0.05,0.59,4.96,4.67,6.81c4.08,1.84,6.69,0.44,6.71,0.43l0.15-0.09l0.03,0.17l4.82,24.2    L584.66,389.51z"/></g><g><linearGradient id="m" x1="509.812" x2="570.636" y1="383.123" y2="383.123" gradientUnits="userSpaceOnUse"><stop offset="0" stop-color="#c4934b"/><stop offset=".836" stop-color="#a9690d"/><stop offset="1" stop-color="#a36000"/></linearGradient><polygon fill="url(#m)" points="540.49 401.23 540.44 400.98 570.34 395.02 564.41 365.31 509.86 376.19 509.81 375.94 564.61 365.01 570.64 395.23"/></g><g><linearGradient id="n" x1="510.866" x2="552.048" y1="383.6" y2="383.6" gradientUnits="userSpaceOnUse"><stop offset="0" stop-color="#c4934b"/><stop offset=".836" stop-color="#a9690d"/><stop offset="1" stop-color="#a36000"/></linearGradient><polygon fill="url(#n)" points="515.23 398.65 510.87 376.75 552 368.55 552.05 368.8 511.17 376.95 515.48 398.6"/></g><g><linearGradient id="o" x1="558.368" x2="563.174" y1="370.991" y2="370.991" gradientUnits="userSpaceOnUse"><stop offset="0" stop-color="#c4934b"/><stop offset=".836" stop-color="#a9690d"/><stop offset="1" stop-color="#a36000"/></linearGradient><polygon fill="url(#o)" points="563.03 372.63 558.37 369.56 558.51 369.35 563.17 372.42"/></g><g><linearGradient id="p" x1="558.128" x2="562.935" y1="372.993" y2="372.993" gradientUnits="userSpaceOnUse"><stop offset="0" stop-color="#c4934b"/><stop offset=".836" stop-color="#a9690d"/><stop offset="1" stop-color="#a36000"/></linearGradient><polygon fill="url(#p)" points="562.79 374.64 558.13 371.56 558.27 371.35 562.93 374.42"/></g><g><linearGradient id="q" x1="502.227" x2="507.034" y1="383.49" y2="383.49" gradientUnits="userSpaceOnUse"><stop offset="0" stop-color="#c4934b"/><stop offset=".836" stop-color="#a9690d"/><stop offset="1" stop-color="#a36000"/></linearGradient><polygon fill="url(#q)" points="502.37 385.13 502.23 384.92 506.89 381.85 507.03 382.06"/></g><g><linearGradient id="r" x1="502.467" x2="507.274" y1="385.492" y2="385.492" gradientUnits="userSpaceOnUse"><stop offset="0" stop-color="#c4934b"/><stop offset=".836" stop-color="#a9690d"/><stop offset="1" stop-color="#a36000"/></linearGradient><polygon fill="url(#r)" points="502.61 387.13 502.47 386.92 507.13 383.85 507.27 384.06"/></g><g><linearGradient id="s" x1="524.464" x2="527.319" y1="383.082" y2="383.082" gradientUnits="userSpaceOnUse"><stop offset="0" stop-color="#c4934b"/><stop offset=".836" stop-color="#a9690d"/><stop offset="1" stop-color="#a36000"/></linearGradient><polygon fill="url(#s)" points="526.12 387.27 524.46 378.95 524.72 378.9 526.32 386.97 527.27 386.78 527.32 387.03"/></g><g><linearGradient id="t" x1="552.186" x2="553.872" y1="389.208" y2="389.208" gradientUnits="userSpaceOnUse"><stop offset="0" stop-color="#c4934b"/><stop offset=".836" stop-color="#a9690d"/><stop offset="1" stop-color="#a36000"/></linearGradient><polygon fill="url(#t)" points="552.24 393.07 552.19 392.81 553.04 392.65 553.62 385.35 553.87 385.37 553.28 392.86"/></g><g><linearGradient id="u" x1="527.364" x2="528.987" y1="394.132" y2="394.132" gradientUnits="userSpaceOnUse"><stop offset="0" stop-color="#c4934b"/><stop offset=".836" stop-color="#a9690d"/><stop offset="1" stop-color="#a36000"/></linearGradient><polygon fill="url(#u)" points="528.74 397.6 527.36 390.72 527.62 390.67 528.99 397.55"/></g><g><linearGradient id="v" x1="548.617" x2="552.514" y1="376.313" y2="376.313" gradientUnits="userSpaceOnUse"><stop offset="0" stop-color="#c4934b"/><stop offset=".836" stop-color="#a9690d"/><stop offset="1" stop-color="#a36000"/></linearGradient><polygon fill="url(#v)" points="549.16 377.71 548.62 374.96 548.87 374.91 549.37 377.41 552.46 376.79 552.51 377.04"/></g><g><linearGradient id="w" x1="550.012" x2="553.934" y1="381.106" y2="381.106" gradientUnits="userSpaceOnUse"><stop offset="0" stop-color="#c4934b"/><stop offset=".836" stop-color="#a9690d"/><stop offset="1" stop-color="#a36000"/></linearGradient><polygon fill="url(#w)" points="553.68 381.64 553.53 380.87 550.06 381.56 550.01 381.31 553.73 380.57 553.93 381.59"/></g></svg>