<svg xmlns="http://www.w3.org/2000/svg" enable-background="new 0 0 850 850" viewBox="0 0 850 850"><circle cx="584.06" cy="417.87" r="189.52" fill="#aa6400"/><circle cx="584.06" cy="417.87" r="182.67" fill="#f5ede2"/><path fill="#aa6400" d="M697.72,304.21c-30.36-30.36-70.72-47.08-113.66-47.08c-42.94,0-83.3,16.72-113.66,47.08    c-30.36,30.36-47.08,70.72-47.08,113.66s16.72,83.3,47.08,113.66c30.36,30.36,70.72,47.08,113.66,47.08    c42.94,0,83.3-16.72,113.66-47.08c30.36-30.36,47.08-70.72,47.08-113.66S728.07,334.57,697.72,304.21z M584.06,570.38    c-84.09,0-152.51-68.41-152.51-152.51c0-84.1,68.41-152.51,152.51-152.51c84.1,0,152.51,68.41,152.51,152.51    C736.57,501.97,668.15,570.38,584.06,570.38z"/><path fill="#e7b473" d="M736.57,417.87c0,3.96-0.15,7.89-0.45,11.78c-1.01,13.22-3.72,25.98-7.9,38.05    c-2.59,7.47-5.74,14.68-9.42,21.58c-5.29,9.95-11.66,19.25-18.95,27.75c-5.11,5.96-10.68,11.53-16.64,16.64    c-9.82,8.42-20.71,15.62-32.45,21.35c-7.02,3.43-14.33,6.33-21.9,8.66c-10.57,3.26-21.62,5.39-33.02,6.26    c-3.89,0.3-7.81,0.45-11.77,0.45c-3.63,0-7.23-0.13-10.8-0.38c-13.56-0.95-26.65-3.69-39.01-7.97    c-7.16-2.48-14.09-5.48-20.72-8.96c-10.28-5.38-19.87-11.91-28.61-19.4c-5.72-4.9-11.07-10.21-16.01-15.9    c-8.69-10.01-16.1-21.16-21.98-33.19c-3.28-6.73-6.09-13.74-8.36-20.97c-3.42-10.85-5.65-22.21-6.55-33.96    c-0.3-3.89-0.45-7.81-0.45-11.77c0-3.63,0.13-7.23,0.38-10.8c0.95-13.56,3.69-26.65,7.97-39.01c2.48-7.16,5.48-14.09,8.96-20.72    c5.38-10.28,11.91-19.87,19.4-28.61c4.9-5.72,10.21-11.07,15.9-16.01c10.01-8.69,21.16-16.1,33.19-21.97    c6.73-3.29,13.74-6.09,20.97-8.37c10.85-3.42,22.21-5.65,33.96-6.55c3.89-0.3,7.81-0.45,11.77-0.45s7.88,0.15,11.77,0.45    c13.22,1.01,25.98,3.72,38.05,7.9c7.47,2.58,14.68,5.74,21.58,9.41c9.96,5.3,19.26,11.67,27.75,18.95    c5.96,5.11,11.53,10.68,16.64,16.64c8.42,9.82,15.62,20.71,21.35,32.45c3.43,7.02,6.33,14.33,8.65,21.9    c3.26,10.57,5.39,21.62,6.26,33.02C736.41,409.99,736.57,413.91,736.57,417.87z"/><path fill="#f2e6d5" d="M736.11,429.65l-137.79-8.81l129.89,46.86c-2.59,7.47-5.74,14.68-9.42,21.58l-121-62.04l102.05,89.79    c-5.11,5.96-10.68,11.53-16.64,16.64l-91.16-103.6l58.71,124.95c-7.02,3.43-14.33,6.33-21.9,8.66L587.16,434.2l8.67,135.73    c-3.89,0.3-7.81,0.45-11.77,0.45c-3.63,0-7.23-0.13-10.8-0.38l7.94-138.15l-46.96,130.18c-7.16-2.48-14.09-5.48-20.72-8.96    l61.46-121.77l-90.07,102.37c-5.72-4.9-11.07-10.21-16.01-15.9l103.25-92.03l-125.23,58.84c-3.28-6.73-6.09-13.74-8.36-20.97    l129.61-42.65L432,429.64c-0.3-3.89-0.45-7.81-0.45-11.77c0-3.63,0.13-7.23,0.38-10.8l138.13,7.94l-130.16-46.96    c2.48-7.16,5.48-14.09,8.96-20.72l121.79,61.48l-102.38-90.09c4.9-5.72,10.21-11.07,15.9-16.01l92.02,103.25l-58.83-125.22    c6.73-3.29,13.74-6.09,20.97-8.37l42.65,129.61l-8.7-136.17c3.89-0.3,7.81-0.45,11.77-0.45s7.88,0.15,11.77,0.45l-8.8,137.77    l46.85-129.87c7.47,2.58,14.68,5.74,21.58,9.41L593.4,404.15l89.8-102.07c5.96,5.11,11.53,10.68,16.64,16.64l-103.6,91.15    l124.95-58.7c3.43,7.02,6.33,14.33,8.65,21.9l-129.47,41.69l135.73-8.67c0.3,3.89,0.45,7.81,0.45,11.77    C736.57,421.83,736.41,425.76,736.11,429.65z"/><path fill="#e7b473" d="M695.15,439.15c-0.55,2.89-1.21,5.73-1.97,8.52c-2.58,9.49-6.34,18.4-11.07,26.61    c-2.93,5.08-6.23,9.89-9.87,14.4c-5.24,6.51-11.18,12.4-17.67,17.57c-4.56,3.63-9.39,6.91-14.45,9.8    c-8.33,4.77-17.27,8.49-26.62,11.02c-5.59,1.52-11.32,2.61-17.16,3.25c-8.15,0.9-16.5,0.91-24.93-0.05    c-2.87-0.32-5.75-0.76-8.64-1.31c-2.65-0.51-5.25-1.1-7.82-1.79c-9.75-2.58-18.9-6.4-27.31-11.25c-4.87-2.81-9.5-5.96-13.84-9.42    c-6.74-5.35-12.81-11.45-18.13-18.13c-3.48-4.37-6.64-8.98-9.44-13.82c-4.93-8.5-8.78-17.66-11.38-27.24    c-1.45-5.36-2.52-10.86-3.16-16.45c-0.98-8.38-1.02-16.97-0.04-25.65c0.32-2.87,0.76-5.75,1.31-8.64c0.51-2.65,1.1-5.25,1.79-7.82    c2.58-9.75,6.4-18.9,11.25-27.31c2.81-4.87,5.96-9.5,9.42-13.84c5.35-6.74,11.45-12.81,18.13-18.13    c4.37-3.48,8.98-6.64,13.82-9.44c8.5-4.93,17.66-8.78,27.24-11.38c5.36-1.46,10.86-2.52,16.45-3.17    c8.38-0.98,16.97-1.02,25.65-0.04c2.87,0.32,5.75,0.76,8.64,1.31c2.89,0.55,5.72,1.21,8.51,1.97c9.49,2.58,18.41,6.33,26.61,11.07    c5.08,2.92,9.89,6.23,14.41,9.87c6.52,5.25,12.4,11.19,17.57,17.68c3.63,4.56,6.91,9.39,9.8,14.45    c4.77,8.33,8.49,17.27,11.02,26.62c1.52,5.59,2.61,11.32,3.25,17.16c0.9,8.15,0.91,16.5-0.04,24.93    C696.14,433.39,695.71,436.26,695.15,439.15z"/><path fill="#f2e6d5" d="M596.36,417.87l100.09,12.62c-0.32,2.88-0.76,5.75-1.31,8.64c-0.56,2.89-1.21,5.73-1.97,8.52L594.01,422    l88.08,52.26c-2.93,5.08-6.23,9.89-9.87,14.4l-79.49-62.08l61.82,79.65c-4.56,3.63-9.39,6.91-14.45,9.8l-51.95-88.19l25.33,99.22    c-5.59,1.51-11.32,2.6-17.16,3.25l-12.31-100.13l-12.63,100.09c-2.87-0.32-5.75-0.76-8.64-1.32c-2.65-0.51-5.24-1.1-7.81-1.78    L580,427.62l-52.37,88.28c-4.87-2.8-9.49-5.96-13.85-9.42l61.76-80.13l-79.89,62c-3.48-4.37-6.64-8.98-9.45-13.82l88.06-52.63    l-99.44,25.39c-1.45-5.37-2.52-10.86-3.17-16.45l100.37-12.98l-100.4-12.67c0.32-2.87,0.76-5.75,1.32-8.64    c0.51-2.65,1.1-5.25,1.78-7.81l99.52,25.06l-88.26-52.37c2.8-4.87,5.96-9.5,9.42-13.85l80.14,61.78l-62.02-79.91    c4.37-3.48,8.99-6.63,13.82-9.45l52.63,88.06l-25.38-99.43c5.36-1.45,10.86-2.52,16.45-3.17l12.98,100.37l12.67-100.41    c2.87,0.32,5.75,0.76,8.64,1.31c2.89,0.56,5.72,1.21,8.51,1.97l-25.64,99.13l52.25-88.07c5.09,2.93,9.9,6.24,14.41,9.87    l-62.09,79.5l44.21-34.31l35.46-27.51c3.63,4.56,6.9,9.39,9.8,14.45l-38.67,22.78l-49.52,29.17l99.21-25.33    c1.51,5.59,2.61,11.32,3.25,17.16L596.36,417.87z"/><path fill="#f5f2e6" d="M672.42,347.33c3.63,4.56,6.9,9.39,9.8,14.45l-38.67,22.78l-6.59-9.71L672.42,347.33z"/><path fill="#f2e6d5" d="M696.71,362.07c-0.05,0.05-0.14,0.07-0.25,0.05C696.7,362.01,696.79,361.99,696.71,362.07z"/><circle cx="584.06" cy="417.87" r="74.3" fill="#aa6400" transform="rotate(-45.001 584.056 417.88)"/><path fill="#f5ede2" d="M652.87,417.87c0,0.92-0.02,1.83-0.05,2.74c-0.66,16.94-7.44,32.3-18.2,43.94    c-1.23,1.35-2.53,2.65-3.88,3.88c-11.64,10.76-27.01,17.54-43.94,18.2c-0.91,0.03-1.82,0.05-2.74,0.05    c-0.92,0-1.83-0.02-2.74-0.05c-16.93-0.66-32.3-7.44-43.94-18.2c-1.35-1.23-2.65-2.53-3.87-3.88    c-10.77-11.64-17.55-27-18.21-43.94c-0.03-0.91-0.05-1.82-0.05-2.74c0-0.92,0.02-1.83,0.05-2.74c0.66-16.94,7.44-32.3,18.21-43.94    c1.23-1.35,2.52-2.65,3.87-3.87c11.64-10.77,27.01-17.55,43.94-18.21c0.91-0.03,1.82-0.05,2.74-0.05c0.92,0,1.83,0.02,2.74,0.05    c16.93,0.66,32.3,7.44,43.94,18.21c1.35,1.23,2.65,2.52,3.88,3.87c10.76,11.64,17.54,27,18.2,43.94    C652.85,416.04,652.87,416.95,652.87,417.87z"/><path fill="#eee0cc" d="M652.82,420.61h-62.14l43.94,43.94c-1.23,1.35-2.53,2.65-3.88,3.88l-43.94-43.94v62.14    c-0.91,0.03-1.82,0.05-2.74,0.05c-0.92,0-1.83-0.02-2.74-0.05v-62.14l-43.94,43.94c-1.35-1.23-2.65-2.53-3.87-3.88l43.94-43.94    h-62.15c-0.03-0.91-0.05-1.82-0.05-2.74c0-0.92,0.02-1.83,0.05-2.74h62.15l-43.94-43.94c1.23-1.35,2.52-2.65,3.87-3.87    l43.94,43.94v-62.15c0.91-0.03,1.82-0.05,2.74-0.05c0.92,0,1.83,0.02,2.74,0.05v62.15l43.94-43.94c1.35,1.23,2.65,2.52,3.88,3.87    l-43.94,43.94h62.14c0.03,0.91,0.05,1.82,0.05,2.74C652.87,418.79,652.85,419.7,652.82,420.61z"/><path fill="#eee0cc" d="M629.28,407.9c-3.58,0.1-6.8,2-8.65,4.97l-23.37,0.67c-1.72-4.01-5.04-7.15-9.14-8.63l-0.67-23.37    c2.86-2.01,4.56-5.34,4.46-8.92c-0.17-5.81-5.03-10.4-10.84-10.23c-5.81,0.17-10.4,5.03-10.23,10.84c0.1,3.58,2,6.8,4.97,8.65    l0.67,23.41c-3.96,1.73-7.05,5.03-8.52,9.1l-23.48,0.68c-2.01-2.86-5.34-4.56-8.92-4.46c-5.81,0.17-10.4,5.03-10.23,10.84    c0.17,5.81,5.03,10.4,10.84,10.23c3.58-0.1,6.8-2,8.65-4.97l23.52-0.68c1.71,3.92,4.97,7,8.99,8.48l0.68,23.52    c-2.86,2.01-4.56,5.34-4.46,8.92c0.17,5.81,5.03,10.4,10.84,10.23c5.81-0.17,10.4-5.03,10.23-10.84c-0.1-3.58-2-6.8-4.97-8.65    l-0.68-23.48c3.98-1.7,7.09-4.98,8.59-9.03l23.41-0.67c2.01,2.86,5.34,4.56,8.92,4.46c5.81-0.17,10.4-5.03,10.23-10.84    C639.96,412.32,635.09,407.73,629.28,407.9z"/><path fill="#aa6400" d="M583.57,475.55c-5.81-0.03-10.52-4.78-10.49-10.59c0.02-3.58,1.83-6.85,4.76-8.77l0.35-76.2     c-2.91-1.94-4.69-5.23-4.68-8.81c0.03-5.81,4.78-10.52,10.59-10.49c5.81,0.03,10.52,4.78,10.49,10.59     c-0.02,3.58-1.83,6.85-4.76,8.77l-0.35,76.2c2.91,1.94,4.69,5.23,4.68,8.81C594.13,470.87,589.38,475.58,583.57,475.55z"/><path fill="#f7efe4" d="M586.7,457.88l0.36-79.48c2.78-1.17,4.73-3.92,4.75-7.12c0.02-4.29-3.44-7.78-7.73-7.8     c-4.29-0.02-7.78,3.44-7.8,7.73c-0.01,3.21,1.92,5.97,4.68,7.17l-0.36,79.48c-2.78,1.17-4.73,3.92-4.75,7.12     c-0.02,4.29,3.44,7.78,7.73,7.8c4.29,0.02,7.78-3.44,7.8-7.73C591.4,461.84,589.47,459.08,586.7,457.88z"/><path fill="#aa6400" d="M526.4,417.86c0.03-5.81,4.78-10.52,10.59-10.49c3.58,0.02,6.85,1.83,8.77,4.76l76.2,0.35     c1.94-2.91,5.23-4.69,8.81-4.68c5.81,0.03,10.52,4.78,10.49,10.59c-0.03,5.81-4.78,10.52-10.59,10.49     c-3.58-0.02-6.85-1.83-8.77-4.76l-76.2-0.35c-1.94,2.91-5.23,4.69-8.81,4.68C531.09,428.42,526.38,423.67,526.4,417.86z"/><path fill="#f7efe4" d="M544.08,420.99l79.48,0.36c1.17,2.78,3.92,4.73,7.12,4.75c4.29,0.02,7.78-3.44,7.8-7.73     c0.02-4.29-3.44-7.78-7.73-7.8c-3.21-0.01-5.97,1.92-7.17,4.68l-79.48-0.36c-1.17-2.78-3.92-4.73-7.12-4.75     c-4.29-0.02-7.78,3.44-7.8,7.73c-0.02,4.29,3.44,7.78,7.73,7.8C540.12,425.69,542.88,423.76,544.08,420.99z"/><circle cx="583.89" cy="418.07" r="15.76" fill="#aa6400" transform="rotate(-68.924 583.884 418.072)"/><circle cx="583.89" cy="418.07" r="11.87" fill="#f7efe4" transform="rotate(-55.285 583.895 418.064)"/><path fill="#aa6400" d="M579.5,408.68c8.91-3.43,15.76,5.48,13.71,13.02C589.79,410.05,579.5,408.68,579.5,408.68z"/><g><path fill="#a36000" d="M372.62,562.64v26.59c0,9.29-9.18,17.71-25.83,23.72c-15.58,5.61-36.23,8.7-58.14,8.7     c-17.8,0-34.77-2.04-48.86-5.82c-3.26-0.87-6.36-1.83-9.28-2.88c-16.66-6-25.83-14.43-25.83-23.72v-26.59     c0.23-1.7,0.85-3.36,1.83-4.99c0.16-0.28,0.34-0.56,0.53-0.84h163.23c0.19,0.28,0.37,0.56,0.54,0.84     C371.77,559.28,372.39,560.94,372.62,562.64z"/><path fill="#a36000" d="M369.78,560.27c0,0,0,26.56,0,29.01c0,8.09-9.27,15.41-24.22,20.67c-6.02,2.12-12.97,3.91-20.6,5.27     c-8.1,1.45-16.97,2.43-26.34,2.85c-3.27,0.14-6.6,0.22-9.98,0.22c-3.6,0-7.14-0.08-10.62-0.25c-9.12-0.43-17.76-1.39-25.66-2.81     c-7.63-1.36-14.57-3.15-20.6-5.26c-14.98-5.26-24.26-12.59-24.26-20.69c0-2,0-29.01,0-29.01H369.78z"/><path fill="#aa6400" d="M372.73,564.18c0,0.52-0.03,1.03-0.11,1.54c-0.23,1.71-0.85,3.37-1.83,4.99c-0.3,0.51-0.64,1.01-1.01,1.5     c-3.95,5.29-11.72,10.01-22.14,13.74c-0.68,0.24-1.37,0.48-2.08,0.72c-5.87,1.96-12.5,3.62-19.72,4.92     c-0.29,0.05-0.58,0.1-0.87,0.16c-8,1.4-16.7,2.34-25.87,2.75c-0.16,0.01-0.31,0.01-0.47,0.02c-3.27,0.15-6.61,0.22-9.98,0.22     c-3.54,0-7.03-0.08-10.46-0.24c-0.05,0-0.1,0-0.16-0.01c-9.09-0.41-17.72-1.35-25.66-2.74c-0.09-0.01-0.19-0.03-0.28-0.05     c-7.45-1.31-14.29-3.01-20.31-5.02c-0.54-0.18-1.08-0.36-1.61-0.55c-10.69-3.76-18.65-8.54-22.66-13.92     c-0.37-0.5-0.71-1-1.01-1.5c-0.98-1.62-1.6-3.29-1.83-4.99c-0.07-0.51-0.11-1.03-0.11-1.54s0.03-1.03,0.11-1.54     c0.23-1.7,0.85-3.37,1.83-4.99c0.17-0.28,0.34-0.56,0.54-0.84c3.62-5.34,11.12-10.12,21.35-13.94c6.22-2.33,13.46-4.3,21.44-5.81     c8.68-1.65,18.24-2.76,28.36-3.2c3.42-0.16,6.92-0.24,10.46-0.24c3.54,0,7.03,0.08,10.45,0.24c10.37,0.46,20.16,1.61,28.99,3.32     c7.96,1.54,15.14,3.54,21.32,5.88c9.96,3.79,17.28,8.5,20.85,13.75c0.19,0.28,0.37,0.56,0.54,0.84c0.97,1.62,1.59,3.29,1.82,4.99     C372.69,563.15,372.73,563.67,372.73,564.18z"/><path fill="#b97d28" d="M369.78,563.68c0,2.13-0.64,4.2-1.87,6.21c-3.41,5.6-11.33,10.59-22.34,14.47     c-6.14,2.16-13.23,3.97-21.04,5.35c-7.95,1.4-16.64,2.35-25.8,2.76c-3.3,0.15-6.68,0.23-10.09,0.23c-3.41,0-6.79-0.08-10.09-0.23     c-8.93-0.39-17.41-1.3-25.19-2.65c-7.84-1.35-14.98-3.14-21.16-5.29c-11.27-3.9-19.38-8.95-22.84-14.64     c-1.23-2-1.87-4.08-1.87-6.21c0-2.13,0.64-4.2,1.87-6.2c3.27-5.39,10.74-10.22,21.12-14.02c6-2.21,12.99-4.08,20.69-5.52     c8.37-1.56,17.6-2.61,27.37-3.04c3.3-0.15,6.68-0.23,10.09-0.23c3.41,0,6.79,0.08,10.09,0.23c10.01,0.44,19.45,1.53,27.97,3.15     c7.68,1.46,14.61,3.35,20.58,5.58c10.12,3.78,17.41,8.54,20.64,13.85C369.14,559.49,369.78,561.56,369.78,563.68z"/><path fill="#f5ede2" d="M367.92,569.89h-51.76l29.42,14.47c-6.14,2.16-13.23,3.97-21.04,5.35l-25.8-12.69v15.45     c-3.3,0.15-6.68,0.23-10.09,0.23c-3.41,0-6.79-0.08-10.09-0.23v-15.03l-25.19,12.39c-7.84-1.35-14.98-3.14-21.16-5.29     l29.77-14.64h-52.6c-1.23-2-1.87-4.08-1.87-6.21c0-2.13,0.64-4.2,1.87-6.2h49.64l-28.52-14.02c6-2.21,12.99-4.08,20.69-5.52     l27.37,13.45v-16.5c3.3-0.15,6.68-0.23,10.09-0.23c3.41,0,6.79,0.08,10.09,0.23v16.91l27.97-13.76     c7.68,1.46,14.61,3.35,20.58,5.58l-28.17,13.85h48.81c1.22,2,1.86,4.07,1.86,6.2C369.78,565.81,369.14,567.89,367.92,569.89z"/><path fill="#eee0cc" d="M298.63,594.53v23.55c-3.27,0.14-6.6,0.22-9.98,0.22c-3.6,0-7.14-0.08-10.62-0.25V594.5     c0.05,0,0.1,0,0.16,0.01c3.42,0.16,6.92,0.24,10.46,0.24C292.02,594.74,295.35,594.67,298.63,594.53z"/><path fill="#eee0cc" d="M345.56,586.68v23.27c-6.02,2.12-12.97,3.91-20.6,5.27v-23.47c0.29-0.05,0.58-0.1,0.87-0.16     C333.06,590.3,339.7,588.64,345.56,586.68z"/><path fill="#eee0cc" d="M252.37,591.76v23.47c-7.63-1.36-14.57-3.15-20.6-5.26v-23.28c6.02,2.02,12.87,3.71,20.31,5.02     C252.18,591.73,252.27,591.75,252.37,591.76z"/><path fill="#aa6400" d="M345.56,563.68c0,1.49-0.45,2.95-1.31,4.35c-2.39,3.93-7.95,7.43-15.67,10.15     c-4.31,1.52-9.28,2.78-14.76,3.75c-5.58,0.98-11.67,1.65-18.1,1.93c-2.32,0.11-4.68,0.16-7.08,0.16c-2.39,0-4.76-0.05-7.08-0.16     c-6.26-0.27-12.21-0.91-17.67-1.86c-5.5-0.95-10.5-2.21-14.84-3.71c-7.9-2.74-13.6-6.28-16.02-10.27     c-0.86-1.4-1.31-2.86-1.31-4.35c0-1.49,0.45-2.94,1.31-4.35c2.29-3.78,7.53-7.17,14.82-9.84c4.21-1.55,9.11-2.86,14.52-3.87     c5.87-1.1,12.35-1.83,19.2-2.14c2.32-0.11,4.68-0.16,7.08-0.16c2.39,0,4.76,0.05,7.08,0.16c7.02,0.31,13.64,1.07,19.62,2.21     c5.39,1.03,10.25,2.35,14.43,3.92c7.1,2.65,12.22,5.99,14.48,9.71C345.11,560.74,345.56,562.19,345.56,563.68z"/><path fill="#b97d28" d="M340.32,563.68c0,1.35-0.41,2.68-1.19,3.95c-2.17,3.57-7.22,6.75-14.23,9.22     c-3.91,1.38-8.43,2.53-13.4,3.41c-5.07,0.89-10.6,1.5-16.44,1.76c-2.1,0.1-4.25,0.14-6.43,0.14c-2.17,0-4.32-0.05-6.43-0.14     c-5.69-0.25-11.09-0.83-16.05-1.69c-4.99-0.86-9.54-2-13.47-3.37c-7.18-2.48-12.34-5.7-14.55-9.32c-0.78-1.27-1.19-2.6-1.19-3.95     c0-1.35,0.41-2.67,1.19-3.95c2.08-3.43,6.84-6.51,13.45-8.93c3.82-1.41,8.27-2.6,13.18-3.51c5.33-1,11.21-1.67,17.43-1.94     c2.1-0.1,4.25-0.14,6.43-0.14c2.17,0,4.32,0.05,6.43,0.14c6.37,0.28,12.39,0.97,17.82,2.01c4.89,0.93,9.31,2.14,13.1,3.56     c6.45,2.41,11.09,5.44,13.15,8.82C339.92,561.01,340.32,562.33,340.32,563.68z"/><polygon fill="#aa6400" points="288.16 550.74 298.13 556.05 319.67 559.18 302.68 563.23 308.78 574.56 288.5 567.13 270.24 574.56 275.33 564.58 257.32 559.18 278.86 556.05"/><g><path fill="#aa6400" d="M362.58,524.19v26.59c0,0.31-0.01,0.61-0.04,0.91c-0.11,1.74-0.55,3.45-1.3,5.12     c-0.1,0.22-0.21,0.44-0.32,0.67c-0.47,0.94-1.05,1.87-1.74,2.78c-2.58,3.49-6.62,6.73-11.99,9.62c-2.96,1.6-6.32,3.09-10.06,4.45     c-0.13,0.05-0.26,0.09-0.39,0.14c-2.17,0.78-4.43,1.51-6.79,2.2c-6.84,1.98-14.41,3.54-22.48,4.63     c-2.86,0.39-5.77,0.72-8.74,0.99c-6.51,0.59-13.26,0.9-20.13,0.9h-0.05c-2.38,0-4.75-0.04-7.09-0.11     c-1.37-0.04-2.73-0.09-4.07-0.16c-9.1-0.45-17.86-1.44-25.96-2.93c-1.73-0.32-3.42-0.66-5.09-1.03     c-5.71-1.24-11.03-2.74-15.88-4.48c-3.9-1.41-7.4-2.94-10.45-4.6c-0.32-0.16-0.63-0.34-0.94-0.52c-0.54-0.3-1.05-0.6-1.56-0.92     c-0.93-0.57-1.81-1.14-2.65-1.74c-0.06-0.04-0.12-0.09-0.19-0.14c-6.56-4.69-10.04-10.09-10.04-15.8v-26.59     c0.23-1.7,0.85-3.36,1.83-4.99c0.16-0.28,0.34-0.56,0.53-0.84h163.23c0.19,0.28,0.37,0.56,0.54,0.84     C361.73,520.82,362.35,522.49,362.58,524.19z"/><path fill="#aa6400" d="M359.74,521.82c0,0,0,26.56,0,29.01c0,8.09-9.27,15.41-24.22,20.67c-6.02,2.12-12.97,3.91-20.6,5.27     c-8.1,1.45-16.97,2.43-26.34,2.85c-3.27,0.14-6.6,0.22-9.98,0.22c-3.6,0-7.14-0.08-10.62-0.25c-9.12-0.43-17.76-1.39-25.66-2.81     c-7.63-1.36-14.57-3.15-20.6-5.26c-14.98-5.26-24.26-12.59-24.26-20.69c0-2,0-29.01,0-29.01H359.74z"/><path fill="#aa6400" d="M362.68,525.73c0,0.52-0.03,1.03-0.11,1.54c-0.23,1.71-0.85,3.37-1.83,4.99c-0.3,0.51-0.64,1.01-1.01,1.5     c-3.95,5.29-11.72,10.01-22.14,13.74c-0.68,0.24-1.37,0.48-2.08,0.72c-5.87,1.96-12.5,3.62-19.72,4.92     c-0.29,0.05-0.58,0.1-0.87,0.16c-8,1.4-16.7,2.34-25.87,2.75c-0.16,0.01-0.31,0.01-0.47,0.02c-3.27,0.15-6.61,0.22-9.98,0.22     c-3.54,0-7.03-0.08-10.46-0.24c-0.05,0-0.1,0-0.16-0.01c-9.09-0.41-17.72-1.35-25.66-2.74c-0.09-0.01-0.19-0.03-0.28-0.05     c-7.45-1.31-14.29-3.01-20.31-5.02c-0.54-0.18-1.08-0.36-1.61-0.55c-10.69-3.77-18.65-8.54-22.66-13.92     c-0.37-0.5-0.71-1-1.01-1.5c-0.98-1.62-1.6-3.29-1.83-4.99c-0.07-0.51-0.11-1.03-0.11-1.54s0.03-1.03,0.11-1.54     c0.23-1.7,0.85-3.37,1.83-4.99c0.17-0.28,0.34-0.56,0.54-0.84c3.62-5.34,11.12-10.12,21.35-13.94c6.22-2.33,13.46-4.3,21.44-5.81     c8.68-1.65,18.24-2.76,28.36-3.2c3.42-0.16,6.92-0.24,10.46-0.24c3.54,0,7.03,0.08,10.45,0.24c10.37,0.46,20.16,1.61,28.99,3.32     c7.96,1.54,15.14,3.54,21.32,5.88c9.96,3.79,17.28,8.5,20.85,13.75c0.19,0.28,0.37,0.56,0.54,0.84c0.97,1.62,1.59,3.29,1.82,4.99     C362.65,524.7,362.68,525.21,362.68,525.73z"/><path fill="#b97d28" d="M359.74,525.23c0,2.13-0.64,4.2-1.87,6.21c-3.41,5.6-11.33,10.59-22.34,14.47     c-6.14,2.16-13.23,3.97-21.04,5.35c-7.95,1.4-16.64,2.35-25.8,2.76c-3.3,0.15-6.68,0.23-10.09,0.23c-3.41,0-6.79-0.08-10.09-0.23     c-8.93-0.39-17.41-1.3-25.19-2.65c-7.84-1.35-14.98-3.14-21.16-5.29c-11.27-3.9-19.38-8.95-22.84-14.64     c-1.23-2-1.87-4.08-1.87-6.21s0.64-4.2,1.87-6.2c3.27-5.39,10.74-10.22,21.12-14.02c6-2.21,12.99-4.08,20.69-5.52     c8.37-1.56,17.6-2.61,27.37-3.04c3.3-0.15,6.68-0.23,10.09-0.23c3.41,0,6.79,0.08,10.09,0.23c10.01,0.44,19.45,1.53,27.97,3.15     c7.68,1.46,14.61,3.35,20.58,5.58c10.12,3.78,17.41,8.54,20.64,13.85C359.1,521.04,359.74,523.1,359.74,525.23z"/><path fill="#f5ede2" d="M357.87,531.44h-51.76l29.42,14.47c-6.14,2.16-13.23,3.97-21.04,5.35l-25.8-12.69v15.45     c-3.3,0.15-6.68,0.23-10.09,0.23c-3.41,0-6.79-0.08-10.09-0.23v-15.03l-25.19,12.39c-7.84-1.35-14.98-3.14-21.16-5.29     l29.77-14.64h-52.6c-1.23-2-1.87-4.08-1.87-6.21s0.64-4.2,1.87-6.2h49.64l-28.52-14.02c6-2.21,12.99-4.08,20.69-5.52l27.37,13.45     v-16.5c3.3-0.15,6.68-0.23,10.09-0.23c3.41,0,6.79,0.08,10.09,0.23v16.91l27.97-13.76c7.68,1.46,14.61,3.35,20.58,5.58     l-28.17,13.85h48.81c1.22,2,1.86,4.07,1.86,6.2S359.1,529.44,357.87,531.44z"/><path fill="#eee0cc" d="M288.58,556.07v23.55c-3.27,0.14-6.6,0.22-9.98,0.22c-3.6,0-7.14-0.08-10.62-0.25v-23.54     c0.05,0,0.1,0,0.16,0.01c3.42,0.16,6.92,0.24,10.46,0.24C281.97,556.29,285.31,556.22,288.58,556.07z"/><path fill="#eee0cc" d="M335.52,548.23v23.27c-6.02,2.12-12.97,3.91-20.6,5.27V553.3c0.29-0.05,0.58-0.1,0.87-0.16     C323.01,551.85,329.65,550.19,335.52,548.23z"/><path fill="#eee0cc" d="M242.32,553.31v23.47c-7.63-1.36-14.57-3.15-20.6-5.26v-23.28c6.02,2.02,12.87,3.71,20.31,5.02     C242.13,553.28,242.23,553.3,242.32,553.31z"/><path fill="#aa6400" d="M335.52,525.23c0,1.49-0.45,2.95-1.31,4.35c-2.39,3.93-7.95,7.43-15.67,10.15     c-4.31,1.52-9.28,2.78-14.76,3.75c-5.58,0.98-11.67,1.65-18.1,1.93c-2.32,0.11-4.68,0.16-7.08,0.16c-2.39,0-4.76-0.05-7.08-0.16     c-6.26-0.27-12.21-0.91-17.67-1.86c-5.5-0.95-10.5-2.21-14.84-3.71c-7.9-2.74-13.6-6.28-16.02-10.27     c-0.86-1.4-1.31-2.86-1.31-4.35c0-1.49,0.45-2.94,1.31-4.35c2.29-3.78,7.53-7.17,14.82-9.84c4.21-1.55,9.11-2.86,14.52-3.87     c5.87-1.1,12.35-1.83,19.2-2.14c2.32-0.11,4.68-0.16,7.08-0.16c2.39,0,4.76,0.05,7.08,0.16c7.02,0.31,13.64,1.07,19.62,2.21     c5.39,1.03,10.25,2.35,14.43,3.92c7.1,2.65,12.22,5.99,14.48,9.71C335.07,522.29,335.52,523.74,335.52,525.23z"/><path fill="#b97d28" d="M330.28,525.23c0,1.35-0.41,2.68-1.19,3.95c-2.17,3.57-7.22,6.75-14.23,9.22     c-3.91,1.38-8.43,2.53-13.4,3.41c-5.07,0.89-10.6,1.5-16.44,1.76c-2.1,0.1-4.25,0.14-6.43,0.14c-2.17,0-4.32-0.05-6.43-0.14     c-5.69-0.25-11.09-0.83-16.05-1.69c-4.99-0.86-9.54-2-13.47-3.37c-7.18-2.48-12.34-5.7-14.55-9.32c-0.78-1.27-1.19-2.6-1.19-3.95     c0-1.35,0.41-2.67,1.19-3.95c2.08-3.43,6.84-6.51,13.45-8.93c3.82-1.41,8.27-2.6,13.18-3.51c5.33-1,11.21-1.67,17.43-1.94     c2.1-0.1,4.25-0.14,6.43-0.14c2.17,0,4.32,0.05,6.43,0.14c6.37,0.28,12.39,0.97,17.82,2.01c4.89,0.93,9.31,2.14,13.1,3.56     c6.45,2.41,11.09,5.44,13.15,8.82C329.87,522.56,330.28,523.88,330.28,525.23z"/><polygon fill="#aa6400" points="278.12 512.29 288.09 517.6 309.63 520.73 292.64 524.78 298.73 536.11 278.45 528.68 260.2 536.11 265.28 526.13 247.28 520.73 268.82 517.6"/></g><g><path fill="#a36000" d="M382.66,481.58v26.59c0,9.29-9.17,17.71-25.83,23.71c-15.58,5.61-36.23,8.71-58.14,8.71     c-21.91,0-42.56-3.09-58.14-8.71c-16.66-6-25.83-14.42-25.83-23.71v-26.59c0.23-1.7,0.85-3.37,1.83-4.99     c0.17-0.28,0.34-0.56,0.54-0.84H380.3c0.19,0.28,0.37,0.56,0.54,0.84C381.81,478.21,382.43,479.88,382.66,481.58z"/><path fill="#a36000" d="M379.83,479.21c0,0,0,26.56,0,29.01c0,8.09-9.27,15.41-24.22,20.67c-6.02,2.12-12.97,3.91-20.6,5.27     c-8.1,1.45-16.97,2.43-26.34,2.85c-3.27,0.14-6.6,0.22-9.98,0.22c-3.6,0-7.14-0.08-10.62-0.25c-9.12-0.43-17.76-1.39-25.66-2.81     c-7.63-1.36-14.57-3.15-20.6-5.26c-14.98-5.26-24.26-12.59-24.26-20.69c0-2,0-29.01,0-29.01H379.83z"/><path fill="#aa6400" d="M382.77,483.12c0,0.52-0.03,1.03-0.11,1.54c-0.23,1.71-0.85,3.37-1.83,4.99c-0.3,0.51-0.64,1.01-1.01,1.5     c-3.95,5.29-11.72,10.01-22.14,13.74c-0.68,0.24-1.37,0.48-2.08,0.72c-5.87,1.96-12.5,3.62-19.72,4.92     c-0.29,0.05-0.58,0.1-0.87,0.16c-8,1.4-16.7,2.34-25.87,2.75c-0.16,0.01-0.31,0.01-0.47,0.02c-3.27,0.15-6.61,0.22-9.98,0.22     c-3.54,0-7.03-0.08-10.46-0.24c-0.05,0-0.1,0-0.16-0.01c-9.09-0.41-17.72-1.35-25.66-2.74c-0.09-0.01-0.19-0.03-0.28-0.05     c-7.45-1.31-14.29-3.01-20.31-5.02c-0.54-0.18-1.08-0.36-1.61-0.55c-10.69-3.76-18.65-8.54-22.66-13.92     c-0.37-0.5-0.71-1-1.01-1.5c-0.98-1.62-1.6-3.29-1.83-4.99c-0.07-0.51-0.11-1.03-0.11-1.54c0-0.52,0.03-1.03,0.11-1.54     c0.23-1.7,0.85-3.37,1.83-4.99c0.17-0.28,0.34-0.56,0.54-0.84c3.62-5.34,11.12-10.12,21.35-13.94c6.22-2.33,13.46-4.3,21.44-5.81     c8.68-1.65,18.24-2.76,28.36-3.2c3.42-0.16,6.92-0.24,10.46-0.24c3.54,0,7.03,0.08,10.45,0.24c10.37,0.46,20.16,1.61,28.99,3.32     c7.96,1.54,15.14,3.54,21.32,5.88c9.96,3.79,17.28,8.5,20.85,13.75c0.19,0.28,0.37,0.56,0.54,0.84c0.97,1.62,1.59,3.29,1.82,4.99     C382.74,482.09,382.77,482.6,382.77,483.12z"/><path fill="#b97d28" d="M379.83,482.62c0,2.13-0.64,4.2-1.87,6.21c-3.41,5.6-11.33,10.59-22.34,14.47     c-6.14,2.16-13.23,3.97-21.04,5.35c-7.95,1.4-16.64,2.35-25.8,2.76c-3.3,0.15-6.68,0.23-10.09,0.23c-3.41,0-6.79-0.08-10.09-0.23     c-8.93-0.39-17.41-1.3-25.19-2.65c-7.84-1.35-14.98-3.14-21.16-5.29c-11.27-3.9-19.38-8.95-22.84-14.64     c-1.23-2-1.87-4.08-1.87-6.21c0-2.13,0.64-4.2,1.87-6.2c3.27-5.39,10.74-10.22,21.12-14.02c6-2.21,12.99-4.08,20.69-5.52     c8.37-1.56,17.6-2.61,27.37-3.04c3.3-0.15,6.68-0.23,10.09-0.23c3.41,0,6.79,0.08,10.09,0.23c10.01,0.44,19.45,1.53,27.97,3.15     c7.68,1.46,14.61,3.35,20.58,5.58c10.12,3.78,17.41,8.54,20.64,13.85C379.19,478.43,379.83,480.49,379.83,482.62z"/><path fill="#f5ede2" d="M377.96,488.83H326.2l29.42,14.47c-6.14,2.16-13.23,3.97-21.04,5.35l-25.8-12.69v15.45     c-3.3,0.15-6.68,0.23-10.09,0.23c-3.41,0-6.79-0.08-10.09-0.23v-15.03l-25.19,12.39c-7.84-1.35-14.98-3.14-21.16-5.29     l29.77-14.64h-52.6c-1.23-2-1.87-4.08-1.87-6.21c0-2.13,0.64-4.2,1.87-6.2h49.64l-28.52-14.02c6-2.21,12.99-4.08,20.69-5.52     l27.37,13.45v-16.5c3.3-0.15,6.68-0.23,10.09-0.23c3.41,0,6.79,0.08,10.09,0.23v16.91l27.97-13.76     c7.68,1.46,14.61,3.35,20.58,5.58l-28.17,13.85h48.81c1.22,2,1.86,4.07,1.86,6.2C379.83,484.75,379.19,486.83,377.96,488.83z"/><path fill="#eee0cc" d="M308.67,513.46v23.55c-3.27,0.14-6.6,0.22-9.98,0.22c-3.6,0-7.14-0.08-10.62-0.25v-23.54     c0.05,0,0.1,0,0.16,0.01c3.42,0.16,6.92,0.24,10.46,0.24C302.06,513.68,305.4,513.61,308.67,513.46z"/><path fill="#eee0cc" d="M355.61,505.62v23.27c-6.02,2.12-12.97,3.91-20.6,5.27v-23.47c0.29-0.05,0.58-0.1,0.87-0.16     C343.1,509.24,349.74,507.58,355.61,505.62z"/><path fill="#eee0cc" d="M262.41,510.7v23.47c-7.63-1.36-14.57-3.15-20.6-5.26v-23.28c6.02,2.02,12.87,3.71,20.31,5.02     C262.22,510.67,262.31,510.69,262.41,510.7z"/><path fill="#aa6400" d="M355.61,482.62c0,1.49-0.45,2.95-1.31,4.35c-2.39,3.93-7.95,7.43-15.67,10.15     c-4.31,1.52-9.28,2.78-14.76,3.75c-5.58,0.98-11.67,1.65-18.1,1.93c-2.32,0.11-4.68,0.16-7.08,0.16s-4.76-0.05-7.08-0.16     c-6.26-0.27-12.21-0.91-17.67-1.86c-5.5-0.95-10.5-2.21-14.84-3.71c-7.9-2.74-13.6-6.28-16.02-10.27     c-0.86-1.4-1.31-2.86-1.31-4.35c0-1.49,0.45-2.94,1.31-4.35c2.29-3.78,7.53-7.17,14.82-9.84c4.21-1.55,9.11-2.86,14.52-3.87     c5.87-1.1,12.35-1.83,19.2-2.14c2.32-0.11,4.68-0.16,7.08-0.16s4.76,0.05,7.08,0.16c7.02,0.31,13.64,1.07,19.62,2.21     c5.39,1.03,10.25,2.35,14.43,3.92c7.1,2.65,12.22,5.99,14.48,9.71C355.16,479.68,355.61,481.13,355.61,482.62z"/><path fill="#b97d28" d="M350.37,482.62c0,1.35-0.41,2.68-1.19,3.95c-2.17,3.57-7.22,6.75-14.23,9.22     c-3.91,1.38-8.43,2.53-13.4,3.41c-5.07,0.89-10.6,1.5-16.44,1.76c-2.1,0.1-4.25,0.14-6.43,0.14c-2.17,0-4.32-0.05-6.43-0.14     c-5.69-0.25-11.09-0.83-16.05-1.69c-4.99-0.86-9.54-2-13.47-3.37c-7.18-2.48-12.34-5.7-14.55-9.32c-0.78-1.27-1.19-2.6-1.19-3.95     c0-1.35,0.41-2.67,1.19-3.95c2.08-3.43,6.84-6.51,13.45-8.93c3.82-1.41,8.27-2.6,13.18-3.51c5.33-1,11.21-1.67,17.43-1.94     c2.1-0.1,4.25-0.14,6.43-0.14c2.17,0,4.32,0.05,6.43,0.14c6.37,0.28,12.39,0.97,17.82,2.01c4.89,0.93,9.31,2.14,13.1,3.56     c6.45,2.41,11.09,5.44,13.15,8.82C349.96,479.95,350.37,481.27,350.37,482.62z"/><polygon fill="#aa6400" points="298.2 469.68 308.17 474.99 329.72 478.12 312.72 482.17 318.82 493.5 298.54 486.07 280.28 493.5 285.37 483.52 267.36 478.12 288.9 474.99"/></g><g><path fill="#eee0cc" d="M248.86,554.33c-0.01,0.85-0.04,1.69-0.11,2.49c-0.01,0.23-0.04,0.45-0.06,0.67     c-0.09,0.96-0.23,1.89-0.4,2.78c-0.73,3.8-2.09,7-3.64,9.62c-0.53,0.9-1.08,1.72-1.64,2.47c-0.23,0.32-0.46,0.62-0.69,0.91     c-0.44,0.56-0.88,1.08-1.31,1.55c-0.48,0.54-0.95,1.02-1.39,1.44c-1.87,1.82-3.29,2.7-3.29,2.7c0.65,0.71,1.21,1.62,1.67,2.7     c0.65,1.43,1.14,3.16,1.51,5.11c0.14,0.74,0.27,1.51,0.38,2.32c0.94,6.81,0.72,15.54,0.15,23.41c-0.09,1.13-0.17,2.24-0.27,3.32     c-3.26-0.87-6.36-1.83-9.28-2.88c-16.66-6-25.83-14.43-25.83-23.72v-22.65c-6.56-4.69-10.04-10.09-10.04-15.8v-6.93     c0.95-0.44,1.89-0.89,2.83-1.33c2.09-0.98,4.17-1.95,6.21-2.91c0.88-0.42,1.74-0.82,2.6-1.22c5.4-2.52,10.52-4.89,14.99-6.96     c0.77-0.36,1.53-0.71,2.26-1.05c1.48-0.68,2.88-1.33,4.18-1.92c6.15-2.83,10.02-4.6,10.02-4.6c1.78,2.62,3.31,5.14,4.61,7.57     c0.7,1.29,1.32,2.55,1.89,3.79c0.44,0.93,0.83,1.84,1.18,2.75h0.01c0.14,0.36,0.29,0.72,0.42,1.07c0.07,0.19,0.14,0.37,0.21,0.55     c0.32,0.87,0.61,1.72,0.86,2.55c0.74,2.35,1.24,4.58,1.55,6.7c0.02,0.14,0.04,0.28,0.06,0.42c0.13,0.92,0.22,1.81,0.27,2.68     c0.01,0.09,0.01,0.19,0.02,0.29c0.01,0.09,0.01,0.17,0.01,0.26C248.85,553.11,248.86,553.72,248.86,554.33z"/></g><g><path fill="#a36000" d="M77.38,589.97l13.48,22.92c4.71,8.01,16.88,10.62,34.29,7.35c16.28-3.06,35.64-10.85,54.53-21.96     c18.89-11.11,35.12-24.23,45.71-36.97c11.32-13.61,14.96-25.52,10.25-33.53l-13.48-22.92c-1.06-1.35-2.44-2.47-4.1-3.37     c-0.29-0.16-0.58-0.31-0.89-0.45L76.46,583.76c-0.03,0.34-0.04,0.67-0.04,1C76.41,586.64,76.72,588.39,77.38,589.97z"/><path fill="#a36000" d="M78.62,586.49c0,0,13.46,22.9,14.7,25.01c4.1,6.98,15.8,8.59,31.36,5.55c6.26-1.22,13.16-3.2,20.43-5.89     c7.72-2.85,15.86-6.5,24.15-10.89c2.89-1.54,5.8-3.16,8.71-4.87c3.1-1.82,6.11-3.69,9.03-5.59c7.64-4.99,14.6-10.2,20.7-15.43     c5.89-5.04,10.97-10.1,15.09-14.98c10.24-12.12,14.54-23.15,10.43-30.13c-1.01-1.72-14.7-25.01-14.7-25.01L78.62,586.49z"/><path fill="#aa6400" d="M78.07,591.36c0.26,0.45,0.55,0.87,0.88,1.28c1.06,1.35,2.44,2.48,4.11,3.38     c0.52,0.28,1.06,0.54,1.63,0.78c6.09,2.56,15.17,2.69,26.05,0.63c0.71-0.14,1.43-0.28,2.16-0.44c6.05-1.28,12.61-3.22,19.49-5.76     c0.28-0.1,0.55-0.2,0.83-0.31c7.61-2.85,15.58-6.45,23.69-10.74c0.14-0.07,0.28-0.15,0.42-0.22c2.89-1.53,5.81-3.16,8.72-4.87     c3.05-1.79,6.02-3.63,8.89-5.51c0.04-0.03,0.09-0.06,0.13-0.09c7.63-4.96,14.59-10.15,20.74-15.36c0.07-0.06,0.15-0.12,0.22-0.18     c5.76-4.9,10.79-9.84,14.97-14.63c0.38-0.43,0.74-0.86,1.11-1.29c7.31-8.67,11.75-16.81,12.48-23.48c0.07-0.61,0.1-1.22,0.11-1.8     c0.02-1.89-0.29-3.64-0.96-5.23c-0.19-0.48-0.43-0.94-0.69-1.39s-0.55-0.87-0.87-1.27c-1.06-1.35-2.44-2.47-4.1-3.37     c-0.29-0.16-0.58-0.31-0.89-0.45c-5.83-2.77-14.72-3.09-25.47-1.2c-6.54,1.14-13.78,3.12-21.43,5.86     c-8.32,2.98-17.12,6.87-26.07,11.61c-3.03,1.6-6.09,3.3-9.14,5.09c-3.05,1.79-6.02,3.63-8.89,5.5     c-8.71,5.65-16.56,11.6-23.31,17.55c-6.08,5.36-11.26,10.72-15.4,15.88c-6.67,8.32-10.59,16.09-11.01,22.42     c-0.03,0.34-0.04,0.67-0.04,1c-0.02,1.89,0.29,3.64,0.96,5.22C77.58,590.45,77.81,590.91,78.07,591.36z"/><path fill="#b97d28" d="M80.35,589.43c1.08,1.83,2.68,3.3,4.75,4.4c5.77,3.1,15.14,3.39,26.59,1.15     c6.39-1.25,13.42-3.29,20.85-6.05c7.57-2.82,15.54-6.4,23.64-10.7c2.93-1.54,5.87-3.19,8.81-4.92c2.94-1.73,5.81-3.5,8.58-5.31     c7.5-4.86,14.34-9.94,20.37-15.05c6.07-5.14,11.32-10.3,15.56-15.28c7.74-9.07,12.17-17.54,12.27-24.19     c0.04-2.35-0.46-4.46-1.54-6.3s-2.68-3.29-4.75-4.4c-5.55-2.99-14.43-3.37-25.32-1.39c-6.3,1.14-13.27,3.07-20.63,5.73     c-8.01,2.9-16.5,6.66-25.14,11.25c-2.93,1.54-5.87,3.19-8.81,4.92c-2.94,1.73-5.81,3.5-8.58,5.31     c-8.4,5.45-15.99,11.17-22.52,16.89c-5.88,5.15-10.9,10.3-14.91,15.24c-6.81,8.39-10.68,16.19-10.78,22.4     C78.78,585.49,79.28,587.6,80.35,589.43z"/><path fill="#f5ede2" d="M85.11,593.84l44.62-26.23l-18.03,27.38c6.39-1.25,13.42-3.29,20.85-6.05l15.82-24.02l7.83,13.32     c2.93-1.54,5.87-3.19,8.81-4.92c2.94-1.73,5.81-3.5,8.58-5.31l-7.62-12.96l27.99-2.09c6.07-5.14,11.32-10.3,15.56-15.28     l-33.08,2.46l45.35-26.66c0.04-2.35-0.46-4.46-1.54-6.3s-2.68-3.29-4.75-4.4l-42.8,25.16l17.48-26.54     c-6.3,1.14-13.27,3.07-20.63,5.73l-16.78,25.47l-8.36-14.22c-2.93,1.54-5.87,3.19-8.81,4.92c-2.94,1.73-5.81,3.5-8.58,5.31     l8.57,14.58l-31.09,2.32c-5.88,5.15-10.9,10.3-14.91,15.24l31.3-2.34l-42.08,24.74c-0.04,2.34,0.46,4.45,1.54,6.28     C81.43,591.27,83.03,592.73,85.11,593.84z"/><path fill="#eee0cc" d="M157.33,579.96l11.93,20.3c2.89-1.54,5.8-3.16,8.71-4.87c3.1-1.82,6.11-3.69,9.03-5.59l-11.93-20.3     c-0.04,0.03-0.09,0.06-0.13,0.09c-2.87,1.87-5.84,3.71-8.89,5.51C163.13,576.8,160.22,578.43,157.33,579.96z"/><path fill="#eee0cc" d="M112.89,596.99l11.79,20.06c6.26-1.22,13.16-3.2,20.43-5.89l-11.89-20.23c-0.28,0.11-0.56,0.21-0.83,0.31     C125.5,593.77,118.94,595.7,112.89,596.99z"/><path fill="#eee0cc" d="M195.81,554.14l11.89,20.23c5.89-5.04,10.97-10.1,15.09-14.98l-11.8-20.07     c-4.17,4.79-9.21,9.72-14.97,14.63C195.95,554.02,195.88,554.08,195.81,554.14z"/><path fill="#aa6400" d="M101.23,577.16c0.76,1.29,1.88,2.32,3.33,3.09c4.05,2.18,10.62,2.38,18.65,0.81     c4.48-0.88,9.41-2.3,14.62-4.24c5.31-1.98,10.9-4.49,16.59-7.51c2.05-1.08,4.12-2.24,6.18-3.45c2.06-1.21,4.08-2.46,6.02-3.72     c5.26-3.41,10.06-6.98,14.29-10.56c4.26-3.6,7.94-7.23,10.91-10.72c5.43-6.36,8.54-12.31,8.61-16.97     c0.03-1.65-0.32-3.13-1.08-4.42c-0.76-1.29-1.88-2.31-3.33-3.08c-3.89-2.1-10.13-2.36-17.76-0.97c-4.42,0.8-9.31,2.15-14.47,4.02     c-5.62,2.03-11.57,4.67-17.63,7.89c-2.05,1.08-4.12,2.24-6.18,3.45c-2.06,1.21-4.08,2.46-6.02,3.72     c-5.9,3.82-11.22,7.84-15.8,11.85c-4.12,3.61-7.64,7.22-10.46,10.69c-4.78,5.89-7.49,11.36-7.56,15.71     C100.13,574.4,100.48,575.87,101.23,577.16z"/><path fill="#b97d28" d="M105.75,574.51c0.69,1.17,1.71,2.1,3.03,2.8c3.68,1.98,9.64,2.16,16.94,0.73     c4.07-0.79,8.55-2.09,13.28-3.85c4.82-1.8,9.9-4.08,15.06-6.81c1.86-0.98,3.74-2.03,5.61-3.13c1.87-1.1,3.7-2.23,5.47-3.38     c4.78-3.09,9.14-6.33,12.98-9.59c3.87-3.27,7.21-6.56,9.91-9.73c4.93-5.78,7.75-11.17,7.81-15.41c0.03-1.5-0.29-2.84-0.98-4.01     c-0.69-1.17-1.71-2.1-3.03-2.8c-3.54-1.9-9.19-2.14-16.12-0.88c-4.01,0.72-8.45,1.95-13.14,3.65c-5.1,1.84-10.51,4.24-16.01,7.16     c-1.86,0.98-3.74,2.03-5.61,3.13c-1.87,1.1-3.7,2.23-5.47,3.38c-5.35,3.47-10.18,7.12-14.34,10.76c-3.74,3.28-6.94,6.56-9.5,9.71     c-4.34,5.35-6.8,10.31-6.86,14.27C104.75,572,105.06,573.34,105.75,574.51z"/><polygon fill="#aa6400" points="144.16 536.91 138.26 546.54 121.27 560.16 137.98 555.04 138.46 567.89 152.18 551.21 171.68 548.37 162.24 542.34 175.03 528.56 154.87 536.78"/></g></g></svg>